<svg width="62" height="63" viewBox="0 0 62 63" fill="none" xmlns="http://www.w3.org/2000/svg">
<path d="M3.5 31.5C3.5 16.3122 15.8122 4 31 4C46.1878 4 58.5 16.3122 58.5 31.5C58.5 46.6878 46.1878 59 31 59C15.8122 59 3.5 46.6878 3.5 31.5Z" fill="#FB8A3C"/>
<path d="M3.5 31.5C3.5 16.3122 15.8122 4 31 4C46.1878 4 58.5 16.3122 58.5 31.5C58.5 46.6878 46.1878 59 31 59C15.8122 59 3.5 46.6878 3.5 31.5Z" stroke="#FECCAA" stroke-width="7"/>
<path d="M41.5401 37.9999L32.8735 22.8333C32.6845 22.4998 32.4105 22.2225 32.0793 22.0295C31.7482 21.8365 31.3718 21.7349 30.9885 21.7349C30.6052 21.7349 30.2288 21.8365 29.8976 22.0295C29.5665 22.2225 29.2925 22.4998 29.1035 22.8333L20.4368 37.9999C20.2458 38.3307 20.1456 38.7061 20.1465 39.0881C20.1473 39.4701 20.2492 39.8451 20.4416 40.1751C20.6341 40.505 20.9104 40.7782 21.2425 40.967C21.5746 41.1557 21.9507 41.2534 22.3326 41.2499H39.666C40.0461 41.2495 40.4195 41.1491 40.7485 40.9588C41.0776 40.7685 41.3508 40.4949 41.5407 40.1656C41.7306 39.8363 41.8305 39.4628 41.8304 39.0827C41.8303 38.7026 41.7302 38.3291 41.5401 37.9999Z" stroke="#FFF4ED" stroke-linecap="round" stroke-linejoin="round"/>
<path d="M31 28.25V32.5833" stroke="#FFF4ED" stroke-linecap="round" stroke-linejoin="round"/>
<path d="M31 36.9167H31.0108" stroke="#FFF4ED" stroke-linecap="round" stroke-linejoin="round"/>
</svg>
