<svg width="382" height="250" viewBox="0 0 382 250" fill="none" xmlns="http://www.w3.org/2000/svg">
<path d="M375.144 58.9433L369.178 87.8413L365.337 84.0942L358.803 88.7578L353.809 82.5542L342.611 90.6968L333.041 74.6922L322.367 80.9457L318.134 75.11L304.579 82.7475L300.502 74.0127L310.004 27.9941L360.941 38.5121L375.144 58.9433Z" fill="#EBEBEB"/>
<path d="M360.941 38.5117L375.144 58.9429L357.475 55.2956L360.941 38.5117Z" fill="#DBDBDB"/>
<path d="M367.905 93.6144L359.158 136.011L290.545 121.845L299.23 79.792L303.307 88.5206L316.868 80.8831L321.095 86.7188L331.775 80.4716L341.339 96.4761L352.543 88.3336L357.531 94.5309L364.071 89.8735L367.905 93.6144Z" fill="#EBEBEB"/>
<path d="M269.702 88.6453L199.78 92.9722L194.225 3.21712L246.147 0L265.207 15.9921L269.702 88.6453Z" fill="#EBEBEB"/>
<path d="M246.146 0L265.206 15.9921L247.2 17.1081L246.146 0Z" fill="#DBDBDB"/>
<path d="M226.79 60.3957L226.515 58.3694C225.811 54.1734 226.958 49.4787 230.605 44.572C233.897 40.2076 235.68 37.0903 235.481 33.549C235.256 29.5587 232.607 27.0399 227.675 27.2394C224.857 27.3858 222.149 28.3861 219.913 30.1074L217.762 25.2879C220.256 23.2617 224.62 21.7653 228.766 21.5471C237.763 21.0483 242.14 26.3728 242.482 32.3145C242.782 37.6327 240.026 41.6292 236.522 46.299C233.305 50.5573 232.251 54.0674 232.706 58.039L232.9 60.0715L226.79 60.3957ZM225.68 71.4374C225.518 68.5445 227.357 66.3997 230.094 66.2501C232.831 66.1005 234.826 68.0208 234.988 70.9199C235.138 73.6569 233.461 75.864 230.568 76.0261C227.806 76.182 225.811 74.1744 225.655 71.4374H225.68Z" fill="#F97316"/>
<path d="M51.892 45.1269L44.8592 41.9409L43.8803 44.0919C43.7358 44.3993 43.5103 44.6615 43.228 44.8505C42.9457 45.0394 42.6173 45.1479 42.278 45.1643C41.8915 45.1769 41.5063 45.2144 41.1246 45.2765C40.7896 45.3263 40.4473 45.2841 40.1343 45.1545C39.8214 45.0249 39.5495 44.8128 39.3477 44.5408L37.9698 42.6143L31.6914 47.1157L33.0693 49.0423C33.261 49.3203 33.3737 49.6451 33.3957 49.9821C33.4177 50.3191 33.348 50.6558 33.194 50.9563C33.0162 51.2992 32.856 51.6509 32.7139 52.01C32.5904 52.3267 32.383 52.6037 32.1138 52.8113C31.8447 53.0189 31.5241 53.1493 31.1864 53.1884L28.8359 53.419L29.5903 61.1065L31.9533 60.8695C32.2922 60.8425 32.632 60.9083 32.9363 61.0599C33.2406 61.2115 33.4978 61.4431 33.6803 61.7299C33.7801 61.892 33.8861 62.0479 33.9983 62.2038C34.1105 62.3596 34.2227 62.5093 34.3412 62.6589C34.5564 62.9207 34.6947 63.237 34.741 63.5727C34.7872 63.9084 34.7394 64.2503 34.6031 64.5605L33.618 66.7302L40.657 69.9224L41.6358 67.7589C41.7817 67.4518 42.0086 67.1902 42.292 67.0024C42.5754 66.8145 42.9047 66.7075 43.2444 66.6928C43.6265 66.677 44.0075 66.6395 44.3854 66.5806C44.7204 66.5308 45.0627 66.573 45.3756 66.7025C45.6886 66.8321 45.9604 67.0442 46.1622 67.3162L47.5401 69.2428L53.8247 64.7413L52.4469 62.8148C52.2493 62.5392 52.1329 62.2139 52.1109 61.8756C52.0889 61.5373 52.162 61.1995 52.3222 60.9007C52.4958 60.5598 52.6519 60.2102 52.7898 59.8533C52.9097 59.5343 53.1161 59.255 53.386 59.0469C53.6558 58.8387 53.9783 58.7099 54.3173 58.6749L56.6802 58.438L55.9196 50.7506L53.5566 50.9813C53.2199 51.0108 52.8815 50.9467 52.5789 50.796C52.2763 50.6452 52.0213 50.4137 51.8421 50.1271C51.7361 49.965 51.6301 49.8091 51.5179 49.6533C51.4057 49.4974 51.2934 49.3415 51.175 49.1981C50.9613 48.9331 50.8239 48.6148 50.7778 48.2775C50.7317 47.9402 50.7784 47.5967 50.9131 47.2841L51.892 45.1269ZM47.9017 52.2407C48.6308 53.2581 49.0418 54.4689 49.0827 55.7199C49.1236 56.971 48.7926 58.206 48.1316 59.2689C47.4705 60.3318 46.5091 61.1748 45.3689 61.6912C44.2288 62.2077 42.961 62.3744 41.7261 62.1703C40.4911 61.9663 39.3445 61.4005 38.431 60.5447C37.5176 59.6889 36.8786 58.5814 36.5946 57.3624C36.3106 56.1433 36.3946 54.8674 36.8358 53.6961C37.277 52.5247 38.0557 51.5105 39.0734 50.7818C40.4376 49.8048 42.1341 49.4096 43.7896 49.6832C45.4452 49.9568 46.9243 50.8767 47.9017 52.2407Z" fill="#EBEBEB"/>
<path d="M369.8 147.127L365.112 149.833L365.941 151.267C366.065 151.473 366.126 151.71 366.119 151.95C366.111 152.19 366.034 152.422 365.897 152.62C365.754 152.844 365.617 153.075 365.492 153.318C365.39 153.533 365.228 153.714 365.025 153.84C364.823 153.966 364.589 154.032 364.351 154.029H362.705V159.447H364.363C364.602 159.444 364.836 159.509 365.038 159.635C365.24 159.761 365.402 159.942 365.504 160.158C365.629 160.401 365.766 160.631 365.91 160.856C366.047 161.053 366.123 161.286 366.131 161.526C366.139 161.766 366.077 162.003 365.953 162.209L365.124 163.643L369.813 166.349L370.648 164.908C370.769 164.704 370.945 164.538 371.155 164.427C371.365 164.317 371.602 164.268 371.839 164.285H372.637C372.874 164.269 373.11 164.318 373.32 164.428C373.531 164.538 373.706 164.705 373.828 164.908L374.663 166.355L379.346 163.649L378.516 162.209C378.398 162.002 378.341 161.766 378.349 161.528C378.358 161.29 378.433 161.06 378.566 160.862C378.71 160.638 378.847 160.401 378.972 160.164C379.074 159.949 379.236 159.767 379.438 159.641C379.64 159.516 379.874 159.45 380.112 159.453H381.771V154.035H380.1C379.862 154.038 379.628 153.973 379.426 153.847C379.223 153.721 379.061 153.539 378.959 153.324C378.834 153.087 378.697 152.85 378.554 152.626C378.421 152.428 378.346 152.198 378.337 151.96C378.328 151.722 378.386 151.486 378.504 151.279L379.333 149.839L374.651 147.133L373.815 148.555C373.694 148.759 373.519 148.926 373.309 149.036C373.098 149.146 372.861 149.195 372.625 149.178H372.226H371.826C371.589 149.194 371.352 149.144 371.14 149.034C370.929 148.924 370.753 148.759 370.629 148.555L369.8 147.127ZM372.226 152.302C373.104 152.301 373.963 152.56 374.694 153.047C375.425 153.535 375.995 154.228 376.332 155.039C376.669 155.851 376.757 156.744 376.586 157.605C376.415 158.467 375.992 159.259 375.371 159.88C374.749 160.501 373.958 160.924 373.096 161.095C372.235 161.266 371.341 161.178 370.53 160.841C369.719 160.504 369.025 159.934 368.538 159.203C368.051 158.472 367.791 157.613 367.793 156.735C367.792 156.152 367.906 155.575 368.128 155.036C368.351 154.498 368.677 154.008 369.089 153.596C369.501 153.184 369.989 152.857 370.528 152.634C371.066 152.41 371.643 152.296 372.226 152.296V152.302Z" fill="#EBEBEB"/>
<path d="M66.1197 22.0899L61.8239 25.3818L62.8152 26.6973C62.9631 26.8848 63.054 27.1107 63.0773 27.3484C63.1005 27.586 63.055 27.8253 62.9462 28.0378C62.8269 28.2805 62.7228 28.5303 62.6344 28.786C62.5576 29.0111 62.4194 29.2104 62.2355 29.3613C62.0515 29.5122 61.8291 29.6088 61.5932 29.6401L59.9473 29.8521L60.6456 35.2202L62.2915 35.0082C62.5311 34.9748 62.7753 35.0098 62.9959 35.109C63.2165 35.2083 63.4046 35.3679 63.5385 35.5693C63.6886 35.7862 63.851 35.9944 64.0248 36.1928C64.1854 36.3694 64.2919 36.5885 64.3317 36.8239C64.3715 37.0593 64.3429 37.3012 64.2492 37.5208L63.6258 39.0545L68.6135 41.1307L69.237 39.597C69.3298 39.3769 69.4824 39.1873 69.6774 39.0496C69.8725 38.9118 70.1022 38.8315 70.3406 38.8176L70.7396 38.774L71.1324 38.7116C71.3631 38.6682 71.6013 38.6888 71.8212 38.7712C72.041 38.8536 72.2341 38.9948 72.3793 39.1792L73.3956 40.5072L77.6913 37.2153L76.6875 35.8998C76.5425 35.7097 76.4535 35.483 76.4303 35.2451C76.4072 35.0071 76.4509 34.7675 76.5566 34.5531C76.6748 34.312 76.7789 34.0643 76.8683 33.8111C76.9452 33.586 77.0833 33.3867 77.2673 33.2358C77.4512 33.0849 77.6737 32.9883 77.9095 32.957L79.5555 32.745L78.8572 27.3769L77.2112 27.5889C76.9722 27.6229 76.7285 27.5889 76.508 27.4908C76.2874 27.3926 76.099 27.2343 75.9643 27.034C75.8084 26.8095 75.6463 26.5976 75.4718 26.4105C75.3265 26.2301 75.2325 26.0139 75.1996 25.7846C75.1667 25.5554 75.1961 25.3215 75.2847 25.1075L75.9082 23.5737L70.9204 21.4976L70.2969 23.0313C70.2029 23.2505 70.0501 23.4393 69.8553 23.5769C69.6605 23.7145 69.4314 23.7954 69.1934 23.8106L68.7943 23.8481L68.4265 23.8605C68.1958 23.904 67.9575 23.8834 67.7377 23.801C67.5178 23.7185 67.3248 23.5774 67.1796 23.3929L66.1197 22.0899ZM69.1934 26.9093C70.0619 26.7977 70.944 26.9457 71.7284 27.3348C72.5128 27.7239 73.1644 28.3366 73.6011 29.0956C74.0377 29.8547 74.2397 30.726 74.1817 31.5997C74.1237 32.4734 73.8082 33.3103 73.2751 34.005C72.742 34.6996 72.0151 35.2208 71.1861 35.5028C70.3571 35.7847 69.4632 35.8149 68.6171 35.5894C67.771 35.3639 67.0106 34.8929 66.4319 34.2358C65.8532 33.5787 65.482 32.7649 65.3652 31.8971C65.2873 31.318 65.3247 30.7292 65.4752 30.1645C65.6256 29.5999 65.8862 29.0706 66.242 28.6071C66.5978 28.1435 67.0417 27.7549 67.5482 27.4635C68.0547 27.1722 68.6138 26.9838 69.1934 26.9093Z" fill="#EBEBEB"/>
<path d="M34.0221 162.758C34.2563 156.731 34.1731 150.695 33.7727 144.677C32.8806 132.25 30.9853 119.914 28.1053 107.792C26.5217 100.972 24.5765 94.263 22.544 87.5607C22.4816 87.355 22.1574 87.4111 22.2135 87.6231C28.4919 111.253 33.6418 135.63 33.2864 160.195C33.1867 167.053 32.3886 173.818 31.7402 180.651C31.7402 180.832 32.0208 180.907 32.0644 180.72C33.355 174.853 33.779 168.731 34.0221 162.758Z" fill="#EBEBEB"/>
<path d="M22.2151 87.604C22.2151 87.604 12.7134 111.732 14.8394 117.381C16.9655 123.03 21.3547 124.239 21.3547 124.239C21.3547 124.239 15.5377 132.544 19.6028 140.331C23.6678 148.118 32.6957 147.75 33.3192 156.579C33.3005 156.622 33.7992 119.707 22.2151 87.604Z" fill="#FB8A3C"/>
<path d="M32.2657 141.379C32.2811 141.339 32.2811 141.294 32.2657 141.254C31.0186 124.781 27.9277 108.5 23.0508 92.7167C23.0508 92.6731 22.9572 92.6856 22.9697 92.7167C24.8526 99.7827 26.5152 106.878 27.9575 114.002C26.6801 112.792 25.1195 111.922 23.4186 111.471C23.4186 111.471 23.3687 111.508 23.4186 111.521C25.2055 112.175 26.812 113.244 28.1071 114.638C28.3815 116.041 28.6558 117.437 28.9114 118.84C26.7854 116.465 23.8426 115.286 20.8936 114.164C20.8869 114.167 20.8812 114.172 20.8772 114.178C20.8732 114.184 20.8711 114.191 20.8711 114.198C20.8711 114.206 20.8732 114.213 20.8772 114.219C20.8812 114.225 20.8869 114.23 20.8936 114.233C23.9673 115.48 27.0223 117.088 29.1047 119.738C29.8279 123.741 30.4639 127.758 31.0125 131.79C29.4774 130.181 27.5087 129.053 25.3452 128.541C25.2766 128.541 25.2392 128.623 25.3077 128.641C27.5303 129.296 29.5145 130.582 31.0188 132.345H31.0562C31.2432 133.758 31.4219 135.177 31.5924 136.603C30.4048 135.598 29.064 134.79 27.6208 134.209C27.5834 134.209 27.5585 134.252 27.6208 134.265C29.0936 134.903 30.4422 135.796 31.6048 136.902C31.6048 136.902 31.636 136.902 31.6547 136.902C31.8106 138.255 31.9664 139.608 32.1036 140.961C29.9627 138.373 27.1842 136.387 24.0421 135.2C24.0289 135.2 24.0162 135.205 24.0068 135.215C23.9975 135.224 23.9922 135.237 23.9922 135.25C23.9922 135.263 23.9975 135.276 24.0068 135.285C24.0162 135.295 24.0289 135.3 24.0421 135.3C27.1447 136.667 29.8701 138.766 31.9851 141.416C32.0084 141.445 32.0398 141.467 32.0754 141.478C32.1109 141.489 32.149 141.489 32.1847 141.479C32.3904 143.555 32.5774 145.631 32.7271 147.713C32.7271 147.744 32.7769 147.744 32.7769 147.713C32.6148 145.623 32.4444 143.511 32.2657 141.379Z" fill="white"/>
<path d="M24.6273 109.095C22.9065 108.024 20.9408 107.41 18.9163 107.312C18.9064 107.312 18.8969 107.316 18.8899 107.323C18.8829 107.33 18.8789 107.339 18.8789 107.349C18.8789 107.359 18.8829 107.369 18.8899 107.376C18.8969 107.383 18.9064 107.387 18.9163 107.387C20.8736 107.758 22.773 108.387 24.565 109.257C24.6398 109.276 24.6959 109.145 24.6273 109.095Z" fill="white"/>
<path d="M25.7804 134.639C24.4579 133.88 23.0015 133.382 21.491 133.174C21.4411 133.174 21.4348 133.242 21.491 133.255C22.9661 133.551 24.3929 134.05 25.7306 134.739C25.7867 134.77 25.8366 134.67 25.7804 134.639Z" fill="white"/>
<path d="M59.0123 117.799C54.9927 120.577 51.301 123.802 48.008 127.413C44.612 131.235 41.9925 135.682 40.2957 140.506C36.6844 150.555 34.7426 161.127 34.5472 171.804C34.4261 177.716 34.9931 183.623 36.2369 189.405C36.2469 189.447 36.2728 189.483 36.3091 189.507C36.3454 189.53 36.3893 189.539 36.4318 189.531C36.4742 189.523 36.512 189.499 36.5372 189.464C36.5624 189.428 36.5732 189.385 36.5673 189.342C35.0197 179.14 35.0786 168.758 36.7419 158.574C38.3754 148.598 40.9378 137.737 47.2848 129.626C50.7388 125.206 55.047 121.733 59.3054 118.142C59.5298 117.942 59.243 117.637 59.0123 117.799Z" fill="#EBEBEB"/>
<path d="M35.9434 164.609C38.2314 160.908 40.9202 157.471 43.9612 154.359C48.7183 149.602 52.721 146.223 53.3445 143.081C53.968 139.938 48.5812 137.619 48.5812 137.619C48.5812 137.619 55.1588 138.804 56.9606 136.042C58.7625 133.28 59.6291 117.281 59.6291 117.281C59.6291 117.281 47.6584 125.829 42.0783 137.812C36.4983 149.795 35.9434 164.609 35.9434 164.609Z" fill="#FB8A3C"/>
<path d="M55.3343 132.288C54.546 132.171 53.747 132.144 52.9526 132.207C52.8591 132.207 52.8653 132.369 52.9526 132.375C53.7382 132.375 54.53 132.338 55.3156 132.375C55.3245 132.373 55.3327 132.368 55.3391 132.362C55.3455 132.355 55.35 132.347 55.3519 132.338C55.3539 132.329 55.3532 132.319 55.3501 132.31C55.347 132.302 55.3415 132.294 55.3343 132.288Z" fill="white"/>
<path d="M46.7359 147.807C45.4718 147.832 44.2223 148.081 43.0449 148.542C43.0449 148.542 43.0449 148.605 43.0449 148.598C44.2919 148.305 45.4952 148.187 46.7296 147.975C46.7458 147.968 46.7596 147.956 46.7695 147.942C46.7794 147.927 46.785 147.91 46.7856 147.893C46.7863 147.875 46.7819 147.858 46.7731 147.843C46.7643 147.827 46.7514 147.815 46.7359 147.807Z" fill="white"/>
<path d="M44.1541 142.445C43.6293 142.44 43.1052 142.486 42.5892 142.582C42.5796 142.585 42.5714 142.592 42.5656 142.6C42.5598 142.608 42.5566 142.618 42.5566 142.629C42.5566 142.639 42.5598 142.649 42.5656 142.657C42.5714 142.665 42.5796 142.672 42.5892 142.675C43.1118 142.706 43.6361 142.683 44.1541 142.607C44.1756 142.607 44.1962 142.598 44.2114 142.583C44.2266 142.568 44.2351 142.547 44.2351 142.526C44.2351 142.504 44.2266 142.484 44.2114 142.468C44.1962 142.453 44.1756 142.445 44.1541 142.445Z" fill="white"/>
<path d="M0.84916 134.77C4.74536 136.09 8.47895 137.85 11.9782 140.013C15.6089 142.32 18.7574 145.31 21.2492 148.816C26.492 156.114 30.5061 164.22 33.1326 172.814C34.5974 177.572 35.5014 182.485 35.826 187.453C35.8192 187.485 35.8015 187.514 35.776 187.535C35.7505 187.555 35.7186 187.567 35.6857 187.567C35.6528 187.567 35.621 187.555 35.5954 187.535C35.5699 187.514 35.5522 187.485 35.5454 187.453C34.4449 178.839 32.0003 170.451 28.3007 162.595C24.6658 154.895 20.0833 146.703 13.0755 141.603C9.25981 138.828 4.97032 137.008 0.693291 135.088C0.468841 135.013 0.624709 134.695 0.84916 134.77Z" fill="#EBEBEB"/>
<path d="M30.338 167.322C27.6293 164.857 24.6583 162.697 21.4784 160.881C16.528 158.132 12.5066 156.323 11.2784 153.923C10.0502 151.523 13.8721 148.405 13.8721 148.405C13.8721 148.405 8.82193 150.899 6.72706 149.06C4.63219 147.221 0.230469 134.502 0.230469 134.502C0.230469 134.502 11.8956 138.648 19.1716 147.059C26.4475 155.469 30.338 167.322 30.338 167.322Z" fill="#FB8A3C"/>
<path d="M20.6554 155.612C19.5085 155.533 18.3569 155.674 17.2637 156.03C17.2637 156.03 17.2637 156.086 17.2637 156.08C18.379 155.889 19.5058 155.772 20.6367 155.731C20.7177 155.731 20.7364 155.619 20.6554 155.612Z" fill="white"/>
<path d="M10.4812 142.27C9.95801 142.227 9.43145 142.257 8.91627 142.357C8.86016 142.357 8.87887 142.457 8.91627 142.451C9.43376 142.395 9.93877 142.413 10.45 142.401C10.4659 142.402 10.4815 142.397 10.4942 142.387C10.5068 142.377 10.5158 142.364 10.5195 142.348C10.5231 142.333 10.5213 142.317 10.5144 142.302C10.5074 142.288 10.4956 142.277 10.4812 142.27Z" fill="white"/>
<path d="M45.382 203.533H19.0527L22.806 176.031L23.7662 168.98H40.6685L41.6287 176.031L45.382 203.533Z" fill="#F97316"/>
<path d="M41.6293 176.031H22.8066L23.7668 168.98H40.6691L41.6293 176.031Z" fill="#C7C7C7"/>
<path d="M43.0819 166.536H21.3477V172.509H43.0819V166.536Z" fill="#DBDBDB"/>
<path d="M2.3125 203.532L49.7027 203.383L97.0929 203.327L191.873 203.221L286.654 203.327L334.044 203.383L381.434 203.532L334.044 203.688L286.654 203.738L191.873 203.844L97.0929 203.738L49.7027 203.682L2.3125 203.532Z" fill="#263238"/>
<path d="M193.122 250C291.857 250 371.897 241.229 371.897 230.41C371.897 219.591 291.857 210.821 193.122 210.821C94.3878 210.821 14.3477 219.591 14.3477 230.41C14.3477 241.229 94.3878 250 193.122 250Z" fill="#EBEBEB"/>
<path d="M151.506 227.169C150.053 227.661 108.399 227.792 106.803 226.807C106.179 226.433 105.824 220.366 105.556 213.022C105.5 211.438 105.456 209.799 105.419 208.14L102.096 185.92L129.946 185.739L132.571 207.966L132.465 212.854C132.465 212.854 148.438 219.93 150.072 221.214C151.705 222.499 152.959 226.676 151.506 227.169Z" fill="#FECCAA"/>
<path d="M151.506 227.168C150.053 227.661 108.399 227.792 106.803 226.807C106.067 226.345 105.668 217.486 105.443 208.14L132.539 207.965L132.434 212.853C132.434 212.853 148.407 219.93 150.04 221.214C151.674 222.498 152.958 226.676 151.506 227.168Z" fill="#FEFEFE"/>
<path d="M151.505 227.168C150.052 227.661 108.398 227.792 106.802 226.807C106.178 226.433 105.823 220.366 105.555 213.022L132.408 212.854C132.408 212.854 148.381 219.93 150.015 221.214C151.648 222.499 152.957 226.676 151.505 227.168Z" fill="#A6A6A6"/>
<path d="M150.9 225.504C143.917 225.354 115.736 225.423 108.821 225.81C108.765 225.81 108.765 225.847 108.821 225.853C115.742 226.146 143.923 225.853 150.9 225.616C151.049 225.61 151.049 225.504 150.9 225.504Z" fill="#263238"/>
<path d="M147.352 219.724C146.576 219.707 145.804 219.851 145.086 220.147C144.368 220.443 143.719 220.885 143.181 221.445C142.2 222.444 141.646 223.785 141.635 225.186C141.635 225.229 141.71 225.229 141.716 225.186C141.948 223.806 142.619 222.539 143.631 221.573C144.642 220.606 145.939 219.993 147.327 219.824C147.34 219.827 147.354 219.825 147.366 219.818C147.378 219.811 147.386 219.8 147.389 219.786C147.393 219.773 147.391 219.759 147.384 219.747C147.377 219.736 147.365 219.727 147.352 219.724Z" fill="#263238"/>
<path d="M135.138 213.539C132.345 213.508 129.109 214.506 127.376 216.8C127.314 216.887 127.439 216.981 127.52 216.937C129.96 215.649 132.531 214.625 135.188 213.882C135.229 213.871 135.265 213.845 135.288 213.809C135.312 213.774 135.321 213.731 135.315 213.689C135.309 213.647 135.288 213.608 135.255 213.581C135.223 213.553 135.181 213.538 135.138 213.539Z" fill="#263238"/>
<path d="M137.307 214.369C134.508 214.369 131.272 215.341 129.545 217.629C129.477 217.723 129.601 217.816 129.689 217.773C132.125 216.48 134.694 215.454 137.351 214.712C137.392 214.7 137.427 214.675 137.45 214.64C137.473 214.605 137.483 214.563 137.478 214.521C137.473 214.479 137.453 214.441 137.421 214.413C137.39 214.385 137.349 214.369 137.307 214.369Z" fill="#263238"/>
<path d="M139.465 215.204C136.671 215.204 133.436 216.171 131.702 218.465C131.64 218.552 131.765 218.646 131.846 218.602C134.286 217.314 136.857 216.29 139.515 215.547C139.556 215.536 139.591 215.51 139.615 215.474C139.638 215.439 139.647 215.396 139.641 215.354C139.635 215.311 139.614 215.273 139.581 215.245C139.549 215.218 139.507 215.203 139.465 215.204Z" fill="#263238"/>
<path d="M141.629 216.039C138.83 216.008 135.594 217.006 133.867 219.3C133.798 219.387 133.929 219.481 134.01 219.437C136.45 218.148 139.021 217.124 141.679 216.382C141.72 216.371 141.756 216.345 141.779 216.309C141.802 216.274 141.812 216.231 141.806 216.189C141.8 216.147 141.778 216.108 141.746 216.081C141.713 216.053 141.672 216.038 141.629 216.039Z" fill="#263238"/>
<path d="M110.58 219.169C107.463 219.169 107.463 224.064 110.58 224.045C113.698 224.026 113.723 219.151 110.58 219.169Z" fill="#263238"/>
<path d="M138.137 206.07C136.722 204.898 134.939 206.07 134.072 207.273C132.629 209.4 131.77 211.868 131.578 214.431C131.578 214.487 131.622 214.512 131.665 214.512C131.676 214.565 131.7 214.614 131.734 214.656C131.768 214.698 131.812 214.731 131.861 214.752C131.911 214.773 131.965 214.783 132.019 214.779C132.072 214.775 132.124 214.758 132.17 214.73C134.153 213.352 136.447 212.118 137.95 210.166C138.804 209.032 139.502 207.161 138.137 206.07ZM134.733 212.018C133.773 212.723 132.781 213.377 131.846 214.119C132.345 212.723 132.775 211.314 133.411 209.967C133.705 209.321 134.042 208.696 134.421 208.096C135.045 207.167 137.763 204.823 138.05 207.86C138.212 209.524 135.874 211.183 134.733 212.018Z" fill="#263238"/>
<path d="M124.62 215.491C127.052 215.853 129.564 215.154 131.952 214.774C132.004 214.761 132.052 214.735 132.092 214.7C132.133 214.664 132.164 214.62 132.184 214.57C132.204 214.521 132.212 214.467 132.208 214.413C132.203 214.36 132.186 214.308 132.158 214.263C132.167 214.256 132.174 214.247 132.179 214.237C132.185 214.226 132.187 214.215 132.187 214.204C132.187 214.192 132.185 214.181 132.179 214.171C132.174 214.16 132.167 214.151 132.158 214.144C130.239 212.433 127.904 211.257 125.387 210.734C123.916 210.453 121.833 210.859 121.646 212.685C121.422 214.406 123.199 215.267 124.62 215.491ZM122.924 213.907C121.054 211.513 124.626 211.308 125.699 211.557C126.395 211.731 127.078 211.952 127.744 212.218C129.108 212.783 130.441 213.418 131.74 214.119C130.556 214.238 129.39 214.45 128.211 214.612C126.802 214.799 123.972 215.223 122.924 213.907Z" fill="#263238"/>
<path d="M61.1465 83.2148C61.1465 83.2148 93.486 138.23 94.3527 142.096C95.6807 148.031 102.72 206.644 102.72 206.644L136.387 206.02C136.387 206.02 130.589 154.341 125.096 137.314C121.143 125.05 92.6007 84.3745 92.6007 84.3745L61.1465 83.2148Z" fill="#37474F"/>
<path d="M133.325 200.883C128.493 200.845 111.366 200.652 104.932 201.251C104.882 201.251 104.888 201.338 104.932 201.344C107.145 201.662 128.486 201.169 133.318 201.014C133.328 201.017 133.339 201.018 133.35 201.017C133.361 201.016 133.371 201.012 133.38 201.006C133.389 201 133.396 200.992 133.401 200.983C133.407 200.974 133.41 200.963 133.41 200.952C133.411 200.942 133.409 200.931 133.404 200.921C133.4 200.911 133.393 200.903 133.385 200.896C133.377 200.889 133.367 200.884 133.356 200.882C133.346 200.88 133.335 200.88 133.325 200.883Z" fill="#263238"/>
<path d="M66.6628 88.2651C68.7826 91.5882 71.0271 94.8427 73.1843 98.1409C75.3415 101.439 77.5112 104.737 79.6497 108.029C83.9143 114.68 88.0708 121.374 92.1192 128.111C94.095 131.234 95.7852 134.529 97.1693 137.956C98.4328 141.383 99.3823 144.918 100.006 148.517C100.667 152.127 101.103 155.775 101.509 159.422C101.924 163.3 102.359 167.18 102.812 171.062C103.697 179.005 104.584 186.948 105.474 194.891C105.58 195.864 105.686 196.837 105.786 197.815C105.786 197.959 105.543 197.984 105.524 197.815C104.533 189.928 103.71 182.01 102.812 174.123C102.363 170.187 101.916 166.253 101.471 162.321C101.054 158.661 100.655 154.995 100.087 151.36C99.5665 147.773 98.7745 144.229 97.718 140.761C96.5538 137.171 94.9939 133.72 93.0669 130.474C89.1702 123.747 85.0428 117.138 80.9154 110.523C76.788 103.908 72.5484 97.2368 68.1965 90.7028C67.6603 89.8986 67.1179 89.0943 66.5568 88.3025C66.5132 88.2588 66.6254 88.2027 66.6628 88.2651Z" fill="#263238"/>
<path d="M71.7442 230.411C70.2104 230.317 30.5949 214.269 29.4976 212.748C29.4488 212.658 29.4271 212.556 29.4353 212.455C29.4353 211.089 32.1848 206.326 34.4792 200.066C34.6226 199.667 35.6451 197.809 37.0604 195.309C40.9945 188.457 47.8527 176.655 47.8527 176.655L73.7455 186.942L61.3509 205.49L59.4243 209.979C59.4243 209.979 71.5758 222.542 72.5983 224.319C73.6208 226.096 73.2717 230.498 71.7442 230.411Z" fill="#FECCAA"/>
<path d="M71.7442 230.411C70.2104 230.317 30.5949 214.269 29.4976 212.748C29.4488 212.658 29.4271 212.556 29.4353 212.455C29.4353 211.089 32.1848 206.326 34.4792 200.066C34.6226 199.667 35.6451 197.809 37.0604 195.309L61.3758 205.49L59.4493 209.979C59.4493 209.979 71.6008 222.542 72.6233 224.319C73.6458 226.096 73.2717 230.498 71.7442 230.411Z" fill="#FEFEFE"/>
<path d="M71.7438 230.41C70.2101 230.317 30.5946 214.269 29.4973 212.747C29.0733 212.168 30.844 206.762 34.4851 200.066L59.424 209.985C59.424 209.985 71.5755 222.536 72.6042 224.325C73.6329 226.115 73.2713 230.498 71.7438 230.41Z" fill="#A6A6A6"/>
<path d="M71.8061 228.64C65.3906 225.884 39.2422 215.372 32.6895 213.14C32.6333 213.14 32.6209 213.14 32.6895 213.178C38.9928 216.046 65.2223 226.345 71.7812 228.764C71.9059 228.796 71.9433 228.696 71.8061 228.64Z" fill="#263238"/>
<path d="M70.6844 221.95C69.973 221.637 69.2044 221.476 68.4274 221.476C67.6504 221.476 66.8818 221.637 66.1704 221.95C64.8913 222.51 63.8774 223.542 63.3398 224.83C63.3398 224.868 63.396 224.899 63.4147 224.862C64.1497 223.666 65.2523 222.741 66.5573 222.225C67.8623 221.709 69.2994 221.63 70.6532 222C70.6637 221.997 70.6727 221.99 70.6784 221.981C70.6842 221.972 70.6863 221.961 70.6844 221.95Z" fill="#263238"/>
<path d="M61.6864 211.638C59.1115 210.559 55.7322 210.273 53.2695 211.75C53.176 211.806 53.2695 211.937 53.3506 211.931C56.0959 211.652 58.8631 211.667 61.6054 211.975C61.6476 211.979 61.69 211.968 61.7247 211.944C61.7594 211.919 61.784 211.883 61.794 211.842C61.8039 211.801 61.7985 211.757 61.7787 211.72C61.7589 211.682 61.7261 211.653 61.6864 211.638Z" fill="#263238"/>
<path d="M63.3759 213.221C60.8009 212.143 57.4217 211.856 54.959 213.334C54.8655 213.39 54.959 213.521 55.04 213.514C57.7852 213.233 60.5528 213.248 63.2948 213.558C63.337 213.563 63.3794 213.552 63.4141 213.527C63.4489 213.503 63.4735 213.467 63.4834 213.425C63.4934 213.384 63.4879 213.341 63.4681 213.303C63.4483 213.266 63.4155 213.237 63.3759 213.221Z" fill="#263238"/>
<path d="M65.0741 214.805C62.4929 213.726 59.1137 213.44 56.6572 214.917C56.5574 214.973 56.6572 215.104 56.732 215.098C59.4772 214.816 62.2447 214.831 64.9868 215.142C65.0299 215.149 65.0741 215.14 65.1107 215.116C65.1473 215.092 65.1737 215.056 65.1847 215.013C65.1956 214.971 65.1903 214.926 65.1699 214.888C65.1494 214.849 65.1152 214.82 65.0741 214.805Z" fill="#263238"/>
<path d="M66.7635 216.389C64.1824 215.31 60.8094 215.023 58.3467 216.495C58.2469 216.557 58.3467 216.688 58.4215 216.682C61.1667 216.4 63.9342 216.415 66.6763 216.726C66.7193 216.733 66.7635 216.724 66.8001 216.7C66.8368 216.676 66.8631 216.639 66.8741 216.597C66.8851 216.555 66.8798 216.51 66.8593 216.471C66.8389 216.433 66.8047 216.403 66.7635 216.389Z" fill="#263238"/>
<path d="M36.8046 207.641C33.893 206.482 32.0849 211.014 35.009 212.174C37.9331 213.334 39.7474 208.801 36.8046 207.641Z" fill="#263238"/>
<path d="M67.2672 205.839C66.3881 204.225 64.312 204.624 63.0463 205.428C60.9143 206.856 59.1944 208.819 58.0585 211.12C58.0535 211.13 58.0509 211.141 58.0508 211.153C58.0507 211.164 58.0531 211.175 58.0579 211.185C58.0627 211.196 58.0697 211.204 58.0785 211.212C58.0872 211.219 58.0975 211.224 58.1084 211.226C58.1084 211.432 58.2456 211.675 58.4887 211.625C60.8517 211.083 63.4391 210.802 65.5589 209.555C66.7747 208.832 68.0965 207.367 67.2672 205.839ZM61.8742 210.073C60.7208 210.366 59.5611 210.603 58.4202 210.939C59.3639 209.802 60.3648 208.714 61.4191 207.679C61.938 207.185 62.4901 206.726 63.0713 206.307C63.9753 205.684 67.3919 204.53 66.5191 207.454C66.039 209.069 63.2521 209.724 61.8742 210.073Z" fill="#263238"/>
<path d="M51.1998 209.499C53.3196 210.746 55.907 211.039 58.2637 211.588C58.5069 211.644 58.669 211.401 58.6503 211.189C58.662 211.188 58.6732 211.184 58.6827 211.177C58.6923 211.17 58.7 211.161 58.705 211.15C58.71 211.139 58.7122 211.128 58.7113 211.116C58.7105 211.104 58.7066 211.093 58.7002 211.083C57.5661 208.777 55.8461 206.81 53.7124 205.378C52.4654 204.568 50.3768 204.162 49.4915 205.771C48.6061 207.38 49.9591 208.77 51.1998 209.499ZM50.2272 207.392C49.3605 204.468 52.7709 205.628 53.675 206.257C54.2555 206.677 54.8055 207.138 55.3209 207.635C56.3732 208.673 57.372 209.763 58.3136 210.902C57.1727 210.566 56.013 210.322 54.8596 210.029C53.463 209.655 50.701 209.032 50.2272 207.392Z" fill="#263238"/>
<path d="M63.3642 204.455L34.3789 192.753C34.3789 192.753 70.3159 139.913 70.5777 135.979C70.8147 132.5 55.0283 102.187 54.4111 93.3523C53.7377 83.8132 58.3265 76.4375 63.3766 71.855L93.2722 84.5676C93.2722 84.5676 90.1174 89.6115 85.167 92.4233C85.167 92.4233 100.498 127.463 99.6254 138.236C98.7525 149.01 63.3642 204.455 63.3642 204.455Z" fill="#37474F"/>
<path d="M64.6496 198.944C60.4598 197.142 61.6881 197.597 57.4734 195.827C55.4159 194.966 41.8865 189.336 39.8041 188.869C39.7605 188.869 39.7293 188.931 39.773 188.956C41.5748 190.059 55.2164 195.453 57.2926 196.276C61.5384 197.946 60.3351 197.423 64.5997 199.044C64.6061 199.052 64.6145 199.059 64.6242 199.063C64.6339 199.068 64.6446 199.069 64.6551 199.068C64.6657 199.067 64.6759 199.064 64.6847 199.058C64.6935 199.052 64.7006 199.044 64.7053 199.034C64.7101 199.025 64.7123 199.014 64.7118 199.004C64.7114 198.993 64.7082 198.983 64.7026 198.974C64.697 198.964 64.6892 198.957 64.6799 198.952C64.6706 198.947 64.6602 198.944 64.6496 198.944Z" fill="#263238"/>
<path d="M90.0676 91.7816C86.9551 92.5071 83.9099 93.4957 80.9648 94.7368C80.953 94.7409 80.942 94.7473 80.9326 94.7556C80.9232 94.764 80.9156 94.774 80.9101 94.7853C80.9046 94.7966 80.9013 94.8089 80.9006 94.8214C80.8998 94.834 80.9015 94.8465 80.9056 94.8584C80.9097 94.8703 80.9161 94.8812 80.9244 94.8906C80.9328 94.9 80.9428 94.9077 80.9541 94.9132C80.9654 94.9187 80.9777 94.9219 80.9902 94.9227C81.0028 94.9234 81.0153 94.9217 81.0272 94.9176C84.0822 94.0261 87.1871 93.1906 90.1923 92.1369C90.4229 92.0559 90.3045 91.7317 90.0676 91.7816Z" fill="#263238"/>
<path d="M86.5073 90.5721C86.2168 91.0887 85.9606 91.624 85.7404 92.1744C85.5252 92.5921 85.3919 93.0471 85.3477 93.5148C85.3477 93.6084 85.4723 93.6271 85.5285 93.571C85.8413 93.1968 86.0937 92.7761 86.2766 92.324C86.5323 91.8315 86.7941 91.3452 87.0373 90.8401C87.2056 90.4723 86.7006 90.2354 86.5073 90.5721Z" fill="#263238"/>
<path d="M86.881 87.741C87.0681 87.2797 87.2489 86.8245 87.4422 86.3632C87.6354 85.9018 87.8786 85.4279 88.0656 84.9416C88.0656 84.8668 88.2153 84.9416 88.1841 84.9977C87.9971 85.4591 87.8786 85.9454 87.7352 86.4193C87.5918 86.8931 87.4297 87.3669 87.2738 87.8408C86.9808 88.7199 86.6504 89.5927 86.2451 90.4469C86.7357 90.4714 87.2256 90.3862 87.6791 90.1975C88.1423 89.9011 88.4984 89.4641 88.6953 88.9506C88.9572 88.4393 89.2004 87.9156 89.4685 87.4044C89.7985 86.8516 90.0761 86.2693 90.2977 85.6649C90.2977 85.59 90.4473 85.6649 90.4161 85.721C90.0096 86.9989 89.477 88.2332 88.8263 89.4057C88.5457 89.8608 88.3275 90.3409 87.8163 90.5155C87.2628 90.6703 86.6837 90.7106 86.1142 90.6339C86.0393 90.6339 85.9521 90.6339 85.977 90.5217C86.2323 89.5805 86.534 88.6524 86.881 87.741Z" fill="#263238"/>
<path d="M85.6097 93.5645C86.6759 95.8153 87.6111 98.0598 88.6024 100.304C89.5937 102.549 90.4728 104.718 91.3644 106.95C93.1475 111.452 94.7436 116.041 96.1464 120.667C96.8385 122.961 97.4806 125.274 98.0542 127.606C98.686 129.931 99.1486 132.298 99.4383 134.689C99.6885 137.076 99.4768 139.489 98.8149 141.796C98.1273 144.077 97.2449 146.294 96.1776 148.424C95.5229 149.771 95.3047 149.59 95.6165 148.91C96.508 146.977 98.846 141.123 98.6777 136.204C98.5413 133.849 98.178 131.512 97.5929 129.227C97.0484 126.87 96.4353 124.532 95.7536 122.213C94.4256 117.637 92.8482 113.154 91.2272 108.678C90.3169 106.184 89.3568 103.69 88.4216 101.196C87.4864 98.702 86.5512 96.4076 85.5037 93.6518C85.4725 93.5396 85.5785 93.496 85.6097 93.5645Z" fill="#263238"/>
<path d="M63.6076 86.1267C64.1251 85.9334 64.8545 86.2514 65.3782 86.3387C66.0565 86.4538 66.7418 86.5225 67.4295 86.5444C68.1098 86.5684 68.791 86.5455 69.4682 86.4758C70.1502 86.4582 70.8186 86.281 71.4197 85.9584C72.4059 85.2399 73.2514 84.3459 73.9136 83.3211C74.7027 82.2739 75.3544 81.1298 75.8526 79.9169C75.8526 79.8421 75.9835 79.9169 75.9586 79.9668C75.7404 80.6588 75.5783 81.3571 75.3351 82.0367C75.0663 82.6752 74.7452 83.2904 74.375 83.876C73.7747 85.0543 72.8869 86.0621 71.7938 86.8063C70.5905 87.4921 69.0443 87.4297 67.7038 87.3736C66.9264 87.3283 66.1533 87.2262 65.3907 87.0681C64.8421 86.9497 63.9193 86.8624 63.5702 86.3823C63.5538 86.3639 63.5416 86.3422 63.5345 86.3186C63.5274 86.295 63.5255 86.2701 63.5291 86.2458C63.5327 86.2214 63.5416 86.1981 63.5551 86.1775C63.5687 86.1569 63.5866 86.1396 63.6076 86.1267Z" fill="#263238"/>
<path d="M42.6539 187.21C47.4173 179.995 52.0933 172.721 56.6821 165.389C61.2708 158.057 65.7972 150.668 70.2613 143.224C71.3274 141.447 72.5557 139.677 73.2415 137.706C73.9897 135.568 73.5657 133.492 72.8924 131.397C71.6209 127.575 70.1347 123.828 68.4408 120.174C66.7699 116.49 64.968 112.867 63.1974 109.232C61.4267 105.598 59.575 102.006 58.2096 98.2157C56.9626 94.5933 56.4576 90.84 57.4302 87.0867C58.4028 83.3334 60.4977 80.0165 62.6861 76.8929C63.2597 76.07 63.852 75.2532 64.4318 74.3991C64.4755 74.3367 64.569 74.3991 64.5254 74.4739C62.1125 77.7284 59.762 81.1762 58.3467 84.9981C57.6234 86.882 57.2188 88.8731 57.1497 90.8899C57.1379 92.9371 57.4558 94.9728 58.0911 96.9189C59.2632 100.71 61.115 104.295 62.842 107.861C64.569 111.427 66.4145 115.118 68.1166 118.79C69.8725 122.486 71.4333 126.272 72.7926 130.131C73.3724 131.846 74.0396 133.641 73.9897 135.481C73.946 137.494 72.9859 139.309 71.9883 141.005C67.624 148.393 63.1537 155.694 58.6024 162.951C54.051 170.208 49.3687 177.465 44.6303 184.648L42.8347 187.36C42.7412 187.472 42.5791 187.341 42.6539 187.21Z" fill="#263238"/>
<path d="M94.9314 50.9624C97.631 56.8854 111.266 65.0466 117.651 65.9257C122.24 66.5492 136.193 66.7737 140.975 66.0442C146.586 65.1838 142.297 50.0646 138.986 50.4574C129.883 51.5173 122.152 52.7019 119.721 52.7019C116.753 52.7019 100.699 47.552 98.7658 46.8225C94.0274 45.0581 93.4039 47.6019 94.9314 50.9624Z" fill="#FECCAA"/>
<path d="M95.0175 52.54C98.4341 57.5964 109.788 65.8636 109.788 65.8636L111.365 62.3722L116.583 50.8255C116.583 50.8255 106.153 47.5523 99.2883 46.0559C98.4805 45.8721 97.6589 45.7553 96.8318 45.7068C92.4488 45.4699 92.0685 48.1757 95.0175 52.54Z" fill="#FB8A3C"/>
<path d="M95.0175 52.5398C98.4341 57.5962 109.788 65.8634 109.788 65.8634L111.365 62.372C107.132 57.4528 100.591 50.0023 96.8318 45.719C92.4488 45.4696 92.0685 48.1755 95.0175 52.5398Z" fill="#263238"/>
<path d="M107.743 63.5193C108.609 61.3933 112.462 52.833 113.423 51.0498C113.485 50.9251 113.585 50.9376 113.529 51.0498C111.857 55.3069 109.955 59.4695 107.83 63.5193C107.805 63.5941 107.705 63.5692 107.743 63.5193Z" fill="#263238"/>
<path d="M137.314 50.6136C142.851 49.8904 149.703 48.6497 155.507 51.1124C156.159 51.3681 156.706 51.8359 157.06 52.4404C159.678 53.5003 159.965 55.0527 159.965 55.0527C162.104 56.786 162.179 58.4195 162.179 58.4195C162.179 58.4195 165.246 59.6664 164.778 61.674C164.267 63.8936 160.065 61.674 157.01 61.8548C149.996 62.2913 140.176 64.8662 138.15 65.1904L137.314 50.6136Z" fill="#FECCAA"/>
<path d="M149.34 57.1472C151.391 57.0069 153.449 57.0069 155.5 57.1472C157.734 57.4274 159.943 57.8755 162.109 58.4877C162.123 58.4926 162.139 58.4918 162.152 58.4854C162.166 58.479 162.176 58.4674 162.181 58.4534C162.186 58.4393 162.185 58.4239 162.179 58.4104C162.172 58.397 162.161 58.3866 162.147 58.3817C158.077 56.7851 153.647 56.3365 149.34 57.0849C149.241 57.0724 149.241 57.1534 149.34 57.1472Z" fill="#263238"/>
<path d="M148.039 50.6697C151.462 50.8442 153.6 51.3929 157.042 52.4279V52.3904C153.251 50.8068 151.698 50.6572 148.02 50.52C147.901 50.5699 147.908 50.6697 148.039 50.6697Z" fill="#263238"/>
<path d="M148.594 62.9146C147.702 63.3323 147.92 63.7999 149.622 64.1927C151.324 64.5855 158.401 64.7039 158.151 67.1729C157.902 69.6418 147.92 69.3301 145.133 68.4572C142.346 67.5844 138.15 65.1902 138.15 65.1902C140.127 64.8598 144.765 63.6066 148.594 62.9146Z" fill="#FECCAA"/>
<path d="M102.344 60.4021C102.3 61.4682 102.2 62.553 102.051 63.6316C102.051 63.588 102.051 63.5506 102.094 63.5132C102.3 62.9521 102.506 62.3785 102.755 61.836C102.755 61.836 102.817 61.836 102.811 61.836C102.691 62.4304 102.512 63.0111 102.275 63.5693C102.163 63.8374 102.057 64.0993 101.938 64.3611C101.864 64.8412 101.776 65.315 101.683 65.7889C101.496 66.6804 100.654 70.4711 100.436 71.1133C100.398 71.2442 100.236 71.2131 100.249 71.0634C100.292 70.3651 100.997 66.4186 101.14 65.5208C101.419 63.7873 101.791 62.0702 102.256 60.3771C102.287 60.3459 102.35 60.3709 102.344 60.4021Z" fill="#263238"/>
<path d="M95.8607 88.7513C94.196 89.6055 92.0512 90.9335 82.3874 89.0319C81.7639 88.9072 81.1779 88.7575 80.5669 88.5767C71.5078 85.8584 60.6157 75.2033 60.0234 74.4488C60.0234 74.4488 74.4194 51.1123 92.8306 43.774C95.1063 42.87 98.872 44.6157 100.936 46.7916C101.678 47.5709 103.292 53.3007 102.675 57.9393C102.058 62.5779 97.5191 87.8972 95.8607 88.7513Z" fill="#FB8A3C"/>
<path d="M94.5636 57.7271C94.6331 58.7132 94.4951 59.7029 94.1583 60.6324C94.0793 59.646 94.2176 58.6542 94.5636 57.7271Z" fill="#FEFEFE"/>
<path d="M88.2839 73.6196C88.3236 74.1104 88.3069 74.6041 88.234 75.091C88.174 75.5816 88.0547 76.0632 87.8787 76.525C87.8357 76.0323 87.8525 75.5361 87.9285 75.0474C87.9923 74.5595 88.1115 74.0805 88.2839 73.6196Z" fill="#FEFEFE"/>
<path d="M77.618 61.6055C77.6882 62.5937 77.5501 63.5856 77.2127 64.5171C77.1344 63.5286 77.2727 62.535 77.618 61.6055Z" fill="#FEFEFE"/>
<path d="M98.6706 72.8091C98.7104 73.3019 98.6937 73.7977 98.6207 74.2867C98.5607 74.7773 98.4414 75.2588 98.2654 75.7207C98.2224 75.2279 98.2392 74.7318 98.3153 74.2431C98.3783 73.753 98.4975 73.2718 98.6706 72.8091Z" fill="#FEFEFE"/>
<path d="M84.9746 59.5476C85.4651 59.5059 85.9588 59.5205 86.446 59.5912C86.9368 59.6535 87.4183 59.7749 87.88 59.9529C86.8938 60.0237 85.9038 59.8856 84.9746 59.5476Z" fill="#FEFEFE"/>
<path d="M72.8652 71.0258C73.8514 70.9563 74.8411 71.0943 75.7706 71.4311C74.7842 71.5101 73.7924 71.3718 72.8652 71.0258Z" fill="#FEFEFE"/>
<path d="M87.1309 83.4516C88.117 83.3808 89.1071 83.5189 90.0362 83.8569C89.0498 83.9347 88.0583 83.7964 87.1309 83.4516Z" fill="#FEFEFE"/>
<path d="M69.1309 78.9379C70.117 78.8684 71.1068 79.0065 72.0362 79.3432C71.0498 79.421 70.0583 79.2827 69.1309 78.9379Z" fill="#FEFEFE"/>
<path d="M94.4707 46.5546C95.4568 46.4851 96.4466 46.6232 97.3761 46.9599C96.3899 47.0294 95.4002 46.8913 94.4707 46.5546Z" fill="#FEFEFE"/>
<path d="M90.9463 50.5322C90.6311 50.9111 90.271 51.2503 89.8739 51.5422C89.4876 51.841 89.0694 52.0961 88.627 52.3029C88.9401 51.9264 89.2957 51.5875 89.6869 51.2929C90.0769 50.993 90.4993 50.7378 90.9463 50.5322Z" fill="#FEFEFE"/>
<path d="M71.7494 61.8359C71.4303 62.2115 71.0683 62.5484 70.6708 62.8397C70.2884 63.1441 69.8695 63.3996 69.4238 63.6004C69.7446 63.2264 70.1064 62.8896 70.5024 62.5966C70.8858 62.2935 71.3045 62.0381 71.7494 61.8359Z" fill="#FEFEFE"/>
<path d="M95.722 66.936C95.4031 67.3136 95.0411 67.6526 94.6434 67.9461C94.2601 68.2492 93.8414 68.5046 93.3965 68.7067C93.7154 68.3291 94.0774 67.9902 94.4751 67.6967C94.8605 67.3966 95.2789 67.1414 95.722 66.936Z" fill="#FEFEFE"/>
<path d="M80.1986 76.7119C79.8797 77.0895 79.5177 77.4284 79.12 77.7219C78.736 78.0241 78.3174 78.2795 77.873 78.4826C78.192 78.105 78.554 77.766 78.9517 77.4726C79.3371 77.1725 79.7554 76.9173 80.1986 76.7119Z" fill="#FEFEFE"/>
<path d="M101.671 53.5811C101.352 53.9586 100.99 54.2976 100.593 54.5911C100.206 54.8898 99.7881 55.1449 99.3457 55.3517C99.6646 54.9742 100.027 54.6352 100.424 54.3417C100.808 54.0395 101.227 53.7841 101.671 53.5811Z" fill="#FEFEFE"/>
<path d="M101.347 64.9095C100.969 64.5906 100.63 64.2286 100.337 63.8309C100.033 63.4479 99.7779 63.0291 99.5762 62.584C99.9551 62.8992 100.294 63.2593 100.586 63.6564C100.884 64.0455 101.139 64.4657 101.347 64.9095Z" fill="#FEFEFE"/>
<path d="M66.7433 72.7157C66.3658 72.3967 66.0268 72.0348 65.7333 71.6371C65.4332 71.2517 65.178 70.8333 64.9727 70.3901C65.3502 70.7091 65.6892 71.0711 65.9827 71.4687C66.2849 71.8527 66.5402 72.2713 66.7433 72.7157Z" fill="#FEFEFE"/>
<path d="M97.1378 81.999C96.7589 81.6838 96.4198 81.3237 96.1278 80.9266C95.8291 80.5403 95.574 80.1221 95.3672 79.6797C95.7447 79.9986 96.0837 80.3606 96.3772 80.7583C96.6781 81.1409 96.9334 81.5573 97.1378 81.999Z" fill="#FEFEFE"/>
<path d="M81.9074 55.5327C81.5299 55.2159 81.191 54.856 80.8974 54.4603C80.5999 54.0731 80.3449 53.6551 80.1367 53.2134C80.5156 53.5286 80.8548 53.8887 81.1467 54.2858C81.4442 54.6729 81.6992 55.091 81.9074 55.5327Z" fill="#FEFEFE"/>
<path d="M82.175 87.286C81.7974 86.9671 81.4584 86.6051 81.1649 86.2074C80.8658 85.8213 80.6107 85.4031 80.4043 84.9604C80.7832 85.2756 81.1224 85.6357 81.4143 86.0328C81.7143 86.4205 81.9695 86.8409 82.175 87.286Z" fill="#FEFEFE"/>
<path d="M84.7625 68.557C84.3885 68.2363 84.0517 67.8745 83.7587 67.4784C83.4543 67.096 83.1988 66.6771 82.998 66.2314C83.3737 66.5505 83.7106 66.9125 84.0018 67.3101C84.3049 67.6934 84.5603 68.1121 84.7625 68.557Z" fill="#FEFEFE"/>
<path d="M97.5628 53.0074C95.2123 52.5709 93.0052 47.7141 92.7246 44.4471C92.7246 44.2226 93.8219 42.4457 95.0751 40.2199C95.8357 38.867 96.64 37.3395 97.2822 35.893C97.4131 35.6 98.18 36.5913 98.18 36.5913L99.8509 37.8383L105.369 42.0716C104.055 43.6483 102.939 45.3799 102.046 47.2278C101.957 47.428 101.89 47.637 101.846 47.8512C101.844 47.8865 101.844 47.9219 101.846 47.9572C101.503 49.1917 99.826 53.4251 97.5628 53.0074Z" fill="#FECCAA"/>
<path d="M101.845 47.8829C101.843 47.9181 101.843 47.9536 101.845 47.9888C101.518 47.8928 101.198 47.7698 100.891 47.621C94.8497 44.7904 97.512 36.6978 97.512 36.6978L99.8812 37.8699L105.399 42.1033C104.085 43.6799 102.969 45.4115 102.076 47.2594C101.977 47.4584 101.9 47.6674 101.845 47.8829Z" fill="#263238"/>
<path d="M111.709 24.8452C111.709 24.8452 114.471 26.5972 114.483 29.7145C114.496 32.8319 113.236 35.8807 112.975 35.9929C112.713 36.1051 111.709 24.8452 111.709 24.8452Z" fill="#263238"/>
<path d="M98.0051 26.4664C96.3466 29.7397 96.4339 40.0581 98.5038 42.7141C101.509 46.5672 107.295 47.8952 110.792 44.0858C114.178 40.3948 113.829 26.9528 111.416 24.4464C107.906 20.743 100.462 21.6221 98.0051 26.4664Z" fill="#FECCAA"/>
<path d="M106.809 34.7275C106.809 34.7275 106.753 34.7649 106.759 34.7899C106.796 35.4944 106.722 36.3049 106.092 36.5543C106.092 36.5543 106.092 36.598 106.092 36.5917C106.871 36.467 106.958 35.3884 106.809 34.7275Z" fill="#263238"/>
<path d="M106.166 34.0105C105.031 33.9482 104.994 36.2176 106.048 36.2737C107.101 36.3299 107.114 34.0604 106.166 34.0105Z" fill="#263238"/>
<path d="M110.656 34.7026C110.656 34.7026 110.712 34.7026 110.712 34.765C110.674 35.4695 110.755 36.28 111.391 36.5232C111.391 36.5232 111.391 36.5668 111.391 36.5606C110.606 36.4421 110.512 35.3635 110.656 34.7026Z" fill="#263238"/>
<path d="M111.296 33.9791C112.425 33.9105 112.481 36.1799 111.433 36.2423C110.386 36.3046 110.349 34.0352 111.296 33.9791Z" fill="#263238"/>
<path d="M105.455 32.2833C105.752 32.1985 106.046 32.0986 106.334 31.984C106.661 31.9247 106.959 31.758 107.182 31.5102C107.235 31.4194 107.258 31.3134 107.246 31.2086C107.233 31.1038 107.187 31.006 107.113 30.9303C106.944 30.8021 106.744 30.7212 106.534 30.696C106.324 30.6707 106.11 30.7022 105.916 30.7869C105.495 30.8996 105.131 31.1638 104.893 31.5289C104.846 31.6157 104.824 31.7143 104.831 31.813C104.838 31.9118 104.873 32.0064 104.932 32.0858C104.991 32.1652 105.072 32.226 105.165 32.261C105.257 32.296 105.358 32.3037 105.455 32.2833Z" fill="#263238"/>
<path d="M112.07 33.2872C111.767 33.2194 111.467 33.1362 111.173 33.0379C110.844 32.9944 110.539 32.8431 110.306 32.6077C110.246 32.521 110.217 32.4165 110.224 32.3112C110.23 32.206 110.273 32.1061 110.343 32.0278C110.504 31.8903 110.699 31.7987 110.907 31.7625C111.116 31.7263 111.33 31.7469 111.528 31.8221C111.954 31.9105 112.332 32.1551 112.588 32.5079C112.641 32.5914 112.669 32.6886 112.668 32.7878C112.668 32.8869 112.638 32.9836 112.583 33.0662C112.528 33.1488 112.451 33.2137 112.36 33.2529C112.269 33.2921 112.168 33.3041 112.07 33.2872Z" fill="#263238"/>
<path d="M105.213 41.3925C105.381 41.5608 105.543 41.7853 105.799 41.8102C106.061 41.8101 106.32 41.7548 106.559 41.6481C106.559 41.6481 106.603 41.6481 106.559 41.6855C106.457 41.8225 106.32 41.9292 106.161 41.994C106.003 42.0588 105.83 42.0793 105.661 42.0534C105.519 42.0145 105.391 41.9347 105.294 41.8239C105.196 41.7131 105.133 41.5761 105.113 41.4299C105.108 41.4167 105.108 41.402 105.114 41.3891C105.12 41.3763 105.131 41.3663 105.144 41.3613C105.157 41.3563 105.172 41.3568 105.185 41.3627C105.198 41.3685 105.208 41.3792 105.213 41.3925Z" fill="#263238"/>
<path d="M109.289 38.3872C109.289 38.3872 109.32 39.4346 109.289 39.9271C108.331 39.8255 107.364 39.8591 106.415 40.0269C106.191 40.0768 106.215 39.896 106.471 39.7775C107.235 39.4282 108.086 39.3153 108.915 39.4533C108.965 39.3224 108.834 37.8323 108.915 37.8385C109.292 37.9125 109.657 38.0384 110 38.2126C110 36.018 109.651 33.8483 109.682 31.6537C109.682 31.5788 109.8 31.5664 109.813 31.6537C110.256 33.9753 110.465 36.3355 110.436 38.6989C110.443 38.967 109.476 38.4869 109.289 38.3872Z" fill="#263238"/>
<path d="M107.886 39.5531C107.638 40.2069 107.177 40.758 106.577 41.118C105.636 41.4984 105.33 40.6442 106.278 39.8711C106.775 39.6199 107.331 39.5099 107.886 39.5531Z" fill="#263238"/>
<path d="M106.909 40.9246C106.809 41.0056 106.698 41.0708 106.578 41.1179C105.712 41.467 105.369 40.7749 106.067 40.0767C106.541 40.1141 107.083 40.2886 106.909 40.9246Z" fill="#FF99BA"/>
<path d="M97.53 35.2885C98.671 35.6376 99.9803 32.2085 100.354 30.9242C100.679 29.7645 101.053 26.0798 101.109 25.8242C101.165 25.5686 106.097 29.0849 108.952 28.2495C111.808 27.414 113.747 24.8266 113.79 23.6233C113.834 22.42 110.261 19.365 107.175 19.2091C104.089 19.0533 99.9055 22.95 99.9055 22.95C100.411 22.3765 100.869 21.7636 101.277 21.117C101.227 20.9798 99.2321 21.7779 98.8643 23.1994C98.8643 23.1994 99.2633 21.41 99.1136 21.3788C98.964 21.3477 97.4116 22.8752 97.7607 24.0348C97.7607 24.0348 95.9651 25.5873 95.803 27.2893C95.6409 28.9914 96.1895 34.877 97.53 35.2885Z" fill="#263238"/>
<path d="M110.999 27.6011C110.149 28.0615 109.235 28.3895 108.286 28.5737C107.222 28.6686 106.151 28.4972 105.169 28.0749C104.18 27.6929 103.262 27.1493 102.451 26.4664C101.734 25.8803 101.092 25.1633 100.325 24.6396C100.131 24.5024 99.9132 24.783 100.032 24.9576C101.311 26.7647 103.139 28.1115 105.244 28.7981C106.222 29.1169 107.265 29.1765 108.273 28.971C109.28 28.7656 110.217 28.3021 110.992 27.626C110.992 27.626 111.011 27.6011 110.999 27.6011Z" fill="#263238"/>
<path d="M98.7216 34.9829C98.7216 34.9829 96.9509 31.3917 95.3548 31.9716C93.7587 32.5514 94.7313 37.5205 96.3711 38.4307C96.5719 38.5607 96.797 38.6487 97.0327 38.6896C97.2684 38.7305 97.5099 38.7233 97.7428 38.6686C97.9757 38.6139 98.1951 38.5127 98.3879 38.3711C98.5808 38.2295 98.743 38.0505 98.865 37.8447L98.7216 34.9829Z" fill="#FECCAA"/>
<path d="M95.6729 33.3867C95.6729 33.3867 95.6355 33.3867 95.6729 33.4366C96.8076 34.1099 97.269 35.307 97.5433 36.554C97.4916 36.422 97.4119 36.3027 97.3097 36.2046C97.2074 36.1064 97.0851 36.0316 96.9511 35.9854C96.8171 35.9391 96.6747 35.9225 96.5336 35.9367C96.3926 35.9509 96.2563 35.9956 96.1342 36.0677C96.0968 36.0677 96.1342 36.1362 96.1342 36.1362C96.3573 36.1015 96.5856 36.1369 96.7877 36.2374C96.9898 36.3379 97.1558 36.4986 97.2627 36.6974C97.4412 37.0303 97.5833 37.3815 97.6867 37.7448C97.7241 37.8633 97.9298 37.8321 97.9111 37.7011C98.1792 36.1487 97.3064 33.7982 95.6729 33.3867Z" fill="#263238"/>
<path d="M87.0318 51.0186C85.7848 58.0826 93.4411 81.8805 98.3478 86.3259C105.649 92.9347 119.147 97.2803 124.041 98.6956C126.173 99.3191 132.071 84.3121 129.914 83.3207C125.294 81.2196 110.942 76.7306 109.577 75.6084C108.211 74.4861 99.9813 62.5965 96.3153 55.7508C91.4086 46.5359 87.649 47.4461 87.0318 51.0186Z" fill="#FECCAA"/>
<path d="M126.28 81.999C126.28 81.999 132.652 83.6263 136.761 84.8795C139.055 85.584 142.883 87.1364 144.336 88.4208C146.506 90.3473 154.349 99.7742 152.104 101.726C150.072 103.496 144.361 94.5371 144.361 94.5371C144.361 94.5371 150.92 103.066 148.102 104.743C145.284 106.42 140.128 95.4411 140.128 95.4411C140.128 95.4411 146.668 104.357 143.469 105.622C141.05 106.576 135.863 96.8938 135.863 96.8938C135.863 96.8938 141.437 104.594 138.98 105.685C136.274 106.894 130.931 98.253 130.931 98.253C124.248 99.98 120.332 98.0659 117.757 96.3825C117.153 95.971 126.28 81.999 126.28 81.999Z" fill="#FECCAA"/>
<path d="M142.277 91.4386C143.087 92.4112 143.91 93.3963 144.627 94.4375C145.344 95.4787 146.024 96.551 146.641 97.6546C147.477 99.0819 148.147 100.601 148.636 102.181C147.564 99.4377 145.051 95.6657 144.334 94.6245C143.617 93.5833 142.95 92.5047 142.239 91.4635C142.221 91.4385 142.258 91.4136 142.277 91.4386Z" fill="#263238"/>
<path d="M138.469 93.9633C139.853 95.0606 142.752 99.1381 143.868 101.875C143.918 101.987 143.868 101.981 143.787 101.875C142.914 100.522 139.373 95.2851 138.437 93.982C138.419 93.9633 138.45 93.9446 138.469 93.9633Z" fill="#263238"/>
<path d="M134.809 95.5594C136.529 97.3632 137.888 99.4795 138.812 101.794C138.855 101.906 138.768 101.888 138.7 101.794C137.409 99.693 136.411 98.0533 134.741 95.6155C134.716 95.5594 134.772 95.5033 134.809 95.5594Z" fill="#263238"/>
<path d="M93.9895 51.5364C88.2972 43.4873 84.893 46.4675 86.0339 55.2086C87.1063 63.3823 89.9681 73.121 89.9681 73.121L104.308 66.163C104.308 66.163 97.6118 56.6925 93.9895 51.5364Z" fill="#FB8A3C"/>
<path d="M97.4502 54.7036C97.6392 55.1582 97.7751 55.6331 97.8554 56.1189C97.943 56.6062 97.9744 57.102 97.949 57.5965C97.7619 57.1395 97.6281 56.6626 97.5499 56.175C97.4572 55.6904 97.4237 55.1963 97.4502 54.7036Z" fill="#FEFEFE"/>
<path d="M88.9512 59.5977C89.8662 59.2255 90.8509 59.0554 91.8379 59.099C91.383 59.2859 90.9081 59.4198 90.4226 59.498C89.9379 59.5905 89.4439 59.624 88.9512 59.5977Z" fill="#FEFEFE"/>
<path d="M89.3205 47.0786C88.9344 47.9898 88.3584 48.8081 87.6309 49.479C88.017 48.5678 88.593 47.7495 89.3205 47.0786Z" fill="#FEFEFE"/>
<path d="M101.471 63.3574C101.282 63.8134 101.041 64.2464 100.754 64.648C100.474 65.0547 100.148 65.4272 99.7812 65.7578C100.167 64.8466 100.743 64.0283 101.471 63.3574Z" fill="#FEFEFE"/>
<path d="M91.4961 68.2389C91.039 68.0519 90.6058 67.8112 90.2055 67.5219C89.7986 67.2425 89.4261 66.9161 89.0957 66.5493C90.0069 66.9354 90.8252 67.5114 91.4961 68.2389Z" fill="#FEFEFE"/>
<path d="M95.8601 53.9614C96.6269 55.0151 97.4187 56.0438 98.2043 57.0788C98.0048 56.5551 97.8302 56.0251 97.6806 55.4889H97.718C97.8739 55.9004 98.0547 56.3057 98.2043 56.7359L98.4288 57.3593C98.4481 57.4019 98.4648 57.4456 98.4786 57.4903C99.1021 58.2946 99.7256 59.0988 100.299 59.9218C101.004 60.9069 101.683 61.9045 102.369 62.902C103.055 63.8996 103.747 65.1403 104.489 66.1441C104.557 66.2314 103.242 66.7675 103.099 66.8361C102.955 66.9047 102.88 66.7863 103.018 66.7426C103.155 66.699 104.202 66.0568 104.215 66.0443C103.529 65.0343 102.737 64.1053 102.02 63.1265C101.303 62.1476 100.592 61.1688 99.9002 60.1774C98.4973 58.1574 97.213 56.0625 95.8164 54.0362L95.8601 53.9614Z" fill="#263238"/>
<path d="M86.3697 60.9943C86.5879 61.4182 86.8248 61.836 86.9931 62.2724L87.2301 62.8148C86.8996 61.2624 86.6066 59.6975 86.2637 58.145C86.9246 60.6389 87.5917 63.1889 88.2027 65.7202C88.7825 68.1393 89.487 70.5833 89.8237 73.0522C90.2585 72.8615 90.7091 72.7092 91.1704 72.5971C90.7074 72.8967 90.209 73.1376 89.6865 73.3141C88.935 70.8035 88.3107 68.2564 87.8161 65.6828C87.6603 64.9845 87.5169 64.2862 87.3672 63.5879C87.2051 63.164 87.0118 62.7587 86.8186 62.341C86.6253 61.9233 86.4507 61.4557 86.2761 61.013C86.3136 60.988 86.3572 60.9631 86.3697 60.9943Z" fill="#263238"/>
<path d="M90.181 70.7143C92.1762 69.592 100.512 65.2776 102.376 64.4796C102.507 64.4234 102.576 64.4796 102.445 64.5668C98.4879 66.866 94.4085 68.9474 90.2247 70.8016C90.1748 70.814 90.1249 70.7455 90.181 70.7143Z" fill="#263238"/>
<path d="M318.637 234.625H128.678L156.142 78.8506H346.101L318.637 234.625Z" fill="#FB8A3C"/>
<path d="M221.158 62.7153H158.992L156.143 78.8508H222.673L221.158 62.7153Z" fill="#FB8A3C"/>
<g opacity="0.1">
<path d="M318.639 234.625H128.68L156.144 78.8506H346.103L318.639 234.625Z" fill="black"/>
<path d="M221.158 62.7153H158.992L156.143 78.8508H222.673L221.158 62.7153Z" fill="black"/>
</g>
<path d="M152.282 69.2992C151.867 67.515 151.867 65.6592 152.282 63.875C152.698 65.6592 152.698 67.515 152.282 69.2992Z" fill="#263238"/>
<path d="M146.759 70.8955C146.125 70.2373 145.578 69.4996 145.132 68.7009C144.665 67.9189 144.298 67.081 144.041 66.207C144.678 66.8614 145.225 67.5973 145.668 68.3954C146.134 69.1802 146.501 70.0201 146.759 70.8955Z" fill="#263238"/>
<path d="M142.769 75.0412C141.017 74.5085 139.411 73.5807 138.074 72.3291C138.948 72.5832 139.786 72.9477 140.568 73.4139C141.367 73.8623 142.106 74.409 142.769 75.0412Z" fill="#263238"/>
<path d="M141.373 80.6277C139.589 81.0434 137.733 81.0434 135.949 80.6277C137.733 80.212 139.589 80.212 141.373 80.6277Z" fill="#263238"/>
<path d="M142.993 86.1519C142.332 86.7834 141.595 87.33 140.799 87.7791C140.017 88.2453 139.179 88.6099 138.305 88.864C138.963 88.2291 139.701 87.6822 140.499 87.2367C141.28 86.7682 142.118 86.4036 142.993 86.1519Z" fill="#263238"/>
<path d="M147.132 90.1357C146.601 91.8903 145.673 93.499 144.42 94.8367C144.674 93.9616 145.041 93.1232 145.511 92.3428C145.955 91.5413 146.5 90.7996 147.132 90.1357Z" fill="#263238"/>
<path d="M152.72 91.5137C152.937 92.401 153.042 93.3122 153.031 94.2258C153.045 95.1395 152.94 96.0511 152.72 96.9379C152.496 96.0516 152.391 95.1396 152.408 94.2258C152.398 93.3122 152.502 92.401 152.72 91.5137Z" fill="#263238"/>
<path d="M158.244 89.9485C158.879 90.6068 159.426 91.3445 159.871 92.1431C160.34 92.9238 160.705 93.7621 160.956 94.637C159.703 93.2993 158.775 91.6906 158.244 89.936V89.9485Z" fill="#263238"/>
<path d="M162.229 85.7715C163.103 86.0232 163.942 86.3879 164.722 86.8563C165.521 87.3018 166.259 87.8488 166.917 88.4836C166.042 88.2319 165.204 87.8672 164.423 87.3987C163.624 86.9533 162.887 86.4063 162.229 85.7715Z" fill="#263238"/>
<path d="M163.605 80.1852C165.392 79.7696 167.25 79.7696 169.036 80.1852C167.25 80.6008 165.392 80.6008 163.605 80.1852Z" fill="#263238"/>
<path d="M162.009 74.6608C162.669 74.0298 163.406 73.4851 164.203 73.0398C164.982 72.5669 165.821 72.1999 166.697 71.9487C165.359 73.202 163.751 74.1301 161.996 74.6608H162.009Z" fill="#263238"/>
<path d="M157.863 70.6773C158.12 69.8042 158.484 68.9664 158.948 68.1834C159.394 67.3847 159.941 66.647 160.575 65.9888C160.324 66.8637 159.959 67.702 159.491 68.4827C159.045 69.2813 158.498 70.019 157.863 70.6773Z" fill="#263238"/>
<path d="M318.358 234.626H127.993L100.959 84.5059H291.33L318.358 234.626Z" fill="#FB8A3C"/>
<path d="M166.927 176.274C171.297 176.274 174.839 172.732 174.839 168.363C174.839 163.993 171.297 160.451 166.927 160.451C162.558 160.451 159.016 163.993 159.016 168.363C159.016 172.732 162.558 176.274 166.927 176.274Z" fill="#263238"/>
<path d="M229.476 176.274C233.846 176.274 237.388 172.732 237.388 168.363C237.388 163.993 233.846 160.451 229.476 160.451C225.107 160.451 221.564 163.993 221.564 168.363C221.564 172.732 225.107 176.274 229.476 176.274Z" fill="#263238"/>
<path d="M209.568 177.54L209.132 176.711C209.094 176.636 205.004 169.08 196.781 169.08C189.299 169.08 187.428 176.194 187.379 176.499L187.154 177.403L185.34 176.967L185.558 176.057C185.558 175.969 187.79 167.209 196.781 167.209C206.133 167.209 210.603 175.489 210.79 175.845L211.226 176.668L209.568 177.54Z" fill="#263238"/>
<path d="M305.791 167.757L305.66 167.134C306.065 167.047 306.464 166.953 306.863 166.847L307.019 167.471C306.595 167.577 306.203 167.67 305.791 167.757Z" fill="#263238"/>
<path d="M309.432 166.754L309.233 166.168C310.012 165.9 310.792 165.607 311.546 165.289L311.789 165.862C311.022 166.187 310.23 166.486 309.432 166.754ZM314.077 164.765L313.797 164.216C314.526 163.836 315.256 163.425 315.948 162.97L316.272 163.499C315.561 163.992 314.819 164.41 314.077 164.765ZM318.367 162.128L317.999 161.623C318.672 161.13 319.321 160.613 319.932 160.083L320.343 160.55C319.689 161.118 319.065 161.648 318.361 162.153L318.367 162.128ZM322.17 158.811L321.715 158.381C322.288 157.757 322.831 157.134 323.33 156.51L323.822 156.891C323.305 157.576 322.75 158.219 322.182 158.836L322.17 158.811ZM325.256 154.821L324.726 154.49C325.157 153.794 325.54 153.069 325.873 152.321L326.447 152.576C326.095 153.356 325.695 154.114 325.25 154.846L325.256 154.821ZM327.32 150.195L326.696 150.02C326.924 149.238 327.093 148.44 327.201 147.632L327.825 147.713C327.722 148.561 327.551 149.399 327.314 150.22L327.32 150.195ZM328.012 145.207H327.388V145.026C327.388 144.272 327.345 143.505 327.27 142.75L327.893 142.688C327.975 143.465 328.017 144.245 328.018 145.026L328.012 145.207ZM326.89 140.325C326.722 139.521 326.514 138.726 326.266 137.943L326.89 137.756C327.145 138.567 327.363 139.39 327.513 140.194L326.89 140.325ZM325.412 135.63C325.113 134.895 324.789 134.14 324.39 133.38L324.951 133.099C325.331 133.872 325.68 134.645 325.986 135.393L325.412 135.63ZM323.23 131.185C322.843 130.505 322.419 129.788 321.983 129.053L322.513 128.722C322.968 129.464 323.398 130.187 323.76 130.879L323.23 131.185ZM320.624 126.952C320.169 126.266 319.707 125.574 319.233 124.882L319.751 124.532C320.225 125.224 320.686 125.917 321.141 126.615L320.624 126.952ZM317.818 122.824C317.351 122.138 316.877 121.446 316.415 120.76L316.933 120.411C317.394 121.097 317.862 121.789 318.329 122.469L317.818 122.824ZM315.031 118.672C314.576 117.974 314.133 117.263 313.697 116.552L314.227 116.228C314.663 116.939 315.106 117.637 315.555 118.335L315.031 118.672ZM312.431 114.389C312.007 113.634 311.615 112.886 311.259 112.169L311.82 111.888C312.169 112.599 312.562 113.335 312.974 114.083L312.431 114.389ZM310.218 109.9C309.888 109.12 309.595 108.328 309.32 107.555L309.944 107.356C310.206 108.11 310.499 108.89 310.823 109.656L310.218 109.9ZM308.597 105.142C308.391 104.332 308.21 103.503 308.073 102.649L308.697 102.549C308.834 103.347 309.002 104.157 309.208 104.955L308.597 105.142ZM307.762 100.155C307.699 99.3878 307.668 98.6147 307.668 97.8416V97.6358H308.291V97.8353C308.291 98.5897 308.291 99.3504 308.385 100.099L307.762 100.155ZM308.385 95.1669L307.762 95.1045C307.762 94.9362 307.793 94.7616 307.811 94.5808C307.886 93.9137 307.98 93.2466 308.092 92.6106L308.715 92.7166C308.609 93.3401 308.516 93.9947 308.441 94.6494C308.466 94.8427 308.466 95.011 308.416 95.1856L308.385 95.1669ZM309.252 90.3163L308.628 90.1479C308.859 89.3249 309.127 88.5207 309.426 87.7538L310.006 87.9782C309.723 88.7502 309.481 89.5369 309.283 90.335L309.252 90.3163ZM340.319 86.6814C339.97 86.6814 339.609 86.6315 339.253 86.5817C338.767 86.5131 338.281 86.432 337.8 86.3385L337.925 85.715C338.387 85.8023 338.867 85.8834 339.34 85.952C339.677 85.9956 340.02 86.0268 340.35 86.0455L340.319 86.6814ZM342.882 86.4881L342.751 85.8647C343.533 85.7031 344.283 85.4123 344.97 85.0043L345.295 85.5342C344.56 85.9886 343.755 86.3174 342.913 86.5068L342.882 86.4881ZM311.047 85.7462L310.492 85.4532C310.889 84.7096 311.329 83.9894 311.808 83.296L312.319 83.6513C311.863 84.3303 311.449 85.0361 311.078 85.7649L311.047 85.7462ZM335.363 85.7088C334.558 85.4535 333.767 85.1559 332.993 84.8172L333.249 84.2436C333.999 84.5767 334.767 84.866 335.55 85.1103L335.363 85.7088ZM347.209 83.7636L346.691 83.4144C347.135 82.7704 347.398 82.0189 347.452 81.2385L348.075 81.2821C348.022 82.1766 347.729 83.0402 347.227 83.7823L347.209 83.7636ZM330.749 83.67C330.019 83.2459 329.314 82.7818 328.635 82.2797L329.003 81.7809C329.663 82.2678 330.35 82.7174 331.061 83.1276L330.749 83.67ZM313.853 81.7248L313.391 81.3071C313.956 80.6792 314.558 80.0859 315.193 79.5302L315.605 79.9978C314.993 80.545 314.414 81.128 313.872 81.7435L313.853 81.7248ZM326.69 80.6711C326.069 80.0991 325.48 79.4934 324.926 78.8568L325.393 78.4453C325.933 79.0637 326.505 79.6527 327.108 80.2098L326.69 80.6711ZM346.984 78.9815C346.627 78.269 346.133 77.6335 345.532 77.1111L345.943 76.6435C346.605 77.2165 347.15 77.9133 347.545 78.6947L346.984 78.9815ZM317.544 78.489L317.188 77.9777C317.886 77.5016 318.608 77.0624 319.352 76.6622L319.645 77.2109C318.929 77.6067 318.234 78.0395 317.563 78.5077L317.544 78.489ZM323.367 76.868C323.13 76.5313 322.899 76.1884 322.681 75.833L321.871 76.151L321.634 75.5774L322.351 75.2906C322.239 75.1035 322.126 74.9165 322.02 74.7294L322.563 74.424C322.687 74.6422 322.812 74.8604 322.943 75.0474C323.292 74.9227 323.648 74.8043 324.009 74.692L324.19 75.3155C323.885 75.409 323.567 75.5088 323.28 75.6148C323.473 75.9203 323.673 76.2383 323.903 76.5063L323.367 76.868ZM343.524 75.7956C342.921 75.4949 342.295 75.2407 341.653 75.035L341.242 74.904L341.423 74.2805L341.847 74.4177C342.515 74.6306 343.165 74.8953 343.792 75.2095L343.524 75.7956ZM326.578 74.6796L326.447 74.0561C327.251 73.8753 328.087 73.7257 328.941 73.6072L329.034 74.2307C328.211 74.3616 327.395 74.5175 326.597 74.6983L326.578 74.6796ZM338.86 74.3429C338.081 74.2057 337.258 74.0997 336.416 74.0249L336.466 73.4015C337.333 73.4763 338.175 73.5823 338.96 73.7257L338.86 74.3429ZM331.472 73.9813L331.429 73.3578C332.17 73.3142 332.912 73.2892 333.648 73.2892H333.954V73.9127H333.654C332.95 73.9314 332.214 73.9501 331.491 74L331.472 73.9813ZM320.935 72.4912C320.599 71.7305 320.312 70.9387 320.031 70.1345L320.655 69.9412C320.917 70.7268 321.21 71.4999 321.534 72.2418L320.935 72.4912ZM319.358 67.7029C319.171 66.8986 319.015 66.0632 318.897 65.209L319.52 65.1217C319.639 65.9447 319.788 66.7615 319.969 67.5533L319.358 67.7029ZM318.66 62.7151C318.629 62.154 318.61 61.5804 318.61 61.0068C318.61 60.7387 318.61 60.4644 318.61 60.1963H319.233C319.233 60.4644 319.233 60.7263 319.233 60.9943C319.233 61.5555 319.233 62.1228 319.277 62.6653L318.66 62.7151ZM319.402 57.7274L318.778 57.665C318.866 56.842 318.984 56.0003 319.127 55.1711L319.751 55.2771C319.583 56.1063 319.464 56.9044 319.383 57.7398L319.402 57.7274ZM320.256 52.858L319.632 52.7084C319.832 51.9041 320.063 51.0936 320.318 50.2831L320.942 50.4764C320.661 51.2931 320.43 52.0849 320.237 52.8705L320.256 52.858ZM321.752 48.1383L321.172 47.9139C321.478 47.1346 321.796 46.3552 322.176 45.6008L322.737 45.8751C322.363 46.6233 322.033 47.3839 321.734 48.1758L321.752 48.1383ZM323.897 43.693L323.355 43.375C323.779 42.658 324.234 41.941 324.707 41.2552L325.219 41.6106C324.732 42.2964 324.29 42.9947 323.878 43.7055L323.897 43.693ZM326.709 39.6342L326.223 39.2414C326.746 38.6179 327.307 37.957 327.887 37.371L328.336 37.8012C327.75 38.3872 327.201 39.0107 326.69 39.6466L326.709 39.6342ZM330.101 36.043L329.683 35.5816C330.306 35.0267 330.93 34.4781 331.597 33.9481L331.983 34.4407C331.316 34.9706 330.68 35.513 330.082 36.0554L330.101 36.043ZM333.972 32.963L333.617 32.4455C334.297 31.9779 335.007 31.5166 335.73 31.0801L336.048 31.6101C335.325 32.0528 334.652 32.5079 333.954 32.9755L333.972 32.963ZM338.206 30.3881L337.913 29.8394C338.648 29.4466 339.409 29.0726 340.17 28.7234L340.432 29.2908C339.64 29.6461 338.91 30.0202 338.187 30.4006L338.206 30.3881ZM342.713 28.3182L342.483 27.7321C343.268 27.4266 344.06 27.1086 344.846 26.8779L345.045 27.5014C344.253 27.7383 343.468 28.0251 342.695 28.3306L342.713 28.3182Z" fill="#263238"/>
<path d="M347.519 26.7403L347.363 26.1169C348.136 25.9174 348.61 25.8301 348.61 25.8301L348.722 26.4536C348.722 26.4536 348.274 26.5471 347.519 26.7403Z" fill="#263238"/>
<path d="M358.543 22.7128C356.953 17.7874 346.304 19.558 348.381 25.9985C350.457 32.439 360.133 27.6445 358.543 22.7128Z" fill="#263238"/>
<path d="M342.59 20.7427C342.671 18.5793 345.676 16.9146 349.928 17.6815C354.18 18.4484 358.176 21.3163 358.176 21.3163C358.176 21.3163 353.98 23.8601 349.685 24.3277C345.389 24.7953 342.509 22.9 342.59 20.7427Z" fill="#EBEBEB"/>
<path d="M358.175 21.3037C355.968 21.3037 353.767 21.2413 351.566 21.1728C349.365 21.1042 347.158 20.992 344.957 20.8174C347.164 20.8174 349.371 20.8735 351.572 20.9421C353.773 21.0107 355.98 21.1229 358.175 21.3037Z" fill="#263238"/>
<path d="M346.859 18.8164C348.112 19.4158 349.294 20.1541 350.382 21.0173C349.755 20.723 349.147 20.3899 348.561 20.0197C347.971 19.6521 347.403 19.2503 346.859 18.8164Z" fill="#263238"/>
<path d="M352.638 21.0981C351.51 22.0122 350.287 22.8023 348.99 23.4549C350.124 22.5397 351.353 21.7495 352.656 21.0981H352.638Z" fill="#263238"/>
<path d="M353.281 19.8823C353.91 20.1844 354.461 20.6283 354.89 21.1791C354.575 21.0307 354.28 20.8443 354.011 20.6243C353.74 20.4056 353.495 20.1566 353.281 19.8823Z" fill="#263238"/>
<path d="M346.641 33.5549C347.969 35.2633 351.379 34.8518 354.378 31.7469C357.377 28.642 358.967 23.9722 358.967 23.9722C358.967 23.9722 354.054 24.3463 350.307 26.4661C346.56 28.5859 345.306 31.8404 346.641 33.5549Z" fill="#EBEBEB"/>
<path d="M358.966 23.9722C357.171 25.2191 355.425 26.6032 353.673 27.9437C351.921 29.2842 350.206 30.6683 348.529 32.096C350.325 30.8491 352.071 29.4712 353.816 28.1307C355.562 26.7903 357.264 25.4062 358.966 23.9722Z" fill="#263238"/>
<path d="M351.225 32.5886C351.558 31.983 351.856 31.3585 352.116 30.7182C352.381 30.0762 352.606 29.4182 352.79 28.748C352.455 29.3532 352.158 29.9778 351.898 30.6185C351.635 31.2615 351.41 31.9193 351.225 32.5886Z" fill="#263238"/>
<path d="M354.603 27.3766C353.144 27.2986 351.681 27.3759 350.238 27.6072C350.965 27.6509 351.694 27.6509 352.42 27.6072C353.152 27.5716 353.88 27.4946 354.603 27.3766Z" fill="#263238"/>
<path d="M355.807 27.9935C355.973 27.6856 356.103 27.3592 356.193 27.0209C356.285 26.6851 356.34 26.3401 356.355 25.9922C356.024 26.6094 355.836 27.2936 355.807 27.9935Z" fill="#263238"/>
<path d="M358.544 22.7129C358.192 22.8272 357.814 22.8345 357.457 22.7338C357.101 22.6331 356.783 22.4289 356.543 22.1471C356.302 21.8654 356.151 21.5187 356.108 21.151C356.065 20.7833 356.132 20.4111 356.301 20.0816C356.47 19.752 356.733 19.48 357.056 19.2998C357.379 19.1197 357.749 19.0396 358.118 19.0697C358.487 19.0997 358.839 19.2386 359.129 19.4687C359.419 19.6989 359.634 20.0099 359.747 20.3624C359.898 20.8337 359.857 21.3457 359.631 21.7862C359.406 22.2268 359.015 22.56 358.544 22.7129Z" fill="#455A64"/>
<path d="M359.69 26.273C359.338 26.3869 358.961 26.3939 358.605 26.2931C358.249 26.1923 357.931 25.9883 357.691 25.7067C357.451 25.4252 357.3 25.0789 357.257 24.7116C357.214 24.3442 357.281 23.9723 357.449 23.6429C357.617 23.3135 357.879 23.0413 358.202 22.8609C358.525 22.6804 358.894 22.5996 359.263 22.6289C359.631 22.6582 359.983 22.7961 360.273 23.0252C360.564 23.2544 360.78 23.5645 360.894 23.9163C360.97 24.1501 360.999 24.3965 360.979 24.6414C360.96 24.8864 360.892 25.1252 360.78 25.344C360.669 25.5629 360.515 25.7576 360.328 25.917C360.141 26.0764 359.924 26.1974 359.69 26.273Z" fill="#455A64"/>
<path d="M155.285 24.6831C154.986 27.5468 153.898 30.2712 152.141 32.5522C150.384 34.8332 148.027 36.5811 145.335 37.6008C142.642 38.6206 139.719 38.8721 136.892 38.3272C134.065 37.7824 131.444 36.4626 129.324 34.5153L121.549 35.6562L125.439 28.9352C124.55 26.7483 124.17 24.3874 124.329 22.0318C124.489 19.6763 125.183 17.388 126.359 15.3408C127.535 13.2936 129.162 11.5414 131.117 10.2173C133.071 8.89308 135.302 8.03178 137.639 7.69878C139.977 7.36578 142.359 7.56984 144.606 8.29545C146.853 9.02107 148.904 10.2492 150.605 11.8864C152.306 13.5237 153.612 15.5271 154.423 17.7444C155.234 19.9618 155.528 22.3348 155.285 24.6831Z" fill="white"/>
<path d="M155.284 24.6832C154.991 27.5454 153.912 30.2709 152.166 32.5577C151.313 33.7143 150.285 34.7303 149.118 35.569C147.976 36.4392 146.716 37.1425 145.377 37.6577C144.036 38.1856 142.628 38.5214 141.193 38.6552C140.476 38.7196 139.755 38.7342 139.036 38.6989C138.314 38.6803 137.595 38.6053 136.885 38.4744C134.02 37.9472 131.358 36.6325 129.198 34.6775L129.378 34.7336L121.616 35.9244L121.049 36.0117L121.336 35.5129L125.201 28.7794V29.0475C124.289 26.8202 123.901 24.413 124.068 22.012C124.234 19.6109 124.951 17.2803 126.161 15.2002C127.371 13.1267 129.033 11.3534 131.024 10.0129C133.012 8.69026 135.274 7.8349 137.64 7.51097C140.006 7.18704 142.414 7.40294 144.685 8.1425C146.931 8.90674 148.978 10.1636 150.676 11.821C152.371 13.4743 153.666 15.4918 154.464 17.7204C155.263 19.949 155.543 22.3302 155.284 24.6832ZM155.284 24.6832C155.536 22.3418 155.246 19.9737 154.438 17.7619C153.629 15.5501 152.323 13.5537 150.62 11.9269C148.917 10.3001 146.863 9.08631 144.617 8.37933C142.371 7.67235 139.992 7.49106 137.664 7.84946C135.36 8.19052 133.165 9.05657 131.249 10.3808C129.349 11.7153 127.762 13.447 126.598 15.4558C125.451 17.4691 124.776 19.7157 124.621 22.0272C124.47 24.3544 124.845 26.6859 125.719 28.848L125.775 28.9852L125.7 29.1161L121.785 35.8247L121.51 35.4132L129.291 34.3221H129.397L129.472 34.3907C131.552 36.3266 134.129 37.6456 136.916 38.2001C137.611 38.3416 138.315 38.4271 139.024 38.4557C139.731 38.5056 140.442 38.5056 141.15 38.4557C142.569 38.3414 143.966 38.033 145.302 37.5392C146.641 37.0518 147.901 36.3713 149.043 35.5192C150.205 34.6872 151.235 33.6846 152.098 32.5452C153.866 30.2695 154.969 27.548 155.284 24.6832Z" fill="#263238"/>
<path d="M132.235 30.3132C132.223 30.1068 132.254 29.9001 132.325 29.706C132.396 29.5119 132.506 29.3345 132.649 29.1849C132.792 29.0352 132.964 28.9164 133.154 28.836C133.345 28.7555 133.549 28.7151 133.756 28.7171C134.18 28.7171 134.586 28.8853 134.885 29.1846C135.184 29.4839 135.352 29.8899 135.352 30.3132C135.352 30.7365 135.184 31.1425 134.885 31.4418C134.586 31.7411 134.18 31.9093 133.756 31.9093C133.549 31.9114 133.345 31.8709 133.154 31.7904C132.964 31.71 132.792 31.5912 132.649 31.4415C132.506 31.2919 132.396 31.1145 132.325 30.9204C132.254 30.7263 132.223 30.5196 132.235 30.3132ZM132.858 26.6285L132.497 14.2588H134.991L134.629 26.6285H132.858Z" fill="#FB8A3C"/>
<path d="M138.165 30.3132C138.153 30.1073 138.183 29.9012 138.254 29.7075C138.325 29.5138 138.435 29.3367 138.577 29.1872C138.719 29.0376 138.89 28.9187 139.079 28.8379C139.269 28.757 139.473 28.7159 139.68 28.7171C140.103 28.7171 140.509 28.8853 140.808 29.1846C141.108 29.4839 141.276 29.8899 141.276 30.3132C141.276 30.7365 141.108 31.1425 140.808 31.4418C140.509 31.7411 140.103 31.9093 139.68 31.9093C139.473 31.9105 139.269 31.8694 139.079 31.7886C138.89 31.7077 138.719 31.5888 138.577 31.4393C138.435 31.2897 138.325 31.1126 138.254 30.9189C138.183 30.7252 138.153 30.5191 138.165 30.3132ZM138.788 26.6285L138.445 14.2588H140.939L140.577 26.6285H138.788Z" fill="#FB8A3C"/>
<path d="M144.087 30.3132C144.075 30.1068 144.105 29.9001 144.176 29.706C144.248 29.5119 144.358 29.3345 144.501 29.1849C144.643 29.0352 144.815 28.9164 145.006 28.836C145.196 28.7555 145.401 28.7151 145.608 28.7171C146.031 28.7171 146.437 28.8853 146.736 29.1846C147.036 29.4839 147.204 29.8899 147.204 30.3132C147.204 30.7365 147.036 31.1425 146.736 31.4418C146.437 31.7411 146.031 31.9093 145.608 31.9093C145.401 31.9114 145.196 31.8709 145.006 31.7904C144.815 31.71 144.643 31.5912 144.501 31.4415C144.358 31.2919 144.248 31.1145 144.176 30.9204C144.105 30.7263 144.075 30.5196 144.087 30.3132ZM144.71 26.6285L144.348 14.2588H146.842L146.487 26.6285H144.71Z" fill="#FB8A3C"/>
</svg>
