<svg width="202" height="202" viewBox="0 0 202 202" fill="none" xmlns="http://www.w3.org/2000/svg">
<g clip-path="url(#clip0_148_18204)">
<path d="M1 101C1 45.7715 45.7715 1 101 1C156.228 1 201 45.7715 201 101C201 156.228 156.228 201 101 201C45.7715 201 1 156.228 1 101Z" fill="#D8DBDF"/>
<path d="M106.027 225.112C118.253 226.518 141.405 209.514 147.834 191.491C148.256 190.261 144.637 178.527 140.878 164.123C138.63 155.34 136.346 145.538 134.906 136.439C134.625 134.577 79.9591 159.345 79.9591 159.345C79.9591 159.345 88.6017 177.543 91.0259 193.458C91.2015 194.793 91.2718 196.058 91.2366 197.252C91.2366 197.428 91.2366 197.639 91.2366 197.885C91.2366 205.157 92.923 223.637 106.027 225.112Z" fill="#FECCAA"/>
<path d="M91.2367 197.252C91.2367 197.428 91.2366 197.674 91.2717 197.885C93.0986 197.85 95.031 197.639 97.174 197.252C130.69 191.175 132.903 147.681 132.939 136.755C123.031 139.811 80.0295 159.345 80.0295 159.345C80.0295 159.345 88.672 177.578 91.0961 193.458C91.2718 194.793 91.342 196.023 91.2717 197.252H91.2367Z" fill="#263238"/>
<path d="M141.721 69.8984C147.729 90.4859 136.241 149.613 121.521 162.647C100.16 181.548 65.5198 182.989 49.5347 157.377C34.0414 132.574 50.413 55.7753 66.8197 43.9358C91.0258 26.5453 132.833 39.474 141.721 69.8633V69.8984Z" fill="#FECCAA"/>
<path d="M82.4887 105.557C82.4887 105.557 82.7698 105.803 82.7347 105.979C81.8564 109.949 81.5051 114.622 84.8778 116.624C84.9832 116.694 84.948 116.87 84.8074 116.835C80.5213 115.394 81.0483 109.176 82.5239 105.557H82.4887Z" fill="#263238"/>
<path d="M86.8451 102.044C93.3445 102.782 91.4122 115.711 85.4046 115.043C79.4673 114.376 81.3996 101.412 86.8451 102.044Z" fill="#263238"/>
<path d="M58.7744 102.466C58.7744 102.466 58.423 102.606 58.423 102.782C57.9663 106.822 56.7368 111.354 52.9074 112.127C52.802 112.127 52.7668 112.338 52.9074 112.338C57.4394 112.373 58.9852 106.33 58.7744 102.431V102.466Z" fill="#263238"/>
<path d="M55.8234 97.723C49.4293 96.2826 47.0052 109.141 52.9074 110.476C58.7394 111.811 61.1634 98.9175 55.8234 97.723Z" fill="#263238"/>
<path d="M92.8526 96.8799C91.1663 96.1772 89.6907 95.2287 88.1098 94.3504C86.2829 93.3667 84.7371 92.7694 83.7534 90.8723C83.2264 89.8534 83.7534 88.2373 84.7019 87.6401C86.9153 86.1997 89.4097 86.8672 91.6581 87.9563C94.0823 89.1508 95.628 90.6966 96.7522 93.1207C97.8413 95.5097 95.1011 97.8284 92.8878 96.8799H92.8526Z" fill="#263238"/>
<path d="M52.3804 86.1645C54.2073 86.1645 55.9287 85.8132 57.7205 85.6024C59.7581 85.3565 61.4093 85.3916 63.0605 83.9863C63.9388 83.2485 64.0442 81.527 63.4118 80.6136C61.9012 78.4706 59.3365 78.1544 56.8421 78.33C54.137 78.5408 52.1345 79.384 50.1671 81.246C48.2699 83.0377 49.9563 86.1996 52.3804 86.1645Z" fill="#263238"/>
<path d="M80.4861 143.43C79.397 144.238 78.2376 145.362 76.762 145.292C75.3567 145.186 73.8109 144.343 72.6164 143.641C72.5111 143.57 72.3354 143.676 72.4057 143.816C73.2137 145.503 75.2514 146.803 77.1837 146.767C79.0457 146.732 80.1699 145.292 80.8725 143.676C80.9779 143.465 80.6617 143.324 80.5212 143.43H80.4861Z" fill="#263238"/>
<path d="M78.0621 130.782C75.2867 133.944 71.7032 135.349 68.0494 135.49C66.3982 135.56 64.7118 135.385 63.0958 134.998C62.7796 134.928 62.4634 134.858 62.1823 134.752C61.9012 134.682 61.6202 134.612 61.3392 134.471C60.8824 134.331 60.6716 133.909 60.6716 133.452C60.6716 133.277 60.7068 133.171 60.777 133.031L60.8473 132.644C61.2337 129.553 62.2175 124.88 62.2175 124.88C60.9878 125.267 54.8748 127.023 55.191 125.407C58.0016 112.162 61.0932 97.4419 66.6792 84.8646C66.8549 84.443 67.4873 84.6538 67.3819 85.0754C65.2037 97.8986 60.7771 110.265 58.3881 123.123C60.3203 122.702 63.5173 121.859 65.1334 122.14C65.555 122.315 63.0255 131.098 62.9904 132.504C62.9904 132.504 62.9904 132.574 62.9904 132.644C68.0845 134.085 72.2301 133.101 77.781 130.361C78.0972 130.185 78.3782 130.501 78.0972 130.782H78.0621Z" fill="#263238"/>
<path d="M65.1333 133.698C65.1333 133.698 67.3115 137.809 70.8599 139.706C72.1598 140.408 73.6353 140.83 75.2514 140.654C78.589 140.303 79.116 137.352 78.9052 134.752C78.7295 132.609 78.062 130.677 78.062 130.677C78.062 130.677 72.7219 134.366 65.1685 133.698H65.1333Z" fill="#263238"/>
<path d="M70.8951 139.671C72.195 140.373 73.6705 140.795 75.2866 140.619C78.6242 140.268 79.1512 137.317 78.9404 134.717C75.4623 134.541 71.7032 136.368 70.9303 139.671H70.8951Z" fill="#FF98B9"/>
<path d="M119.518 104.503C116.461 92.418 124.753 73.2359 119.272 67.5093C107.432 55.0726 79.6781 74.9574 61.7959 73.6575C44.4406 72.3927 39.5221 60.7991 43.7731 46.9922C48.0241 33.1852 60.7067 24.6481 80.3807 23.278C100.757 21.8727 118.429 31.3935 127.915 38.5956C127.915 38.5956 124.085 31.2178 125.912 29.1802C127.704 27.1425 135.679 34.5554 138.033 37.6119C140.422 40.7386 141.616 46.2895 141.616 46.2895C141.616 46.2895 144.848 45.5869 149.591 46.0787C153.983 46.5354 159.288 50.4351 159.498 51.4891C159.744 52.543 153.35 52.8592 148.924 52.7187C148.924 52.7187 156.301 64.3123 155.388 73.6926C154.474 83.0377 136.381 126.426 132.833 126.637C128.266 126.883 120.748 109.422 119.483 104.503H119.518Z" fill="#263238"/>
<path d="M147.307 51.4891C147.307 51.4891 146.921 51.5945 147.061 51.7351C150.996 55.705 154.088 60.2019 155.388 65.7176C156.934 72.1117 155.95 78.8219 154.053 85.0403C150.329 97.1258 143.443 107.841 137.33 118.767C137.154 119.083 137.681 119.4 137.892 119.083C145.129 107.911 152.542 95.7205 155.95 82.7567C158.866 71.6901 157.285 58.5858 147.307 51.4891Z" fill="#263238"/>
<path d="M120.326 63.0125C115.302 61.8882 109.611 61.9234 104.517 62.8017C99.5278 63.6448 95.1011 66.3851 90.4988 68.4228C80.2402 72.99 69.1033 76.2924 57.7908 74.7114C57.6502 74.7114 57.6151 74.9223 57.7908 74.9223C68.0845 77.0302 78.5187 74.7466 88.1098 70.8821C92.958 68.9147 97.5955 65.9636 102.655 64.5934C108.381 63.0476 114.389 63.6097 120.221 63.961C120.818 63.9962 120.923 63.153 120.326 63.0476V63.0125Z" fill="#263238"/>
<path d="M117.621 32.7988C110.946 28.6884 103.533 25.7373 95.9443 23.6996C88.6719 21.7322 81.1185 20.5377 73.6002 21.1701C60.6013 22.2592 48.1294 29.4964 44.0892 42.4602C42.0516 49.0299 42.1569 56.4076 45.1431 62.6963C45.3539 63.1179 45.9863 62.8368 45.8107 62.4152C41.4543 50.4703 44.6162 36.6282 55.0856 28.864C66.3279 20.5377 81.1888 21.0296 94.1525 24.1563C102.303 26.1237 110.032 29.2856 117.586 32.9042C117.621 32.9042 117.691 32.834 117.621 32.834V32.7988Z" fill="#263238"/>
<path d="M124.015 118.697C124.015 118.697 137.997 99.9715 146.535 105.03C155.072 110.09 144.146 137.528 133.817 141.006C123.488 144.484 120.08 134.998 120.08 134.998L124.015 118.732V118.697Z" fill="#FECCAA"/>
<path d="M143.197 112.795C143.197 112.795 143.373 113.005 143.232 113.076C135.995 115.746 132.025 122.245 129.144 129.061C131.357 126.496 134.308 125.126 137.751 127.761C137.927 127.902 137.751 128.183 137.541 128.147C134.625 127.445 132.517 127.866 130.444 130.15C129.003 131.766 127.95 133.839 126.896 135.736C126.544 136.368 125.385 135.982 125.666 135.244L125.736 135.068C125.842 125.934 133.325 113.392 143.162 112.795H143.197Z" fill="#263238"/>
</g>
<path d="M101 0.5C45.4954 0.5 0.5 45.4954 0.5 101C0.5 156.505 45.4954 201.5 101 201.5C156.505 201.5 201.5 156.505 201.5 101C201.5 45.4954 156.505 0.5 101 0.5Z" stroke="#383A42"/>
<defs>
<clipPath id="clip0_148_18204">
<path d="M1 101C1 45.7715 45.7715 1 101 1C156.228 1 201 45.7715 201 101C201 156.228 156.228 201 101 201C45.7715 201 1 156.228 1 101Z" fill="white"/>
</clipPath>
</defs>
</svg>
