<svg width="289" height="162" viewBox="0 0 289 162" fill="none" xmlns="http://www.w3.org/2000/svg">
<path d="M0.533325 91.845L36.5947 91.694L72.65 91.6456L144.767 91.543L216.883 91.6456L252.939 91.694L289 91.845L252.939 91.99L216.883 92.0443L144.767 92.147L72.65 92.0443L36.5947 91.99L0.533325 91.845Z" fill="#263238"/>
<path d="M241.317 161.485C262.601 161.485 279.855 158.659 279.855 155.173C279.855 151.686 262.601 148.86 241.317 148.86C220.033 148.86 202.779 151.686 202.779 155.173C202.779 158.659 220.033 161.485 241.317 161.485Z" fill="#EBEBEB"/>
<path d="M141.964 145.388C210.109 145.388 265.352 138.51 265.352 130.027C265.352 121.543 210.109 114.666 141.964 114.666C73.8187 114.666 18.5761 121.543 18.5761 130.027C18.5761 138.51 73.8187 145.388 141.964 145.388Z" fill="#EBEBEB"/>
<path d="M205.074 101.613H83.9698L121.994 12.8545H243.105L205.074 101.613Z" fill="#263238"/>
<path d="M122.888 14.7451H242.295L205.074 101.613H86.1202L122.888 14.7451Z" fill="#EBEBEB"/>
<path d="M122.888 14.7451C123.371 23.1141 122.411 31.5038 120.049 39.5471C116.153 52.2924 96.848 77.8193 93.0908 95.0345L86.1202 101.613H205.074L242.295 14.7451H122.888Z" fill="#DBDBDB"/>
<path d="M122.888 14.7451C122.458 21.8789 121.362 28.9569 119.614 35.8866C118.735 39.3637 117.502 42.7418 115.936 45.9681C114.377 49.1937 112.674 52.3287 110.958 55.4636C107.485 61.6974 103.976 67.913 100.756 74.2735C99.1312 77.4508 97.6332 80.6824 96.2258 83.9382C94.8311 87.2211 93.6073 90.574 92.5593 93.9835C93.4986 90.5363 94.6299 87.1443 95.9479 83.8235C97.307 80.5193 98.7628 77.2575 100.339 74.05C103.48 67.6291 106.984 61.4074 110.433 55.1556C112.16 52.0327 113.876 48.9098 115.44 45.7084C116.999 42.5151 118.247 39.1795 119.167 35.7477C120.112 32.3106 120.876 28.8266 121.457 25.3098C122.067 21.8366 122.532 18.2969 122.888 14.7451Z" fill="#DBDBDB"/>
<path d="M121.668 19.8975C120.76 26.7703 119.03 33.5093 116.516 39.9698C115.254 43.1975 113.817 46.3533 112.209 49.4231C110.638 52.5097 109.007 55.5602 107.376 58.6166C104.109 64.7054 100.949 70.8545 98.1889 77.1789C97.4762 78.7554 96.8419 80.3622 96.1775 81.9568C95.513 83.5515 94.9211 85.1703 94.3654 86.7892C93.1573 90.0329 92.227 93.3551 91.2968 96.6894C92.8641 89.942 95.0249 83.3463 97.754 76.9795C100.436 70.5948 103.607 64.4275 106.815 58.3146C108.446 55.2944 110.095 52.2258 111.647 49.1573C113.199 46.0888 114.728 42.9779 116.014 39.7826C117.299 36.5796 118.408 33.3088 119.336 29.985C120.318 26.6729 121.096 23.3042 121.668 19.8975Z" fill="#DBDBDB"/>
<path d="M160.671 106.535H276.986L237.614 14.7207H122.888C122.888 14.7207 122.435 28.6137 130.046 48.7283C137.216 67.6953 150.481 79.0815 160.671 106.535Z" fill="white"/>
<path d="M159.989 106.535C158.333 102.67 156.533 98.8762 154.522 95.1915C152.511 91.5069 150.33 87.943 148.059 84.3852C143.528 77.324 138.448 70.6191 134.033 63.4189C131.808 59.8163 129.86 56.0504 128.204 52.1535C126.624 48.2122 125.478 44.1108 124.785 39.9216C124.027 35.7703 123.503 31.5797 123.214 27.3696C122.891 23.1697 122.783 18.9561 122.888 14.7451C123.404 23.1189 124.413 31.455 125.908 39.7102C126.307 41.764 126.796 43.7935 127.322 45.811C127.837 47.824 128.476 49.803 129.237 51.7367C130.849 55.5899 132.751 59.3154 134.927 62.8813C139.246 70.0573 144.187 76.883 148.633 84.0228C153.138 91.1418 156.941 98.6814 159.989 106.535Z" fill="white"/>
<path d="M124.024 17.3965C124.592 20.9543 125.31 24.4879 126.156 27.9854C127.002 31.4828 127.968 34.956 129.062 38.3749C131.197 45.2459 134.011 51.8869 137.464 58.1996C139.212 61.3446 140.983 64.4796 142.779 67.6045L148.186 76.9611C149.998 80.0901 151.737 83.2371 153.38 86.4507C155.023 89.6642 156.521 92.9441 157.862 96.2905C154.898 89.7257 151.533 83.3491 147.787 77.1967C144.108 70.9993 140.46 64.7776 136.914 58.4714C133.463 52.1167 130.678 45.4227 128.603 38.4957C126.483 31.6045 124.952 24.5462 124.024 17.3965Z" fill="#EBEBEB"/>
<path d="M163.069 108.426H284.174L243.183 12.8545H122.073L163.069 108.426Z" fill="#37474F"/>
<path d="M241.238 108.426H267.883L226.892 12.8545H200.248L241.238 108.426Z" fill="#455A64"/>
<path d="M175.663 108.426H185.31L144.32 12.8545H134.667L175.663 108.426Z" fill="#455A64"/>
<path d="M122.888 14.745H243.993L245.279 11.7188H120.732L122.888 14.745Z" fill="#37474F"/>
<path d="M227.937 134.207H222.35V145.484H227.937V134.207Z" fill="#37474F"/>
<path d="M232.341 134.207H230.009V145.484H232.341V134.207Z" fill="#37474F"/>
<path d="M274.431 134.207H217.264V145.484H274.431V134.207Z" fill="#F97316"/>
<path d="M269.236 134.207H263.648V145.484H269.236V134.207Z" fill="#37474F"/>
<path d="M247.859 125.792H208.203V134.206H247.859V125.792Z" fill="#455A64"/>
<path d="M264.965 125.792H247.859V134.206H264.965V125.792Z" fill="#455A64"/>
<path d="M247.859 126.662H208.203V133.331H247.859V126.662Z" fill="white"/>
<path d="M210.77 128.033C213.859 127.993 216.95 127.961 220.043 127.936L229.315 127.906L238.587 127.936C241.675 127.936 244.766 127.969 247.859 128.033C244.766 128.081 241.675 128.116 238.587 128.136L229.315 128.166L220.043 128.136C216.95 128.12 213.859 128.085 210.77 128.033Z" fill="#DBDBDB"/>
<path d="M210.77 129.344C213.859 129.295 216.95 129.263 220.043 129.247L229.315 129.217L238.587 129.247C241.675 129.247 244.766 129.279 247.859 129.344C244.766 129.392 241.675 129.424 238.587 129.44L229.333 129.47L220.061 129.44C216.956 129.424 213.859 129.392 210.77 129.344Z" fill="#DBDBDB"/>
<path d="M210.77 130.654C213.859 130.606 216.95 130.572 220.043 130.552H229.315H238.587C241.675 130.552 244.766 130.586 247.859 130.654C244.766 130.699 241.675 130.731 238.587 130.751L229.333 130.799L220.061 130.769C216.956 130.741 213.859 130.703 210.77 130.654Z" fill="#DBDBDB"/>
<path d="M210.77 131.96C213.859 131.912 216.95 131.879 220.043 131.863L229.315 131.833L238.587 131.863C241.675 131.863 244.766 131.895 247.859 131.96C244.766 132.008 241.675 132.042 238.587 132.063H229.315L220.043 132.032C216.95 132.036 213.859 132.012 210.77 131.96Z" fill="#DBDBDB"/>
<path d="M228.227 157.052H261.45V145.484H228.227V157.052Z" fill="#263238"/>
<path d="M213.887 157.052H228.221V145.484H213.887V157.052Z" fill="#263238"/>
<path d="M228.227 155.85H261.45V146.686H228.227V155.85Z" fill="white"/>
<path d="M259.293 153.965C256.708 154.013 254.119 154.045 251.525 154.061L243.757 154.092L235.977 154.061C233.392 154.061 230.803 154.029 228.209 153.965C230.798 153.916 233.388 153.884 235.977 153.868L243.745 153.838L251.513 153.868C254.111 153.88 256.704 153.912 259.293 153.965Z" fill="#DBDBDB"/>
<path d="M259.293 152.165C256.708 152.213 254.119 152.248 251.525 152.268H243.757H235.989C233.404 152.268 230.815 152.233 228.221 152.165C230.811 152.117 233.4 152.084 235.989 152.068H243.757H251.525C254.115 152.088 256.704 152.121 259.293 152.165Z" fill="#DBDBDB"/>
<path d="M259.293 150.371C256.708 150.415 254.119 150.448 251.525 150.468L243.757 150.498L235.977 150.468C233.392 150.468 230.803 150.436 228.209 150.371C230.798 150.323 233.388 150.289 235.977 150.268L243.745 150.238L251.513 150.268C254.111 150.289 256.704 150.323 259.293 150.371Z" fill="#DBDBDB"/>
<path d="M259.293 148.57C256.708 148.619 254.119 148.651 251.525 148.667L243.757 148.697L235.977 148.667C233.392 148.667 230.803 148.635 228.209 148.57C230.798 148.522 233.388 148.488 235.977 148.468H243.745L251.513 148.498C254.111 148.494 256.704 148.518 259.293 148.57Z" fill="#DBDBDB"/>
<path d="M267.72 117.939H215.476V125.822H267.72V117.939Z" fill="#F97316"/>
<path opacity="0.2" d="M267.72 117.939H215.476V125.822H267.72V117.939Z" fill="black"/>
<path d="M240.483 119.553H220.387V124.282H240.483V119.553Z" fill="white"/>
<path d="M265.69 104.523H226.004V117.909H265.69V104.523Z" fill="#F97316"/>
<path d="M261.48 104.523H257.783V117.909H261.48V104.523Z" fill="#263238"/>
<path d="M255.355 104.523H253.923V117.909H255.355V104.523Z" fill="#263238"/>
<path d="M69.4486 139.903L23.1245 127.701L1.57227 139.257L46.8876 154.358L69.4486 139.903Z" fill="#F97316"/>
<path d="M66.5794 139.692L45.9211 152.981L3.45087 138.852L24.2903 127.78C24.2903 127.78 36.9753 129.453 37.5793 129.641C38.1833 129.828 43.7707 132.148 43.7707 132.148C43.7707 132.148 51.6233 133.519 52.173 133.7C52.7226 133.881 66.5794 139.692 66.5794 139.692Z" fill="white"/>
<path d="M43.7828 132.153C42.172 133.325 40.5371 134.483 38.878 135.627L33.9188 139.027L28.9233 142.374C27.2562 143.477 25.5769 144.568 23.8856 145.648C25.4964 144.476 27.1334 143.32 28.7965 142.18L33.7496 138.78L38.7451 135.433C40.4122 134.328 42.0794 133.216 43.7828 132.153Z" fill="#DBDBDB"/>
<path d="M62.0128 139.571C60.5027 138.979 58.9986 138.375 57.5006 137.759L53.0186 135.886L51.8951 135.415L51.3454 135.198C51.1521 135.143 50.9528 135.107 50.7414 135.059L48.3796 134.503C46.8091 134.129 45.2385 133.73 43.668 133.295C45.2788 133.597 46.8695 133.917 48.44 134.255L50.8199 134.769C51.0192 134.817 51.2125 134.847 51.4239 134.908C51.6354 134.968 51.8166 135.053 52.028 135.125L53.1575 135.584C54.6495 136.225 56.1355 136.859 57.6154 137.517C59.0953 138.176 60.5631 138.876 62.0128 139.571Z" fill="#DBDBDB"/>
<path d="M60.5873 140.423C59.0852 139.831 57.5832 139.227 56.0811 138.61L51.5931 136.744L50.4756 136.273C50.2883 136.2 50.1011 136.116 49.9199 136.055C49.7387 135.995 49.5333 135.959 49.3158 135.91L46.954 135.355C45.3835 134.98 43.813 134.588 42.2425 134.177C43.8372 134.479 45.4258 134.781 47.0144 135.131L49.3944 135.651C49.5877 135.693 49.787 135.729 49.9984 135.784C50.2098 135.838 50.385 135.928 50.6024 136.007L51.732 136.466C53.218 137.1 54.7099 137.735 56.1898 138.399C57.6698 139.063 59.1255 139.728 60.5873 140.423Z" fill="#DBDBDB"/>
<path d="M59.1496 141.268C57.6758 140.664 56.2019 140.102 54.7401 139.492L50.3608 137.68L49.2675 137.221C48.9127 137.058 48.545 136.925 48.1681 136.822L45.8607 136.236C44.3184 135.874 42.7821 135.493 41.2518 135.095C42.8103 135.381 44.3647 135.685 45.915 136.007C46.6882 136.164 47.4614 136.345 48.2346 136.52C48.625 136.623 49.0067 136.756 49.3762 136.919L50.4756 137.372C51.9313 137.976 53.3871 138.616 54.8307 139.269C56.2744 139.921 57.718 140.592 59.1496 141.268Z" fill="#DBDBDB"/>
<path d="M57.712 142.114C56.2583 141.546 54.8106 140.964 53.369 140.368L49.044 138.556C48.3312 138.266 47.6064 137.922 46.8936 137.686L44.6224 137.142C43.1063 136.774 41.6022 136.399 40.08 136.007C41.6143 136.285 43.1465 136.585 44.6768 136.907C45.4439 137.064 46.199 137.233 46.9661 137.42C47.7332 137.608 48.4339 137.982 49.1588 138.278C50.5964 138.882 52.034 139.486 53.4535 140.151C54.873 140.815 56.2986 141.449 57.712 142.114Z" fill="#DBDBDB"/>
<path d="M56.2684 142.965C54.8267 142.397 53.3851 141.817 51.9434 141.225L47.6366 139.413C46.9238 139.123 46.199 138.809 45.4923 138.537C44.7855 138.266 43.9822 138.181 43.2331 137.994C41.717 137.631 40.2129 137.257 38.7028 136.864C40.2371 137.142 41.7653 137.44 43.2875 137.758C44.0486 137.915 44.8036 138.084 45.5647 138.272C46.3258 138.459 47.0265 138.839 47.7514 139.135C49.183 139.739 50.6145 140.344 52.034 140.996C53.4535 141.648 54.867 142.276 56.2684 142.965Z" fill="#DBDBDB"/>
<path d="M54.8307 143.812C53.3871 143.244 51.9494 142.67 50.5179 142.078L46.2231 140.266C45.5103 139.976 44.7915 139.662 44.0908 139.39C43.3902 139.118 42.5868 139.034 41.8378 138.846C40.3277 138.484 38.8236 138.107 37.3256 137.717C38.8477 137.995 40.3679 138.293 41.8861 138.611C42.6472 138.768 43.4022 138.937 44.1633 139.124C44.9244 139.311 45.6191 139.692 46.3379 139.988C47.7634 140.592 49.189 141.196 50.6024 141.848C52.0159 142.501 53.4293 143.147 54.8307 143.812Z" fill="#DBDBDB"/>
<path d="M53.3931 144.693C51.9675 144.131 50.548 143.564 49.1648 142.978L44.9365 141.214C44.2358 140.924 43.5291 140.61 42.8284 140.338C42.1277 140.066 41.3545 139.976 40.6176 139.788C39.1316 139.432 37.6457 139.064 36.1658 138.671C37.6678 138.941 39.1699 139.235 40.6719 139.553C41.4209 139.716 42.1579 139.861 42.919 140.072C43.6801 140.284 44.3445 140.64 45.0573 140.942C46.4587 141.546 47.8661 142.15 49.2856 142.754C50.7051 143.358 52.0098 144.005 53.3931 144.693Z" fill="#DBDBDB"/>
<path d="M51.9555 145.508C50.53 144.947 49.1044 144.379 47.691 143.793L43.4627 142.029C42.7559 141.745 42.0492 141.425 41.3545 141.159C40.6599 140.894 39.8746 140.791 39.1377 140.61C37.6518 140.247 36.1658 139.879 34.6859 139.492C36.196 139.758 37.7061 140.054 39.1921 140.368C39.9471 140.537 40.6841 140.676 41.4451 140.894C42.2062 141.111 42.8707 141.455 43.5774 141.757C44.9848 142.361 46.3923 142.965 47.8057 143.569C49.2192 144.174 50.5662 144.856 51.9555 145.508Z" fill="#DBDBDB"/>
<path d="M50.7595 146.505C49.3158 145.901 47.8722 145.351 46.4406 144.753L42.1458 142.941L40.0015 142.047C39.2948 141.812 38.5095 141.667 37.7605 141.479C36.2504 141.111 34.7403 140.742 33.2422 140.344C34.7705 140.616 36.2987 140.918 37.8149 141.238C38.5759 141.413 39.325 141.54 40.0981 141.781C40.8713 142.023 41.5478 142.385 42.2606 142.669C43.6861 143.273 45.1117 143.877 46.5251 144.536C47.9386 145.194 49.3279 145.816 50.7595 146.505Z" fill="#DBDBDB"/>
<path d="M49.3279 147.363C47.8903 146.789 46.4527 146.209 45.0211 145.605L40.7445 143.793L38.5941 142.881C37.8934 142.639 37.1081 142.5 36.3652 142.313C34.8611 141.945 33.345 141.576 31.853 141.184C33.3792 141.453 34.9014 141.749 36.4195 142.072C37.1806 142.247 37.9236 142.368 38.6968 142.621C39.4699 142.875 40.1344 143.225 40.8472 143.509C42.2667 144.113 43.6922 144.717 45.0755 145.388C46.4587 146.058 47.9145 146.699 49.3279 147.363Z" fill="#DBDBDB"/>
<path d="M47.8722 148.318C46.4768 147.75 45.0815 147.17 43.6982 146.578C42.315 145.986 40.9378 145.37 39.5485 144.766L37.4766 143.872C37.1439 143.713 36.7929 143.595 36.4316 143.522L35.3323 143.256C33.8705 142.899 32.4087 142.537 30.9529 142.15C32.4389 142.404 33.9128 142.694 35.3927 143.008L36.492 143.256C36.6793 143.298 36.8605 143.334 37.0477 143.395C37.235 143.455 37.4102 143.534 37.5914 143.606C38.286 143.89 38.9807 144.21 39.6693 144.494C41.0405 145.098 42.4237 145.702 43.7889 146.355C45.154 147.007 46.5131 147.653 47.8722 148.318Z" fill="#DBDBDB"/>
<path d="M46.4346 149.096C45.0151 148.583 43.6016 148.063 42.2063 147.52C40.8109 146.976 39.3975 146.426 37.978 145.889C37.2712 145.629 36.5645 145.327 35.8699 145.092L33.7014 144.451C32.2577 144.01 30.814 143.563 29.3824 143.08C30.8503 143.436 32.3121 143.817 33.7678 144.21L35.9484 144.814C36.6853 145.055 37.3739 145.333 38.0807 145.611C39.482 146.173 40.8895 146.722 42.2788 147.308C43.6681 147.894 45.0513 148.492 46.4346 149.096Z" fill="#DBDBDB"/>
<path d="M25.6313 142.222C24.2782 141.751 22.9494 141.244 21.6205 140.718L20.6298 140.332C20.301 140.205 19.964 140.1 19.6211 140.018L17.5613 139.45L13.4357 138.29C12.0645 137.91 10.6994 137.493 9.32819 137.082C10.7114 137.426 12.1007 137.753 13.484 138.109L17.6277 139.184L19.6936 139.728C20.0455 139.813 20.3923 139.918 20.7325 140.042C21.0708 140.169 21.397 140.308 21.7292 140.441C23.052 140.996 24.3507 141.582 25.6313 142.222Z" fill="#DBDBDB"/>
<path d="M27.0267 141.129C25.6978 140.727 24.381 140.308 23.0762 139.873C22.4239 139.661 21.7715 139.42 21.1191 139.233L19.1258 138.653L15.1451 137.505C13.8162 137.124 12.4994 136.708 11.1766 136.297C12.5175 136.641 13.8585 136.961 15.1935 137.318L19.1922 138.381C20.5371 138.714 21.8637 139.118 23.1668 139.589C24.4716 140.072 25.7703 140.586 27.0267 141.129Z" fill="#DBDBDB"/>
<path d="M28.3737 140.157C27.0568 139.77 25.7461 139.366 24.4474 138.919L22.5024 138.272L20.5151 137.771L16.5344 136.744C15.2055 136.406 13.8827 136.031 12.5598 135.675C13.9008 135.971 15.2418 136.279 16.5767 136.569L20.5815 137.505L22.5869 137.994C23.2514 138.188 23.8917 138.429 24.538 138.659C25.8306 139.118 27.1052 139.625 28.3737 140.157Z" fill="#DBDBDB"/>
<path d="M29.5274 139.438C28.2226 138.979 26.9542 138.429 25.6796 137.922C25.372 137.784 25.0526 137.675 24.7252 137.596L23.7165 137.366L21.699 136.919C19.013 136.319 16.327 135.699 13.6411 135.059C16.3512 135.566 19.0553 136.102 21.7533 136.665L23.7769 137.094L24.7856 137.318C25.1297 137.394 25.4655 137.503 25.7884 137.644C27.0643 138.178 28.3122 138.777 29.5274 139.438Z" fill="#DBDBDB"/>
<path d="M30.7898 138.556C29.4851 138.103 28.2166 137.553 26.9421 137.046C26.6346 136.906 26.3152 136.795 25.9877 136.714L24.9789 136.49L22.9614 136.043C20.2714 135.439 17.5855 134.819 14.9035 134.183C17.6177 134.69 20.3218 135.226 23.0158 135.789L25.0393 136.218L26.0541 136.436C26.3979 136.515 26.7335 136.627 27.0568 136.768C28.3313 137.299 29.5773 137.896 30.7898 138.556Z" fill="#DBDBDB"/>
<path d="M32.0523 137.68C30.7476 137.221 29.4791 136.671 28.2045 136.164C27.8969 136.027 27.5775 135.917 27.2501 135.838L26.2414 135.632L24.2239 135.185C21.5379 134.585 18.8519 133.967 16.166 133.331C18.8801 133.838 21.5842 134.372 24.2783 134.932L26.3018 135.367L27.3166 135.584C27.6611 135.661 27.997 135.772 28.3193 135.916C29.5943 136.437 30.8404 137.026 32.0523 137.68Z" fill="#DBDBDB"/>
<path d="M33.3147 136.804C32.01 136.345 30.7415 135.795 29.467 135.288C29.1594 135.151 28.8399 135.041 28.5126 134.962L27.5038 134.732L25.4863 134.285C22.7983 133.681 20.1104 133.077 17.4284 132.425C20.1426 132.932 22.8467 133.468 25.5407 134.032L27.5642 134.46L28.579 134.684C28.9236 134.758 29.2596 134.867 29.5817 135.01C30.8562 135.543 32.1022 136.142 33.3147 136.804Z" fill="#DBDBDB"/>
<path d="M34.9457 136.098C33.6409 135.639 32.3724 135.089 31.0979 134.582C30.79 134.445 30.4706 134.336 30.1435 134.256L29.1348 134.026L27.1173 133.579C24.4313 132.979 21.7453 132.361 19.0593 131.725C21.7735 132.232 24.4776 132.766 27.1716 133.325L29.1952 133.76L30.2039 133.978C30.5479 134.054 30.8838 134.163 31.2066 134.304C32.4826 134.838 33.7305 135.437 34.9457 136.098Z" fill="#DBDBDB"/>
<path d="M36.5282 135.397C35.2235 134.938 33.9611 134.388 32.6805 133.881C32.3718 133.746 32.0526 133.637 31.7261 133.554L30.7173 133.331L28.6998 132.884C26.0098 132.28 23.3239 131.66 20.6419 131.023C23.3561 131.531 26.0602 132.066 28.7542 132.63L30.7777 133.059L31.7925 133.277C32.1365 133.355 32.4723 133.467 32.7952 133.609C34.0708 134.137 35.3169 134.734 36.5282 135.397Z" fill="#DBDBDB"/>
<path d="M37.7907 134.52C36.486 134.061 35.2235 133.512 33.949 133.01C33.6441 132.871 33.3265 132.762 33.0006 132.684L31.9919 132.473L29.9985 132.062C27.3045 131.506 24.6105 130.945 21.9225 130.353C24.6367 130.808 27.3468 131.293 30.0529 131.808L32.0764 132.201L33.0912 132.406C33.4358 132.48 33.7718 132.59 34.0939 132.732C35.3567 133.263 36.5907 133.86 37.7907 134.52Z" fill="#DBDBDB"/>
<path d="M39.0592 133.645C37.7605 133.186 36.498 132.637 35.2235 132.135C34.9207 131.996 34.6051 131.887 34.2812 131.809L33.2664 131.616L31.2429 131.247C28.5428 130.746 25.8367 130.239 23.1426 129.707C25.8608 130.11 28.575 130.537 31.2851 130.988L33.3208 131.344L34.3356 131.531C34.6804 131.604 35.0165 131.714 35.3383 131.857C36.6093 132.387 37.8513 132.984 39.0592 133.645Z" fill="#DBDBDB"/>
<path d="M40.3156 132.763C39.0169 132.31 37.7605 131.76 36.492 131.259C36.1894 131.121 35.8737 131.014 35.5497 130.939L34.5349 130.8L32.5053 130.492C29.7931 130.087 27.0689 129.676 24.3749 129.235C27.1011 129.537 29.8233 129.872 32.5415 130.238L34.5772 130.522L35.598 130.685C35.9445 130.749 36.2814 130.856 36.6007 131.005C37.8686 131.526 39.1086 132.113 40.3156 132.763Z" fill="#DBDBDB"/>
<path d="M44.9667 150.316C43.517 149.837 42.0734 149.346 40.6357 148.843L36.3289 147.308C35.6101 147.061 34.8913 146.777 34.1846 146.541L32.004 145.847C30.5482 145.375 29.1046 144.892 27.6669 144.385C29.1408 144.787 30.6086 145.19 32.0704 145.593L34.2631 146.251C35 146.493 35.7128 146.747 36.4256 147.012C37.8571 147.544 39.2948 148.063 40.7143 148.619C42.1338 149.175 43.5533 149.743 44.9667 150.316Z" fill="#DBDBDB"/>
<path d="M24.5923 143.292C23.1245 142.845 21.6688 142.386 20.213 141.909L15.8579 140.465L13.6894 139.734L11.4846 139.088C10.0228 138.647 8.56103 138.194 7.10529 137.717C8.59123 138.073 10.0711 138.46 11.551 138.852L13.7618 139.456C14.5048 139.686 15.2236 139.922 15.9545 140.175C17.3982 140.677 18.8479 141.166 20.2855 141.691C21.7231 142.217 23.1607 142.748 24.5923 143.292Z" fill="#DBDBDB"/>
<path d="M249.206 60.0786C247.998 59.1846 208.294 46.8802 206.488 47.3635C206.288 47.4178 205.884 49.2058 204.072 53.6334C203.987 53.8388 185.111 76.726 185.111 76.726L210.946 90.3592L225.708 69.5741C225.708 69.5741 244.156 66.0767 246.083 65.3458C248.01 64.6149 250.474 60.9726 249.206 60.0786Z" fill="#FACFA4"/>
<path d="M249.206 60.0786C247.998 59.1846 208.294 46.8802 206.488 47.3635C206.288 47.4178 205.884 49.2058 204.072 53.6334C203.987 53.8388 201.402 56.8409 200.139 58.4658C201.782 59.8792 217.657 71.0661 221.988 74.7749L225.69 69.556C225.69 69.556 244.138 66.0586 246.065 65.3277C247.992 64.5968 250.474 60.9726 249.206 60.0786Z" fill="#F97316"/>
<path d="M214.044 51.2171C213.843 51.6704 213.585 52.0965 213.277 52.4856C212.672 53.2583 211.894 53.8789 211.006 54.2977C210.101 54.7183 209.102 54.8992 208.107 54.8232C207.12 54.7251 206.165 54.4205 205.304 53.9292C205.256 53.9292 205.304 53.8265 205.346 53.8567C206.204 54.2737 207.148 54.4818 208.101 54.4639C209.054 54.4461 209.99 54.2028 210.831 53.7541C211.634 53.3383 212.331 52.743 212.866 52.0144C213.125 51.6579 213.346 51.2753 213.525 50.8728C213.618 50.6774 213.697 50.4755 213.76 50.2687C213.827 50.0573 213.845 49.8821 214.05 49.7613C214.099 49.7349 214.155 49.7283 214.208 49.743C214.261 49.7577 214.306 49.7924 214.334 49.8399C214.564 50.2023 214.189 50.8909 214.044 51.2171Z" fill="white"/>
<path d="M240.858 66.5234C239.986 66.1974 239.236 65.6085 238.713 64.8382C238.13 64.0558 237.647 63.2035 237.276 62.3012C236.902 61.4192 236.64 60.4938 236.497 59.5468C236.43 59.0862 236.388 58.6224 236.37 58.1574C236.328 57.6827 236.356 57.2044 236.454 56.738C236.459 56.7201 236.47 56.7043 236.485 56.6931C236.499 56.6819 236.517 56.6758 236.536 56.6758C236.554 56.6758 236.572 56.6819 236.587 56.6931C236.602 56.7043 236.613 56.7201 236.617 56.738C236.702 57.1427 236.684 57.5836 236.732 57.9944C236.781 58.4589 236.853 58.9206 236.95 59.3776C237.135 60.266 237.402 61.1354 237.747 61.975C238.378 63.6758 239.517 65.1414 241.009 66.1731C241.047 66.1978 241.076 66.2354 241.089 66.2793C241.103 66.3231 241.1 66.3703 241.082 66.4124C241.064 66.4545 241.031 66.4888 240.99 66.5091C240.949 66.5295 240.902 66.5345 240.858 66.5234Z" fill="white"/>
<path d="M222.006 69.9915C217.173 66.5122 212.383 62.9967 207.509 59.5657C206.131 58.5932 204.766 57.6026 203.377 56.6542C203.329 56.624 203.377 56.5576 203.425 56.5878C208.532 59.6552 213.469 62.9985 218.212 66.6028C219.553 67.6357 220.852 68.7169 222.145 69.8042C222.161 69.825 222.17 69.8507 222.17 69.8772C222.171 69.9037 222.162 69.9296 222.147 69.9509C222.131 69.9722 222.109 69.9878 222.083 69.9951C222.058 70.0024 222.03 70.0011 222.006 69.9915Z" fill="white"/>
<path d="M203.836 57.4269C203.82 57.4627 203.797 57.4954 203.77 57.5235L203.661 57.596L203.449 57.735C203.304 57.8316 203.153 57.9282 203.002 58.0128C202.7 58.1819 202.398 58.339 202.084 58.49C202.042 58.49 202 58.4417 202.042 58.4175C202.332 58.2363 202.616 58.0491 202.9 57.8558L203.31 57.5719L203.528 57.4208C203.594 57.3673 203.67 57.3282 203.751 57.3061C203.766 57.3046 203.781 57.3071 203.795 57.3134C203.809 57.3197 203.82 57.3294 203.829 57.3417C203.838 57.354 203.843 57.3684 203.844 57.3834C203.845 57.3983 203.843 57.4134 203.836 57.4269Z" fill="white"/>
<path d="M206.089 59.0818C206.074 59.1199 206.049 59.1532 206.017 59.1784L205.908 59.2569L205.703 59.3959C205.552 59.4925 205.407 59.5892 205.25 59.6737C204.954 59.8429 204.646 59.9999 204.337 60.1509C204.289 60.1509 204.253 60.1026 204.295 60.0784C204.585 59.8972 204.869 59.7039 205.147 59.5106L205.564 59.2328L205.781 59.0818C205.845 59.026 205.922 58.9866 206.005 58.967C206.019 58.966 206.033 58.9687 206.046 58.9747C206.059 58.9806 206.07 58.9898 206.078 59.0012C206.087 59.0126 206.092 59.026 206.094 59.0401C206.096 59.0542 206.094 59.0685 206.089 59.0818Z" fill="white"/>
<path d="M208.336 60.7306C208.321 60.7672 208.298 60.8002 208.27 60.8273L208.161 60.8998L207.95 61.0387C207.805 61.1414 207.654 61.232 207.503 61.3226C207.201 61.4917 206.899 61.6488 206.584 61.7937C206.542 61.7937 206.5 61.7515 206.542 61.7213C206.832 61.5461 207.146 61.3528 207.4 61.1595C207.533 61.0628 207.672 60.9722 207.811 60.8816L208.028 60.7306C208.091 60.6726 208.168 60.6329 208.252 60.6159C208.266 60.6128 208.281 60.6141 208.295 60.6195C208.309 60.6249 208.322 60.6341 208.331 60.6462C208.339 60.6583 208.345 60.6726 208.346 60.6876C208.347 60.7026 208.343 60.7175 208.336 60.7306Z" fill="white"/>
<path d="M210.607 62.404C210.591 62.4412 210.566 62.4743 210.535 62.5006L210.426 62.5731L210.221 62.7121C210.07 62.8087 209.925 62.9054 209.768 62.9899C209.472 63.1591 209.164 63.3161 208.856 63.4671C208.846 63.4712 208.836 63.4716 208.826 63.4684C208.816 63.4652 208.808 63.4585 208.803 63.4496C208.797 63.4407 208.796 63.4302 208.798 63.42C208.8 63.4099 208.805 63.4009 208.813 63.3946C209.103 63.2134 209.387 63.0262 209.665 62.8329L210.082 62.549L210.299 62.398C210.365 62.3445 210.441 62.3054 210.523 62.2832C210.537 62.2833 210.551 62.2869 210.564 62.2936C210.577 62.3004 210.588 62.31 210.596 62.3218C210.604 62.3337 210.61 62.3473 210.612 62.3616C210.614 62.3759 210.612 62.3904 210.607 62.404Z" fill="white"/>
<path d="M212.842 64.059C212.823 64.0946 212.799 64.1272 212.77 64.1556L212.661 64.2341L212.45 64.3731C212.305 64.4697 212.154 64.5664 212.003 64.6509C211.701 64.8201 211.399 64.9771 211.085 65.1281C211.042 65.1281 211 65.0798 211.042 65.0556C211.332 64.8744 211.616 64.6872 211.9 64.4878L212.311 64.21L212.528 64.059C212.592 64.0032 212.669 63.9638 212.752 63.9442C212.766 63.9421 212.781 63.9439 212.795 63.9494C212.809 63.9549 212.821 63.9639 212.83 63.9755C212.839 63.9871 212.845 64.001 212.847 64.0156C212.849 64.0302 212.848 64.0452 212.842 64.059Z" fill="white"/>
<path d="M215.089 65.7204C215.074 65.7585 215.049 65.7919 215.017 65.8171L214.908 65.8896L214.703 66.0345L214.25 66.3124C213.954 66.4815 213.646 66.6386 213.338 66.7896C213.328 66.7905 213.319 66.7886 213.31 66.7841C213.302 66.7797 213.295 66.7728 213.29 66.7644C213.286 66.756 213.284 66.7465 213.285 66.737C213.286 66.7275 213.289 66.7185 213.295 66.711C213.585 66.5359 213.869 66.3426 214.147 66.1493L214.564 65.8714L214.781 65.7204C214.844 65.6624 214.921 65.6227 215.005 65.6057C215.019 65.6047 215.033 65.6073 215.046 65.6133C215.059 65.6193 215.07 65.6284 215.079 65.6399C215.087 65.6513 215.092 65.6647 215.094 65.6787C215.096 65.6928 215.094 65.7072 215.089 65.7204Z" fill="white"/>
<path d="M217.342 67.3754C217.322 67.4099 217.297 67.4423 217.27 67.472L217.161 67.5445L216.95 67.6835C216.805 67.7801 216.654 67.8767 216.503 67.9613C216.201 68.1365 215.899 68.2875 215.585 68.4385C215.542 68.4385 215.5 68.3902 215.542 68.366C215.832 68.1848 216.116 67.9975 216.4 67.8042L216.811 67.5203L217.028 67.3693C217.094 67.3165 217.17 67.2793 217.252 67.2606C217.266 67.2585 217.281 67.2603 217.295 67.2658C217.309 67.2713 217.321 67.2803 217.33 67.2919C217.339 67.3036 217.345 67.3174 217.347 67.332C217.35 67.3467 217.348 67.3616 217.342 67.3754Z" fill="white"/>
<path d="M219.589 69.0363C219.576 69.0752 219.551 69.109 219.517 69.1329C219.483 69.1625 219.447 69.1888 219.408 69.2115L219.203 69.3504C219.058 69.447 218.907 69.5437 218.75 69.6283C218.454 69.7974 218.146 69.9544 217.838 70.1054C217.795 70.1054 217.753 70.0571 217.795 70.033C218.085 69.8517 218.4 69.6645 218.647 69.4652L219.064 69.1873L219.281 69.0363C219.347 68.9828 219.423 68.9437 219.505 68.9215C219.52 68.9185 219.535 68.9198 219.549 68.9251C219.563 68.9305 219.575 68.9398 219.584 68.9519C219.593 68.9639 219.598 68.9783 219.599 68.9933C219.6 69.0082 219.597 69.0232 219.589 69.0363Z" fill="white"/>
<path d="M221.843 70.6976C221.823 70.7333 221.799 70.7659 221.77 70.7943L221.661 70.8728C221.591 70.9156 221.522 70.9619 221.456 71.0117L221.003 71.2896C220.701 71.4587 220.399 71.6158 220.085 71.7668C220.043 71.7668 220.006 71.7185 220.043 71.6883C220.338 71.5131 220.647 71.3198 220.9 71.1265L221.311 70.8487L221.528 70.6976C221.593 70.643 221.67 70.6038 221.752 70.5829C221.767 70.5808 221.782 70.5826 221.795 70.5881C221.809 70.5936 221.821 70.6026 221.83 70.6142C221.839 70.6258 221.845 70.6396 221.848 70.6543C221.85 70.6689 221.848 70.6839 221.843 70.6976Z" fill="white"/>
<path d="M218.557 80.2172L195.772 62.2832C195.772 62.2832 172.371 92.1833 171.973 92.3887C171.973 92.3887 155.772 92.582 140.931 95.5358C138.279 96.0613 124.169 89.1752 108.385 102.452L110.759 127.176C135.579 130.727 170.203 125.363 184.96 120.531C198.895 115.995 218.557 80.2172 218.557 80.2172Z" fill="#263238"/>
<path d="M215.367 82.5546C210.239 78.3263 205.068 74.1463 199.662 70.2442C198.128 69.1327 196.551 68.0877 195.041 66.9461C194.993 66.9038 194.939 66.9884 194.987 67.0307C196.304 68.0515 197.548 69.1629 198.841 70.214C200.133 71.265 201.42 72.316 202.725 73.349C205.328 75.4087 208.016 77.3537 210.686 79.3169C212.214 80.4404 213.754 81.5398 215.295 82.6391C215.367 82.6754 215.44 82.5968 215.367 82.5546Z" fill="#455A64"/>
<path d="M197.874 72.2563C193.773 77.6927 189.653 83.1291 185.57 88.6198C183.528 91.3541 181.482 94.0884 179.433 96.8227C178.527 98.0308 177.621 99.1362 176.123 99.559C175.376 99.7435 174.617 99.8707 173.851 99.9396L171.314 100.248C164.581 101.081 157.844 101.911 151.103 102.736C149.424 102.973 147.731 103.098 146.035 103.111C144.343 103.042 142.658 102.841 140.997 102.507C137.98 101.991 134.913 101.827 131.858 102.017C125.803 102.487 119.891 104.094 114.432 106.753C113.737 107.085 113.048 107.424 112.366 107.774C112.311 107.804 112.366 107.883 112.42 107.859C118.046 105.104 124.116 103.367 130.348 102.73C133.417 102.425 136.511 102.486 139.566 102.911C141.197 103.147 142.81 103.515 144.453 103.667C146.142 103.796 147.839 103.755 149.52 103.546C152.903 103.189 156.28 102.724 159.656 102.307L169.804 101.057C171.489 100.846 173.181 100.67 174.854 100.423C176.225 100.311 177.519 99.7411 178.527 98.804C179.543 97.6517 180.475 96.4284 181.317 95.1435C182.344 93.736 183.383 92.3347 184.416 90.9152C188.469 85.4305 192.486 79.9216 196.497 74.4248L198.007 72.359C198.086 72.2804 197.922 72.1717 197.874 72.2563Z" fill="#455A64"/>
<path d="M184.772 16.9076C183.498 17.7533 158.068 50.6011 157.893 52.4616C157.893 52.6669 159.397 53.6697 162.918 56.9134C163.087 57.0644 163.256 58.345 163.42 60.2658C164.024 67.4841 164.519 83.7933 164.519 83.7933L191.157 77.2394L186.603 49.4534L185.425 42.2351C185.425 42.2351 188.608 23.7333 188.59 21.6614C188.572 19.5896 186.047 16.0317 184.772 16.9076Z" fill="#FACFA4"/>
<path d="M184.772 16.908C183.498 17.7537 158.068 50.6015 157.893 52.462C157.893 52.6674 159.397 53.6701 162.918 56.9138C163.087 57.0648 163.256 58.3454 163.42 60.2662C167.781 58.1642 181.166 51.9787 186.603 49.472L185.425 42.2537C185.425 42.2537 188.608 23.7518 188.59 21.68C188.572 19.6081 186.047 16.0322 184.772 16.908Z" fill="#F97316"/>
<path d="M164.15 46.735C164.504 47.0814 164.812 47.4711 165.069 47.8948C165.592 48.7333 165.91 49.683 165.999 50.6673C166.071 51.6626 165.89 52.66 165.473 53.5667C165.038 54.4565 164.421 55.2447 163.661 55.8802C163.619 55.9165 163.564 55.85 163.607 55.8138C164.293 55.154 164.814 54.3424 165.129 53.4443C165.443 52.5462 165.543 51.5867 165.419 50.6432C165.307 49.7469 164.993 48.8877 164.501 48.1304C164.258 47.7611 163.977 47.4189 163.661 47.1095C163.508 46.9535 163.345 46.8082 163.172 46.6746C162.991 46.5357 162.834 46.4572 162.791 46.2216C162.784 46.1673 162.799 46.1124 162.831 46.0684C162.864 46.0245 162.912 45.9949 162.966 45.986C163.383 45.8954 163.897 46.4813 164.15 46.735Z" fill="white"/>
<path d="M187.883 26.9834C187.27 27.6876 186.453 28.1837 185.546 28.4029C184.61 28.6735 183.644 28.8277 182.67 28.862C181.714 28.9025 180.756 28.8213 179.819 28.6203C179.363 28.5245 178.914 28.4014 178.472 28.2519C178.013 28.127 177.575 27.9336 177.174 27.678C177.16 27.6671 177.149 27.652 177.145 27.6349C177.14 27.6178 177.14 27.5996 177.146 27.5829C177.152 27.5662 177.163 27.5518 177.178 27.5418C177.193 27.5317 177.21 27.5266 177.228 27.527C177.639 27.5874 178.043 27.7626 178.436 27.8592C178.886 27.9676 179.342 28.0523 179.801 28.1129C180.698 28.2548 181.606 28.3094 182.513 28.276C184.328 28.2872 186.101 27.7342 187.587 26.6934C187.781 26.5908 188.016 26.8082 187.883 26.9834Z" fill="white"/>
<path d="M184.839 46.7169C179.481 49.3022 174.111 51.8573 168.777 54.497C167.267 55.246 165.757 55.9769 164.253 56.7561C164.199 56.7561 164.169 56.7017 164.217 56.6715C169.345 53.6412 174.632 50.8888 180.055 48.4263C181.601 47.7377 183.172 47.1095 184.742 46.4934C184.772 46.4806 184.805 46.4801 184.835 46.492C184.865 46.5039 184.889 46.5272 184.902 46.5568C184.915 46.5865 184.916 46.62 184.904 46.65C184.892 46.68 184.868 46.7041 184.839 46.7169Z" fill="white"/>
<path d="M165.147 56.7205C165.169 56.7537 165.186 56.7905 165.195 56.8292C165.198 56.8735 165.198 56.9179 165.195 56.9621C165.195 57.0467 165.195 57.1313 165.195 57.2098C165.195 57.391 165.226 57.5662 165.232 57.7413C165.232 58.0856 165.232 58.4299 165.232 58.7743C165.232 58.8226 165.147 58.8226 165.147 58.7743C165.147 58.436 165.093 58.0917 165.056 57.7534C165.056 57.5903 165.02 57.4212 165.008 57.2581C164.996 57.095 165.008 57.0829 164.978 56.9923C164.957 56.9111 164.957 56.8258 164.978 56.7447C164.982 56.7263 164.991 56.7095 165.005 56.6966C165.018 56.6838 165.035 56.6754 165.054 56.6728C165.073 56.6701 165.091 56.6733 165.108 56.6819C165.125 56.6904 165.138 56.7039 165.147 56.7205Z" fill="white"/>
<path d="M167.672 55.5304C167.698 55.5619 167.717 55.5991 167.726 55.6391C167.726 55.6814 167.726 55.7297 167.726 55.772C167.726 55.8143 167.726 55.9351 167.726 56.0196C167.746 56.1962 167.756 56.3736 167.757 56.5512C167.757 56.8955 167.757 57.2398 167.757 57.5841C167.757 57.6324 167.672 57.6324 167.672 57.5841C167.672 57.2398 167.618 56.9015 167.581 56.5633L167.527 56.068C167.527 55.9773 167.527 55.8928 167.527 55.8022C167.506 55.721 167.506 55.6357 167.527 55.5545C167.53 55.5389 167.538 55.5245 167.549 55.5134C167.561 55.5023 167.575 55.4949 167.591 55.4923C167.607 55.4897 167.623 55.4919 167.637 55.4987C167.652 55.5055 167.664 55.5166 167.672 55.5304Z" fill="white"/>
<path d="M170.203 54.34C170.227 54.3729 170.245 54.4097 170.257 54.4487C170.257 54.491 170.257 54.5393 170.257 54.5816C170.257 54.6239 170.257 54.7447 170.257 54.8292C170.277 55.0058 170.287 55.1832 170.287 55.3608C170.287 55.7071 170.287 56.0514 170.287 56.3937C170.287 56.436 170.209 56.442 170.203 56.3937C170.203 56.0494 170.155 55.7111 170.118 55.3729L170.064 54.8775C170.064 54.7869 170.064 54.7024 170.034 54.6118C170.019 54.5299 170.019 54.446 170.034 54.3641C170.032 54.353 170.033 54.3417 170.036 54.3308C170.038 54.32 170.043 54.3097 170.05 54.3008C170.057 54.2918 170.065 54.2842 170.075 54.2785C170.084 54.2728 170.095 54.269 170.106 54.2675C170.117 54.2659 170.129 54.2665 170.14 54.2693C170.15 54.2721 170.161 54.277 170.17 54.2837C170.179 54.2904 170.186 54.2989 170.192 54.3085C170.198 54.3182 170.201 54.3289 170.203 54.34Z" fill="white"/>
<path d="M172.734 53.1501C172.758 53.182 172.775 53.2193 172.782 53.2588C172.786 53.3031 172.786 53.3475 172.782 53.3917C172.782 53.4703 172.782 53.5548 172.782 53.6394C172.782 53.8146 172.782 53.9897 172.812 54.1649C172.812 54.5112 172.812 54.8555 172.812 55.1978C172.812 55.209 172.808 55.2198 172.8 55.2277C172.792 55.2356 172.781 55.2401 172.77 55.2401C172.759 55.2401 172.748 55.2356 172.74 55.2277C172.732 55.2198 172.728 55.209 172.728 55.1978C172.728 54.8535 172.68 54.5152 172.637 54.177C172.637 54.0078 172.607 53.8448 172.589 53.6756C172.571 53.5065 172.589 53.5005 172.559 53.4159C172.541 53.3323 172.541 53.2458 172.559 53.1622C172.557 53.139 172.565 53.116 172.58 53.0985C172.595 53.0809 172.617 53.0702 172.64 53.0686C172.663 53.067 172.686 53.0747 172.704 53.09C172.721 53.1052 172.732 53.1269 172.734 53.1501Z" fill="white"/>
<path d="M175.265 51.9599C175.287 51.9931 175.303 52.0298 175.313 52.0686V52.2015C175.313 52.28 175.313 52.3646 175.313 52.4491C175.313 52.5337 175.313 52.7995 175.343 52.9746C175.343 53.3189 175.343 53.6632 175.343 54.0076C175.343 54.0559 175.259 54.0619 175.259 54.0076C175.259 53.6693 175.204 53.331 175.168 52.9928C175.168 52.8236 175.138 52.6605 175.12 52.4914C175.102 52.3223 175.12 52.3162 175.09 52.2317C175.068 52.1484 175.068 52.0612 175.09 51.978C175.087 51.9547 175.094 51.9315 175.109 51.9134C175.124 51.8953 175.145 51.8837 175.168 51.8813C175.191 51.8789 175.215 51.8858 175.233 51.9006C175.251 51.9153 175.262 51.9366 175.265 51.9599Z" fill="white"/>
<path d="M177.79 50.7703C177.816 50.8019 177.835 50.8391 177.844 50.879C177.847 50.9213 177.847 50.9637 177.844 51.0059C177.844 51.0905 177.844 51.175 177.844 51.2596C177.863 51.4341 177.873 51.6095 177.874 51.7851C177.874 52.1294 177.874 52.4737 177.874 52.818C177.874 52.8663 177.79 52.8663 177.79 52.818C177.79 52.4798 177.735 52.1415 177.699 51.7972C177.699 51.6341 177.663 51.471 177.651 51.3019C177.639 51.1328 177.651 51.1267 177.621 51.0421C177.599 50.9589 177.599 50.8717 177.621 50.7884C177.618 50.766 177.625 50.7436 177.639 50.726C177.653 50.7084 177.674 50.6972 177.696 50.6948C177.719 50.6924 177.741 50.699 177.759 50.7132C177.776 50.7273 177.787 50.7479 177.79 50.7703Z" fill="white"/>
<path d="M180.321 49.5807C180.346 49.6129 180.364 49.6499 180.375 49.6894C180.375 49.7317 180.375 49.774 180.375 49.8162C180.375 49.8585 180.375 49.9854 180.375 50.0639C180.375 50.2451 180.405 50.4203 180.405 50.5955C180.405 50.9418 180.405 51.2861 180.405 51.6284C180.405 51.6767 180.327 51.6767 180.321 51.6284C180.321 51.2901 180.272 50.9458 180.236 50.6075L180.182 50.1122C180.182 50.0277 180.182 49.9371 180.182 49.8525C180.164 49.7689 180.164 49.6824 180.182 49.5988C180.2 49.5444 180.29 49.5263 180.321 49.5807Z" fill="white"/>
<path d="M182.852 48.3841C182.876 48.416 182.893 48.4533 182.9 48.4928C182.902 48.5371 182.902 48.5814 182.9 48.6257C182.9 48.7103 182.9 48.7948 182.9 48.8734C182.9 49.0546 182.9 49.2298 182.93 49.4049C182.93 49.7512 182.93 50.0955 182.93 50.4378C182.93 50.4862 182.852 50.4862 182.846 50.4378C182.846 50.0996 182.797 49.7553 182.755 49.417C182.755 49.2539 182.725 49.0848 182.707 48.9217C182.688 48.7586 182.707 48.7465 182.676 48.6559C182.659 48.5743 182.659 48.4899 182.676 48.4083C182.678 48.3877 182.687 48.3684 182.701 48.3535C182.715 48.3385 182.734 48.3289 182.754 48.326C182.775 48.3232 182.795 48.3274 182.813 48.338C182.831 48.3485 182.844 48.3648 182.852 48.3841Z" fill="white"/>
<path d="M185.383 47.1945C185.407 47.2264 185.424 47.2637 185.431 47.3032V47.4361C185.431 47.5207 185.431 47.5992 185.431 47.6838C185.431 47.8589 185.431 48.0341 185.461 48.2153C185.461 48.5617 185.461 48.906 185.461 49.2482C185.461 49.2966 185.377 49.2966 185.377 49.2482C185.377 48.9039 185.322 48.5657 185.286 48.2274C185.286 48.0643 185.256 47.8952 185.238 47.7321C185.219 47.569 185.238 47.5569 185.207 47.4663C185.186 47.3851 185.186 47.2999 185.207 47.2187C185.204 47.1954 185.21 47.1719 185.225 47.1532C185.239 47.1345 185.26 47.1222 185.283 47.119C185.306 47.1158 185.33 47.1219 185.348 47.1361C185.367 47.1503 185.379 47.1713 185.383 47.1945Z" fill="white"/>
<path d="M187.962 57.252L161.076 62.9602C161.076 62.9602 164.301 100.604 164.181 101.015C164.181 101.015 150.457 102.827 139.469 102.223C139.469 102.223 120.992 94.1892 108.373 108.052L106.561 132.371C141.71 136.635 188.777 134.66 195.017 122.706C201.819 109.659 187.962 57.252 187.962 57.252Z" fill="#263238"/>
<path d="M164.132 100.857C161.148 100.857 156.147 101.419 153.163 101.54C150.179 101.661 147.249 101.824 144.296 101.981C142.598 102.066 141.173 101.981 139.463 102.126C139.45 102.126 139.438 102.131 139.429 102.14C139.42 102.149 139.415 102.161 139.415 102.174C139.415 102.187 139.42 102.199 139.429 102.208C139.438 102.217 139.45 102.223 139.463 102.223C145.303 102.539 151.158 102.424 156.98 101.878C158.684 101.727 162.471 101.323 164.162 101.069C164.283 101.057 164.422 100.857 164.132 100.857Z" fill="#455A64"/>
<path d="M137.802 99.6614C136.7 98.4388 135.459 97.3483 134.105 96.4117C134.063 96.3754 134.009 96.454 134.045 96.4902C135.224 97.5988 136.332 98.781 137.361 100.03C138.479 101.233 139.506 102.517 140.436 103.872C140.436 103.902 140.496 103.872 140.478 103.841C139.737 102.357 138.84 100.955 137.802 99.6614Z" fill="#455A64"/>
<path d="M196.914 104.584C196.883 103.255 196.763 101.926 196.66 100.597C196.461 97.9698 196.201 95.3482 195.851 92.7448C195.144 87.4775 194.226 82.2526 193.054 77.0759C192.722 75.6262 192.383 74.1826 192.015 72.7449C191.681 71.2727 191.264 69.8206 190.765 68.3958C190.722 68.2811 190.517 68.2931 190.541 68.426C190.728 69.7006 191.073 70.9691 191.35 72.2255C191.628 73.4819 191.924 74.7745 192.196 76.0551C192.746 78.6585 193.253 81.2801 193.712 83.9076C194.63 89.1266 195.367 94.3697 195.989 99.6128C196.165 101.093 196.31 102.573 196.467 104.052C196.551 104.789 196.847 110.697 196.859 111.47C196.859 111.537 196.968 111.531 196.962 111.47C196.902 110.818 196.962 106.559 196.914 104.584Z" fill="#455A64"/>
<path d="M164.126 96.774C164.066 96.0431 163.824 93.2343 163.522 92.6907C163.519 92.6842 163.515 92.6787 163.509 92.6749C163.503 92.671 163.496 92.6689 163.489 92.6689C163.482 92.6689 163.475 92.671 163.469 92.6749C163.463 92.6787 163.459 92.6842 163.456 92.6907C163.256 93.2947 163.528 96.2002 163.595 96.919C163.661 97.6378 164.054 100.761 164.199 101.008C164.204 101.016 164.21 101.022 164.218 101.026C164.226 101.03 164.235 101.033 164.244 101.033C164.253 101.033 164.262 101.03 164.27 101.026C164.278 101.022 164.284 101.016 164.289 101.008C164.311 99.595 164.256 98.1815 164.126 96.774Z" fill="#455A64"/>
<path d="M188.898 108.782C188.801 104.047 188.475 99.317 187.998 94.6055C187.056 85.3093 185.521 76.0795 183.878 66.886C183.673 65.7564 183.474 64.6329 183.274 63.5033C183.274 63.4429 183.172 63.4671 183.184 63.5336C184.718 72.7271 186.295 81.9267 187.34 91.1987C187.853 95.8015 188.252 100.416 188.445 105.043C188.542 107.29 188.602 109.537 188.59 111.791C188.62 113.676 188.445 115.56 188.071 117.408C187.703 119.24 186.847 120.939 185.594 122.325C184.249 123.638 182.614 124.616 180.822 125.182C178.878 125.824 176.889 126.322 174.872 126.674C172.649 127.113 170.414 127.471 168.167 127.749C159.173 128.879 150.082 128.891 141.034 128.71C131.756 128.523 122.478 128.178 113.199 128.076C112.04 128.076 110.874 128.045 109.714 128.021C109.701 128.021 109.689 128.026 109.68 128.035C109.671 128.044 109.666 128.057 109.666 128.069C109.666 128.082 109.671 128.095 109.68 128.104C109.689 128.113 109.701 128.118 109.714 128.118C114.498 128.269 119.282 128.474 124.066 128.625C128.85 128.776 133.55 128.915 138.291 129.042C147.449 129.296 156.636 129.423 165.757 128.438C170.179 128.019 174.563 127.264 178.871 126.179C180.686 125.754 182.425 125.048 184.023 124.089C185.545 123.124 186.762 121.748 187.533 120.12C189.176 116.647 188.983 112.54 188.898 108.782Z" fill="#455A64"/>
<path d="M188.004 61.462C181.432 62.4828 174.878 63.5761 168.385 65.0138C166.536 65.4185 164.706 65.9077 162.846 66.2762C162.785 66.2762 162.809 66.3789 162.876 66.3668C164.513 66.0648 166.168 65.8715 167.811 65.6057C169.454 65.3399 171.097 65.0742 172.734 64.7842C176.002 64.1802 179.239 63.4855 182.483 62.7969C184.337 62.3983 186.186 61.9815 188.028 61.5586C188.095 61.5465 188.064 61.4499 188.004 61.462Z" fill="#455A64"/>
<path d="M50.6205 95.7655C50.9709 94.0017 52.8132 87.6472 55.4529 83.6847C56.7274 81.7638 60.9557 76.6416 62.5081 77.4993C64.0605 78.357 62.9491 79.9698 62.9491 79.9698C62.9491 79.9698 65.0632 78.0731 66.5431 79.0819C68.023 80.0906 66.223 82.537 66.223 82.537C66.223 82.537 68.5304 80.7249 69.9378 81.8605C71.3453 82.9961 69.1163 85.1284 69.1163 85.1284C69.1163 85.1284 71.152 83.3947 71.9251 84.7961C72.8493 86.4874 68.7358 89.26 67.4371 91.4406C67.1411 91.9419 62.1759 101.963 62.1759 101.963L50.6205 95.7655Z" fill="#FACFA4"/>
<path d="M69.0861 85.1943C66.0659 87.242 65.0934 88.6615 63.6498 91.9536C63.6498 92.02 63.5169 91.9959 63.541 91.9234C64.6585 88.5709 65.6189 86.6138 68.9774 85.0433C69.1586 84.9648 69.2613 85.0977 69.0861 85.1943Z" fill="#263238"/>
<path d="M66.2894 82.4282C63.3356 84.8443 62.2725 86.3605 60.5087 89.6767C60.502 89.6844 60.493 89.6898 60.483 89.692C60.4731 89.6943 60.4626 89.6934 60.4532 89.6894C60.4438 89.6853 60.436 89.6784 60.4307 89.6696C60.4255 89.6608 60.4232 89.6506 60.4242 89.6404C61.8799 86.2155 62.8766 84.2886 66.1444 82.2771C66.2955 82.2107 66.4283 82.3194 66.2894 82.4282Z" fill="#263238"/>
<path d="M62.6954 80.1928C60.0013 82.7237 58.763 84.3546 57.4704 87.8158C57.4617 87.829 57.4489 87.8389 57.4341 87.8442C57.4192 87.8494 57.403 87.8497 57.388 87.8449C57.3729 87.8401 57.3599 87.8305 57.3508 87.8177C57.3417 87.8048 57.337 87.7893 57.3375 87.7735C58.316 84.1493 59.8443 82.0774 62.6048 80.1203C62.798 79.9874 62.8645 80.0599 62.6954 80.1928Z" fill="#263238"/>
<path d="M61.8678 104.578C61.8678 104.578 65.4558 101.739 66.7606 100.144C68.0653 98.5497 70.7352 90.824 69.0982 90.1535C66.984 89.2897 64.5679 93.4455 63.6618 95.6382C63.6618 95.6382 58.7811 93.6267 56.4133 96.2423C54.0455 98.8578 61.8678 104.578 61.8678 104.578Z" fill="#FACFA4"/>
<path d="M68.4398 90.1113C65.9451 90.7153 64.9183 93.663 63.8733 95.7168C63.8586 95.7476 63.837 95.7746 63.81 95.7955C63.783 95.8165 63.7515 95.8307 63.7179 95.8372C63.6844 95.8437 63.6498 95.8422 63.617 95.8328C63.5842 95.8234 63.554 95.8064 63.529 95.7832C61.4269 95.0765 58.2557 94.6959 56.3711 96.0913C56.3666 96.0987 56.3605 96.105 56.3531 96.1095C56.3458 96.1141 56.3374 96.1169 56.3288 96.1176C56.3202 96.1183 56.3115 96.1169 56.3035 96.1136C56.2956 96.1103 56.2885 96.1051 56.2829 96.0985C56.2773 96.0919 56.2734 96.0841 56.2714 96.0756C56.2695 96.0672 56.2696 96.0584 56.2717 96.0501C56.2738 96.0417 56.2779 96.0339 56.2836 96.0274C56.2894 96.0209 56.2965 96.0159 56.3046 96.0128C58.1167 94.2369 61.2638 94.3577 63.5169 95.2819C64.5619 93.1556 65.7156 90.2381 68.4338 90.0811C68.4519 90.0811 68.4519 90.1052 68.4398 90.1113Z" fill="#263238"/>
<path d="M79.0649 104.875C73.2831 113.57 65.4633 120.72 56.2864 125.702C50.397 128.928 44.2056 125.164 43.215 122.785C41.0404 117.686 48.6151 97.9161 51.3454 93.9294C52.1608 92.7213 53.375 95.1375 57.1804 98.4355C58.9926 100.006 65.8968 99.6013 65.4075 101.552C65.0572 102.942 62.798 106.88 63.1121 106.856C63.8974 106.789 69.6116 102.628 75.6641 98.7376C83.9999 93.3797 81.0099 102.024 79.0649 104.875Z" fill="#FACFA4"/>
<path d="M63.1243 106.699C62.7618 107.182 57.5369 117.856 56.2925 120.054C56.2861 120.066 56.2845 120.079 56.2878 120.091C56.2912 120.104 56.2995 120.114 56.3107 120.121C56.3219 120.127 56.3352 120.129 56.3476 120.126C56.3601 120.122 56.3707 120.114 56.3771 120.103C57.706 117.952 59.0832 115.832 60.2611 113.597C60.8652 112.492 61.4692 111.386 61.9162 110.233C62.1397 109.677 62.3511 109.121 62.5686 108.565C62.8434 107.984 63.0599 107.377 63.2149 106.753C63.2209 106.699 63.1605 106.639 63.1243 106.699Z" fill="#263238"/>
<path d="M63.6135 105.847L76.9025 110.939C76.9025 110.939 80.9858 105.056 82.7919 101.48C85.1718 96.7443 84 94.7509 77.9595 97.1913C73.9608 98.8282 63.6135 105.847 63.6135 105.847Z" fill="#F97316"/>
<path d="M65.4498 105.098C67.4371 105.702 69.4123 106.342 71.3634 107.067C72.3359 107.423 73.3023 107.804 74.2688 108.191C75.2353 108.577 76.1474 109.073 77.1139 109.447C77.1682 109.447 77.1139 109.55 77.0776 109.526C76.1353 109.103 75.1266 108.801 74.1601 108.426C73.1936 108.052 72.2272 107.683 71.2546 107.321C69.3096 106.596 67.3706 105.865 65.4135 105.182C65.3592 105.164 65.3954 105.086 65.4498 105.098Z" fill="#263238"/>
<path d="M89.835 106.179H87.3161C87.153 104.971 86.7846 102.948 86.1805 101.879C86.4797 103.291 86.5935 104.737 86.5188 106.179H84.308C84.1147 104.464 83.5892 101.347 82.2422 99.1665C82.3026 99.3961 83.414 103.594 83.1482 106.179H63.6739C62.8101 102.066 63.4806 97.596 63.1423 98.5746C62.3839 101.04 61.9772 103.6 61.9342 106.179H59.7657C59.7043 105.141 59.7631 104.099 59.9409 103.075C60.2248 101.71 59.1073 104.41 58.9624 106.179H57.5851C57.5851 106.179 57.3073 100.32 59.4516 96.1524C62.2967 90.5952 60.6597 88.5414 61.8014 82.4648C63.1242 75.5485 72.215 67.1825 81.2999 75.923C82.8573 77.2766 84.1089 78.9462 84.9712 80.8209C85.8335 82.6955 86.287 84.7323 86.3013 86.7957C86.3436 91.7428 85.2201 94.3523 86.9054 96.8953C88.794 99.6247 89.815 102.86 89.835 106.179Z" fill="#263238"/>
<path d="M56.6852 105.352C56.4565 103.242 56.662 101.109 57.2892 99.0817C57.5801 98.0614 57.9559 97.0674 58.4127 96.1098C58.6302 95.6326 58.902 95.1615 59.1316 94.7024C59.3685 94.2535 59.5705 93.787 59.7356 93.3071C60.3476 91.3264 60.7406 89.2846 60.9074 87.2183C61.0343 86.1733 61.1793 85.1283 61.3907 84.0954C61.5965 83.0566 61.9166 82.0437 62.3451 81.0752C61.7847 83.0885 61.4603 85.1602 61.3786 87.2485C61.3001 88.2875 61.1974 89.3385 61.0524 90.3835C60.9008 91.4411 60.6521 92.4824 60.3094 93.4943C60.1235 93.998 59.9035 94.4884 59.651 94.9622C59.3973 95.4393 59.1497 95.8742 58.9201 96.3454C58.4504 97.2701 58.0467 98.2269 57.7121 99.2086C57.3802 100.194 57.1238 101.204 56.9449 102.229C56.8483 102.742 56.7879 103.256 56.7395 103.775C56.694 104.299 56.6758 104.826 56.6852 105.352Z" fill="#263238"/>
<path d="M86.2893 86.7656C86.3316 87.6052 86.2893 88.4449 86.2893 89.2784C86.2893 90.112 86.2893 90.9456 86.3799 91.7731C86.4514 92.5887 86.5908 93.3969 86.7967 94.1893C86.845 94.3887 86.9114 94.5819 86.9658 94.7934L87.0141 94.9383L87.0564 95.0591L87.1893 95.3189C87.3826 95.6692 87.6061 96.0256 87.8296 96.382C88.2585 97.1008 88.6873 97.8377 89.0377 98.6049C89.4089 99.3708 89.7199 100.165 89.9679 100.979C90.2108 101.793 90.3786 102.628 90.4693 103.473C90.5569 104.313 90.5569 105.159 90.4693 105.998C90.4105 104.334 90.0926 102.69 89.527 101.124C88.9471 99.5734 88.204 98.0892 87.3101 96.6961C87.0927 96.3337 86.8752 95.9833 86.6638 95.5967C86.6155 95.5001 86.5671 95.3974 86.5188 95.2887C86.5188 95.2343 86.4705 95.1739 86.4524 95.1195L86.4101 94.9625C86.3497 94.7571 86.2832 94.5517 86.241 94.3584C86.0495 93.5274 85.9383 92.6798 85.9087 91.8275C85.8854 90.9809 85.9136 90.1337 85.9933 89.2905C86.0779 88.4267 86.1745 87.5992 86.2893 86.7656Z" fill="#263238"/>
<path d="M106.199 133.277C106.199 133.277 120.744 119.867 110.741 100.496C110.741 100.496 104.411 101.498 102.749 101.172C97.7117 100.194 93.9365 97.4029 88.1316 95.2404C82.3268 93.078 78.328 94.7814 76.0206 98.7197C75.4467 99.6983 72.6198 114.062 74.6856 119.161C76.3105 123.165 82.8946 124.325 82.8946 124.325C82.8946 124.325 95.1264 134.497 106.199 133.277Z" fill="#F97316"/>
<path d="M83.4865 98.055C83.4443 98.7134 81.1126 103.304 78.2072 103.648C77.2649 103.757 76.4313 98.6228 76.4313 98.6228L76.2863 98.2543L74.2145 93.1441L79.7898 88.1004L80.5992 87.4238C80.5992 87.4238 81.0764 88.8615 81.6502 90.6555C81.6502 90.74 81.7046 90.8185 81.7288 90.9091C81.7529 90.9998 81.8013 91.1024 81.8254 91.1991C81.916 91.4649 82.0066 91.7427 82.0912 92.0146C82.1758 92.2864 82.218 92.4253 82.2785 92.6186C82.3389 92.8119 82.3993 93.0535 82.4657 93.277C82.9155 94.8443 83.2566 96.4407 83.4865 98.055Z" fill="#FACFA4"/>
<path d="M81.6502 90.6555C81.3597 92.2349 80.7295 93.7324 79.8034 95.0444C78.8773 96.3564 77.6773 97.4516 76.2863 98.2543L74.2145 93.1441L79.7898 88.1004L80.5992 87.4238C80.5992 87.4238 81.0764 88.8615 81.6502 90.6555Z" fill="#263238"/>
<path d="M65.033 87.4602C67.1955 96.8953 73.091 96.6658 75.1266 96.1947C76.975 95.7718 83.2087 94.0865 82.0308 84.4762C80.8529 74.8659 75.779 72.8907 71.5084 73.6397C67.2378 74.3887 62.8706 78.0251 65.033 87.4602Z" fill="#FACFA4"/>
<path d="M66.4465 85.6234C66.6537 85.5282 66.8554 85.4213 67.0505 85.3033C67.274 85.2175 67.463 85.0604 67.5881 84.8563C67.6154 84.7859 67.6183 84.7084 67.5964 84.6362C67.5745 84.5639 67.529 84.5011 67.4673 84.4576C67.332 84.3874 67.1801 84.3554 67.0279 84.3649C66.8757 84.3745 66.729 84.4253 66.6035 84.512C66.3291 84.6481 66.1141 84.8803 65.9995 85.1644C65.9814 85.2269 65.9801 85.2931 65.9959 85.3563C66.0117 85.4195 66.044 85.4773 66.0894 85.524C66.1348 85.5706 66.1918 85.6044 66.2545 85.6219C66.3172 85.6393 66.3835 85.6399 66.4465 85.6234Z" fill="#263238"/>
<path d="M72.9218 83.8722C72.6923 83.9084 72.4809 83.9084 72.2513 83.9266C72.021 83.9842 71.7778 83.9608 71.5627 83.8601C71.5005 83.8157 71.4548 83.7517 71.433 83.6784C71.4111 83.6052 71.4142 83.5267 71.4419 83.4554C71.5164 83.3239 71.6244 83.2144 71.7549 83.138C71.8854 83.0616 72.0337 83.0211 72.1849 83.0205C72.4946 82.973 72.8109 83.0419 73.0728 83.2138C73.1305 83.2564 73.1745 83.315 73.1993 83.3822C73.2242 83.4495 73.2289 83.5225 73.2129 83.5924C73.1969 83.6623 73.1608 83.726 73.1091 83.7757C73.0574 83.8254 72.9923 83.8589 72.9218 83.8722Z" fill="#263238"/>
<path d="M72.3963 86.5835C72.3963 86.5533 72.4567 86.5835 72.4627 86.6258C72.6198 87.2661 72.9037 87.9728 73.5379 88.0211V88.0574C72.8131 88.154 72.4446 87.2117 72.3963 86.5835Z" fill="#263238"/>
<path d="M72.7769 85.763C73.7796 85.4006 74.432 87.4241 73.5017 87.7624C72.5715 88.1006 71.9433 86.065 72.7769 85.763Z" fill="#263238"/>
<path d="M73.2118 85.7387C73.4232 85.7991 73.6648 85.9441 73.8822 85.8958C74.0997 85.8475 74.2568 85.5696 74.3534 85.2917C74.3534 85.2615 74.3534 85.2917 74.3957 85.2917C74.4867 85.4668 74.5074 85.67 74.4535 85.8597C74.3996 86.0495 74.2752 86.2115 74.1057 86.3126C73.9187 86.3735 73.7156 86.362 73.5366 86.2803C73.3577 86.1987 73.2159 86.0528 73.1393 85.8716C73.097 85.8414 73.1272 85.7146 73.2118 85.7387Z" fill="#263238"/>
<path d="M68.3734 87.5625C68.3734 87.5625 68.3311 87.6048 68.3734 87.6289C68.5969 88.233 68.7539 89.0001 68.2586 89.3927C68.2586 89.3927 68.2586 89.435 68.2586 89.429C68.9049 89.1209 68.6875 88.1122 68.3734 87.5625Z" fill="#263238"/>
<path d="M67.6002 87.0913C66.5673 87.345 67.1532 89.3927 68.1076 89.1572C69.062 88.9216 68.464 86.8739 67.6002 87.0913Z" fill="#263238"/>
<path d="M67.2076 87.3513C67.0807 87.5024 66.978 87.744 66.7848 87.8164C66.5915 87.8889 66.3378 87.7198 66.1324 87.5507C66.1324 87.5507 66.1324 87.5507 66.1324 87.5809C66.2351 87.9735 66.4827 88.342 66.8754 88.3118C67.268 88.2816 67.3948 87.8708 67.3767 87.4601C67.3465 87.3815 67.2619 87.3091 67.2076 87.3513Z" fill="#263238"/>
<path d="M70.3003 90.0333C70.3003 90.0333 70.4573 91.0118 70.5963 91.4588C70.5963 91.5011 70.7231 91.4588 70.8741 91.4588C71.2778 91.4127 71.6609 91.2557 71.9808 91.0051C72.3007 90.7546 72.5449 90.4202 72.6862 90.0393C72.6862 89.9849 72.6319 89.9608 72.6017 89.997C72.1558 90.5602 71.5388 90.963 70.8439 91.1447C70.7775 91.0299 70.6265 89.4594 70.554 89.4715C70.2186 89.6092 69.9036 89.7921 69.6177 90.0151C69.2251 87.9795 69.1586 85.9016 68.7418 83.8781C68.7418 83.8056 68.615 83.8177 68.615 83.8781C68.6144 86.1095 68.837 88.3354 69.2794 90.5225C69.3338 90.7762 70.1432 90.1601 70.3003 90.0333Z" fill="#263238"/>
<path d="M82.0852 85.0917C79.669 85.7682 76.6488 78.6828 76.2984 77.8069C76.4978 78.3687 77.5065 81.3526 77.3495 81.5459C77.0932 81.6235 76.8255 81.6562 76.5582 81.6426C76.4428 81.2836 76.2994 80.9342 76.1293 80.5976C76.0568 80.4345 76.1776 80.9782 76.2984 81.6547H75.8152C75.5978 80.8783 75.2767 80.1346 74.8608 79.4439C74.7038 79.1781 75.036 80.4828 75.1206 81.6849C72.9037 81.7362 70.6995 82.0341 68.5486 82.5728C67.9445 82.742 67.4371 82.9111 66.9901 83.0742C66.7062 82.1923 66.5069 81.2137 66.5069 81.4372C66.5004 82.0286 66.5509 82.6193 66.6579 83.201L65.9995 83.4728C65.5404 82.2345 65.4982 80.0419 65.3955 80.4164C65.1002 81.5492 65.0223 82.7278 65.1659 83.8896C64.3686 84.3245 64.1813 84.5722 64.0907 84.3547C63.5573 81.8034 63.9514 79.1454 65.2022 76.8586C67.2801 73.1135 72.9822 70.5222 77.6998 73.7659C77.6998 73.7659 81.0221 74.684 82.3751 77.4385C83.7282 80.1929 83.4684 84.7051 82.0852 85.0917Z" fill="#263238"/>
<path d="M80.7019 85.5451C80.7019 85.5451 81.7831 82.0176 83.3234 82.3135C84.8638 82.6095 84.6886 87.2667 83.3234 88.354C83.1601 88.5021 82.9684 88.6157 82.7601 88.6879C82.5517 88.7602 82.3308 88.7896 82.1108 88.7743C81.8908 88.7591 81.6761 88.6996 81.4797 88.5993C81.2832 88.499 81.1091 88.3601 80.9677 88.1909L80.7019 85.5451Z" fill="#FACFA4"/>
<path d="M83.2389 83.6484V83.6907C82.3026 84.4699 82.0308 85.6478 81.9946 86.8076C82.0223 86.6803 82.0773 86.5605 82.1559 86.4566C82.2344 86.3526 82.3345 86.267 82.4494 86.2055C82.5643 86.1441 82.6911 86.1083 82.8212 86.1006C82.9512 86.093 83.0814 86.1137 83.2027 86.1613C83.2389 86.1613 83.2027 86.2217 83.2027 86.2277C82.9948 86.2281 82.7921 86.2928 82.6223 86.4128C82.4526 86.5328 82.324 86.7023 82.2543 86.8982C82.1444 87.2301 82.0675 87.572 82.0248 87.919C82.0248 88.0278 81.8194 88.0338 81.8194 87.919V87.913C81.3422 86.5237 81.8134 84.2887 83.2389 83.6484Z" fill="#263238"/>
<path d="M91.7679 99.7525C99.6749 109.574 110.493 126.258 105.963 130.148C98.5393 136.545 76.4977 140.664 71.4359 141.395C69.2553 141.715 64.5196 127.502 65.933 125.612C67.3465 123.721 90.6988 121.848 90.8438 120.411C90.9162 119.595 88.8444 112.655 86.3497 104.023C83.4684 94.0624 89.5028 96.9739 91.7679 99.7525Z" fill="#FACFA4"/>
<path d="M69.7385 124.343C69.7385 124.343 63.0276 124.452 58.6362 124.729C56.22 124.886 51.9917 125.533 50.2702 126.469C47.6607 127.87 37.6336 135.397 39.3974 137.867C41.0042 140.108 48.7963 132.54 48.7963 132.54C48.7963 132.54 40.2673 139.48 42.6834 141.818C45.0996 144.155 52.7891 134.424 52.7891 134.424C52.7891 134.424 44.1815 141.751 47.0627 143.763C49.2433 145.285 56.6851 136.877 56.6851 136.877C56.6851 136.877 49.3279 143.237 51.5025 144.898C53.9186 146.71 61.2577 139.402 61.2577 139.402C67.4975 142.694 71.8164 141.709 74.8064 140.646C75.5313 140.386 69.7385 124.343 69.7385 124.343Z" fill="#FACFA4"/>
<path d="M51.6052 129.954C50.5723 130.733 49.5212 131.512 48.585 132.37C47.6487 133.228 46.6943 134.14 45.8245 135.094C44.6678 136.318 43.6545 137.67 42.8043 139.123C44.5197 136.653 47.9024 133.494 48.8447 132.624C49.787 131.754 50.7172 130.812 51.6777 129.978C51.6656 129.966 51.6293 129.936 51.6052 129.954Z" fill="#263238"/>
<path d="M54.8005 133.361C53.526 134.412 52.2213 135.409 50.989 136.52C49.7568 137.631 48.7057 138.773 47.558 139.957C47.4735 140.048 47.558 140.066 47.6426 139.957C48.8507 138.821 50.0225 137.861 51.2246 136.737C52.4266 135.614 53.5864 134.448 54.8488 133.373C54.8488 133.373 54.8186 133.349 54.8005 133.361Z" fill="#263238"/>
<path d="M58.0684 135.796C56.0802 137.36 54.2585 139.125 52.632 141.063C52.5474 141.16 52.632 141.172 52.7407 141.063C54.5226 139.251 55.9059 137.862 58.1408 135.844C58.159 135.832 58.1106 135.766 58.0684 135.796Z" fill="#263238"/>
<path d="M74.734 123.485C73.7916 123.485 71.8164 123.938 69.6117 124.089C64.6525 124.416 57.6335 124.561 55.1146 124.748C48.3614 125.255 44.3748 130.335 42.5204 132.123C41.4101 133.203 40.4105 134.391 39.5364 135.669C39.0773 136.364 38.6545 137.348 39.3008 138.085C40.0861 138.985 42.9251 137.94 45.8486 135.174C45.9513 135.071 45.8849 135.01 45.7761 135.107C41.6747 138.592 40.0015 138.242 39.5485 137.674C39.2585 137.306 39.5122 136.653 39.7538 136.146C40.1461 135.419 40.6291 134.745 41.1915 134.141C43.0561 132.036 45.1306 130.128 47.3829 128.445C49.8002 126.545 52.708 125.371 55.767 125.062C57.9355 124.832 64.6283 124.73 69.6238 124.361C71.8104 124.198 73.7735 123.715 74.7219 123.6C74.8125 123.594 74.8004 123.485 74.734 123.485Z" fill="#263238"/>
<path d="M101.88 112.213L87.6242 112.485C87.6242 112.485 85.7758 105.563 85.2926 101.582C84.6584 96.3209 86.4644 94.8531 91.2968 99.1961C94.5163 102.102 101.88 112.213 101.88 112.213Z" fill="#F97316"/>
<path d="M89.3518 112.455C89.1948 112.455 87.733 112.413 87.6243 112.455C87.431 111.634 86.4585 107.81 86.3437 107.417C86.3437 107.351 86.247 107.369 86.2591 107.417C86.3014 107.653 86.4585 108.535 86.6457 109.519V109.483C86.5491 109.308 86.4343 109.145 86.3256 108.976C86.2168 108.807 86.1262 108.613 86.0296 108.432C85.9994 108.372 85.9148 108.432 85.945 108.48C86.0477 108.656 86.1564 108.825 86.241 109.006C86.3256 109.187 86.398 109.344 86.4826 109.513L86.7544 110.009C86.9659 111.12 87.1893 112.25 87.3102 112.66C87.9977 112.645 88.6836 112.586 89.3639 112.485C89.382 112.503 89.376 112.461 89.3518 112.455Z" fill="#263238"/>
<path d="M100.394 110.867C98.3158 110.764 96.2439 110.692 94.16 110.71C93.1271 110.71 92.0881 110.746 91.0492 110.788C90.0102 110.831 88.9833 110.976 87.9444 111C87.89 111 87.896 111.09 87.9444 111.09C88.9773 111.006 90.0283 111.09 91.0612 111.042C92.0941 110.994 93.1391 111 94.1781 110.988C96.25 110.988 98.3218 110.933 100.394 110.957C100.46 110.976 100.448 110.867 100.394 110.867Z" fill="#263238"/>
<path d="M96.5459 105.092C96.5459 105.092 96.4976 105.092 96.5097 105.092C98.1238 107.512 99.8596 109.848 101.71 112.093C101.34 112.11 100.97 112.152 100.605 112.219C101.092 112.256 101.58 112.256 102.067 112.219C102.097 112.244 97.0775 105.551 96.5459 105.092Z" fill="#263238"/>
<path d="M80.581 55.983C78.932 59.8972 74.5889 62.4221 74.5889 62.4221C74.5889 62.4221 69.974 60.4409 67.8659 56.7562C66.1021 53.6877 66.8874 50.2023 69.3156 49.3083C72.801 48.0157 74.0876 54.1407 74.0876 54.1407C74.0876 54.1407 74.6191 47.907 78.2374 48.7587C80.7381 49.3567 81.9462 52.7212 80.581 55.983Z" fill="#F97316"/>
<path d="M63.2209 45.3097C63.6135 48.7588 61.5296 52.2985 61.5296 52.2985C61.5296 52.2985 57.4523 52.7334 54.4743 50.9575C51.9857 49.4716 51.1521 46.6748 52.5233 45.0621C54.4864 42.7486 57.857 46.5963 57.857 46.5963C57.857 46.5963 55.7428 41.9452 58.6604 41.1056C60.6779 40.5197 62.8766 42.4345 63.2209 45.3097Z" fill="#F97316"/>
<path d="M85.4617 13.012C85.8544 16.4611 83.7704 19.9948 83.7704 19.9948C83.7704 19.9948 79.6931 20.4357 76.7152 18.6538C74.2265 17.1739 73.393 14.3772 74.7641 12.7644C76.7273 10.4509 80.0978 14.2987 80.0978 14.2987C80.0978 14.2987 77.9837 9.64752 80.9012 8.8079C82.9368 8.24614 85.1356 10.161 85.4617 13.012Z" fill="#F97316"/>
<path d="M76.1655 30.8979C74.8306 33.0301 72.046 34.0932 72.046 34.0932C72.046 34.0932 69.5392 32.4986 68.6512 30.1428C67.9143 28.1736 68.7056 26.2105 70.2157 25.9145C72.3722 25.4917 72.5413 29.1944 72.5413 29.1944C72.5413 29.1944 73.4473 25.5702 75.483 26.4461C76.9025 27.0441 77.283 29.122 76.1655 30.8979Z" fill="#F97316"/>
<path d="M66.3438 2.74306C66.14 3.78741 65.6483 4.75399 64.9243 5.53374C63.8687 5.38386 62.8765 4.94011 62.0611 4.25317C61.1611 3.37127 61.0886 2.10277 61.8316 1.55913C62.8947 0.773877 63.9397 2.76722 63.9397 2.76722C63.9397 2.76722 63.5108 0.580592 64.8337 0.520188C65.7579 0.429581 66.4948 1.46249 66.3438 2.74306Z" fill="#F97316"/>
</svg>
