<svg width="289" height="162" viewBox="0 0 289 162" fill="none" xmlns="http://www.w3.org/2000/svg">
<path d="M0.533325 91.8454L36.5947 91.6943L72.65 91.646L144.767 91.5433L216.883 91.646L252.939 91.6943L289 91.8454L252.939 91.9903L216.883 92.0447L144.767 92.1474L72.65 92.0447L36.5947 91.9903L0.533325 91.8454Z" fill="#263238"/>
<path d="M241.317 161.485C262.601 161.485 279.855 158.659 279.855 155.173C279.855 151.687 262.601 148.861 241.317 148.861C220.033 148.861 202.779 151.687 202.779 155.173C202.779 158.659 220.033 161.485 241.317 161.485Z" fill="#EBEBEB"/>
<path d="M141.964 145.388C210.109 145.388 265.352 138.51 265.352 130.027C265.352 121.543 210.109 114.666 141.964 114.666C73.8187 114.666 18.5761 121.543 18.5761 130.027C18.5761 138.51 73.8187 145.388 141.964 145.388Z" fill="#EBEBEB"/>
<path d="M205.074 101.613H83.9698L121.994 12.8547H243.105L205.074 101.613Z" fill="#263238"/>
<path d="M122.888 14.7454H242.295L205.074 101.613H86.1202L122.888 14.7454Z" fill="#EBEBEB"/>
<path d="M122.888 14.7454C123.371 23.1144 122.411 31.5041 120.049 39.5474C116.153 52.2927 96.848 77.8196 93.0908 95.0348L86.1202 101.613H205.074L242.295 14.7454H122.888Z" fill="#DBDBDB"/>
<path d="M122.888 14.7454C122.458 21.8792 121.362 28.9572 119.614 35.8869C118.735 39.364 117.502 42.7421 115.936 45.9684C114.377 49.194 112.674 52.329 110.958 55.464C107.485 61.6977 103.976 67.9133 100.756 74.2739C99.1312 77.4511 97.6332 80.6827 96.2258 83.9385C94.8311 87.2215 93.6073 90.5743 92.5593 93.9838C93.4986 90.5366 94.6299 87.1446 95.9479 83.8238C97.307 80.5197 98.7628 77.2578 100.339 74.0503C103.48 67.6294 106.984 61.4077 110.433 55.1559C112.16 52.033 113.876 48.9101 115.44 45.7087C116.999 42.5154 118.247 39.1799 119.167 35.748C120.112 32.3109 120.876 28.8269 121.457 25.3101C122.067 21.8369 122.532 18.2972 122.888 14.7454Z" fill="#DBDBDB"/>
<path d="M121.668 19.8979C120.76 26.7708 119.03 33.5098 116.516 39.9703C115.254 43.198 113.817 46.3538 112.209 49.4236C110.638 52.5102 109.007 55.5606 107.376 58.6171C104.109 64.7058 100.949 70.855 98.1889 77.1793C97.4762 78.7559 96.8419 80.3626 96.1775 81.9573C95.513 83.552 94.9211 85.1708 94.3654 86.7897C93.1573 90.0334 92.227 93.3556 91.2968 96.6899C92.8641 89.9425 95.0249 83.3468 97.754 76.98C100.436 70.5953 103.607 64.428 106.815 58.3151C108.446 55.2949 110.095 52.2263 111.647 49.1578C113.199 46.0892 114.728 42.9784 116.014 39.783C117.299 36.58 118.408 33.3093 119.336 29.9855C120.318 26.6734 121.096 23.3047 121.668 19.8979Z" fill="#DBDBDB"/>
<path d="M160.671 106.536H276.986L237.614 14.7213H122.888C122.888 14.7213 122.435 28.6142 130.046 48.7289C137.216 67.6958 150.481 79.082 160.671 106.536Z" fill="white"/>
<path d="M159.989 106.536C158.333 102.67 156.533 98.8765 154.522 95.1918C152.511 91.5072 150.33 87.9433 148.059 84.3855C143.528 77.3243 138.448 70.6194 134.033 63.4192C131.808 59.8166 129.86 56.0507 128.204 52.1538C126.624 48.2125 125.478 44.1111 124.785 39.9219C124.027 35.7706 123.503 31.58 123.214 27.3699C122.891 23.17 122.783 18.9564 122.888 14.7454C123.404 23.1192 124.413 31.4553 125.908 39.7105C126.307 41.7643 126.796 43.7938 127.322 45.8113C127.837 47.8243 128.476 49.8033 129.237 51.737C130.849 55.5902 132.751 59.3157 134.927 62.8816C139.246 70.0576 144.187 76.8833 148.633 84.0231C153.138 91.1421 156.941 98.6817 159.989 106.536Z" fill="white"/>
<path d="M124.024 17.3972C124.592 20.955 125.31 24.4886 126.156 27.986C127.002 31.4834 127.968 34.9567 129.062 38.3756C131.197 45.2465 134.011 51.8876 137.464 58.2003C139.212 61.3453 140.983 64.4803 142.779 67.6052L148.186 76.9618C149.998 80.0908 151.737 83.2378 153.38 86.4513C155.023 89.6648 156.521 92.9448 157.862 96.2912C154.898 89.7264 151.533 83.3498 147.787 77.1974C144.108 70.9999 140.46 64.7783 136.914 58.4721C133.463 52.1174 130.678 45.4233 128.603 38.4964C126.483 31.6052 124.952 24.5469 124.024 17.3972Z" fill="#EBEBEB"/>
<path d="M163.069 108.426H284.174L243.183 12.8547H122.073L163.069 108.426Z" fill="#37474F"/>
<path d="M241.238 108.426H267.883L226.892 12.8547H200.248L241.238 108.426Z" fill="#455A64"/>
<path d="M175.663 108.426H185.31L144.32 12.8547H134.667L175.663 108.426Z" fill="#455A64"/>
<path d="M122.888 14.7454H243.993L245.279 11.7192H120.732L122.888 14.7454Z" fill="#37474F"/>
<path d="M227.937 134.207H222.35V145.484H227.937V134.207Z" fill="#37474F"/>
<path d="M232.341 134.207H230.009V145.484H232.341V134.207Z" fill="#37474F"/>
<path d="M274.431 134.207H217.264V145.484H274.431V134.207Z" fill="#F97316"/>
<path d="M269.236 134.207H263.648V145.484H269.236V134.207Z" fill="#37474F"/>
<path d="M247.859 125.793H208.203V134.207H247.859V125.793Z" fill="#455A64"/>
<path d="M264.965 125.793H247.859V134.207H264.965V125.793Z" fill="#455A64"/>
<path d="M247.859 126.662H208.203V133.331H247.859V126.662Z" fill="white"/>
<path d="M210.77 128.034C213.859 127.993 216.95 127.961 220.043 127.937L229.315 127.907L238.587 127.937C241.675 127.937 244.766 127.969 247.859 128.034C244.766 128.082 241.675 128.116 238.587 128.136L229.315 128.166L220.043 128.136C216.95 128.12 213.859 128.086 210.77 128.034Z" fill="#DBDBDB"/>
<path d="M210.77 129.344C213.859 129.296 216.95 129.264 220.043 129.248L229.315 129.218L238.587 129.248C241.675 129.248 244.766 129.28 247.859 129.344C244.766 129.393 241.675 129.425 238.587 129.441L229.333 129.471L220.061 129.441C216.956 129.425 213.859 129.393 210.77 129.344Z" fill="#DBDBDB"/>
<path d="M210.77 130.655C213.859 130.607 216.95 130.573 220.043 130.552H229.315H238.587C241.675 130.552 244.766 130.587 247.859 130.655C244.766 130.699 241.675 130.732 238.587 130.752L229.333 130.8L220.061 130.77C216.956 130.742 213.859 130.704 210.77 130.655Z" fill="#DBDBDB"/>
<path d="M210.77 131.96C213.859 131.912 216.95 131.879 220.043 131.863L229.315 131.833L238.587 131.863C241.675 131.863 244.766 131.896 247.859 131.96C244.766 132.008 241.675 132.043 238.587 132.063H229.315L220.043 132.032C216.95 132.037 213.859 132.012 210.77 131.96Z" fill="#DBDBDB"/>
<path d="M228.227 157.052H261.45V145.484H228.227V157.052Z" fill="#263238"/>
<path d="M213.887 157.052H228.221V145.484H213.887V157.052Z" fill="#263238"/>
<path d="M228.227 155.85H261.45V146.687H228.227V155.85Z" fill="white"/>
<path d="M259.293 153.965C256.708 154.014 254.119 154.046 251.525 154.062L243.757 154.092L235.977 154.062C233.392 154.062 230.803 154.03 228.209 153.965C230.798 153.917 233.388 153.885 235.977 153.869L243.745 153.838L251.513 153.869C254.111 153.881 256.704 153.913 259.293 153.965Z" fill="#DBDBDB"/>
<path d="M259.293 152.165C256.708 152.213 254.119 152.248 251.525 152.268H243.757H235.989C233.404 152.268 230.815 152.234 228.221 152.165C230.811 152.117 233.4 152.085 235.989 152.068H243.757H251.525C254.115 152.089 256.704 152.121 259.293 152.165Z" fill="#DBDBDB"/>
<path d="M259.293 150.371C256.708 150.415 254.119 150.448 251.525 150.468L243.757 150.498L235.977 150.468C233.392 150.468 230.803 150.436 228.209 150.371C230.798 150.323 233.388 150.289 235.977 150.268L243.745 150.238L251.513 150.268C254.111 150.289 256.704 150.323 259.293 150.371Z" fill="#DBDBDB"/>
<path d="M259.293 148.571C256.708 148.619 254.119 148.652 251.525 148.668L243.757 148.698L235.977 148.668C233.392 148.668 230.803 148.636 228.209 148.571C230.798 148.523 233.388 148.489 235.977 148.468H243.745L251.513 148.499C254.111 148.495 256.704 148.519 259.293 148.571Z" fill="#DBDBDB"/>
<path d="M267.72 117.94H215.476V125.823H267.72V117.94Z" fill="#F97316"/>
<path opacity="0.2" d="M267.72 117.94H215.476V125.823H267.72V117.94Z" fill="black"/>
<path d="M240.483 119.553H220.387V124.283H240.483V119.553Z" fill="white"/>
<path d="M265.69 104.524H226.004V117.91H265.69V104.524Z" fill="#F97316"/>
<path d="M261.48 104.524H257.783V117.91H261.48V104.524Z" fill="#263238"/>
<path d="M255.355 104.524H253.923V117.91H255.355V104.524Z" fill="#263238"/>
<path d="M69.4486 139.903L23.1245 127.702L1.57227 139.257L46.8876 154.358L69.4486 139.903Z" fill="#F97316"/>
<path d="M66.5794 139.692L45.9211 152.981L3.45087 138.852L24.2903 127.78C24.2903 127.78 36.9753 129.453 37.5793 129.64C38.1833 129.828 43.7707 132.147 43.7707 132.147C43.7707 132.147 51.6233 133.518 52.173 133.7C52.7226 133.881 66.5794 139.692 66.5794 139.692Z" fill="white"/>
<path d="M43.7828 132.153C42.172 133.325 40.5371 134.483 38.878 135.626L33.9188 139.027L28.9233 142.374C27.2562 143.477 25.5769 144.568 23.8856 145.648C25.4964 144.476 27.1334 143.32 28.7965 142.18L33.7496 138.78L38.7451 135.433C40.4122 134.328 42.0794 133.216 43.7828 132.153Z" fill="#DBDBDB"/>
<path d="M62.0128 139.571C60.5027 138.979 58.9986 138.375 57.5006 137.759L53.0186 135.886L51.8951 135.415L51.3454 135.198C51.1521 135.143 50.9528 135.107 50.7414 135.059L48.3796 134.503C46.8091 134.128 45.2385 133.73 43.668 133.295C45.2788 133.597 46.8695 133.917 48.44 134.255L50.8199 134.769C51.0192 134.817 51.2125 134.847 51.4239 134.908C51.6354 134.968 51.8166 135.053 52.028 135.125L53.1575 135.584C54.6495 136.224 56.1355 136.859 57.6154 137.517C59.0953 138.175 60.5631 138.876 62.0128 139.571Z" fill="#DBDBDB"/>
<path d="M60.5873 140.422C59.0852 139.83 57.5832 139.226 56.0811 138.61L51.5931 136.744L50.4756 136.273C50.2883 136.2 50.1011 136.116 49.9199 136.055C49.7387 135.995 49.5333 135.959 49.3158 135.91L46.954 135.355C45.3835 134.98 43.813 134.587 42.2425 134.177C43.8372 134.479 45.4258 134.781 47.0144 135.131L49.3944 135.651C49.5877 135.693 49.787 135.729 49.9984 135.783C50.2098 135.838 50.385 135.928 50.6024 136.007L51.732 136.466C53.218 137.1 54.7099 137.734 56.1898 138.399C57.6698 139.063 59.1255 139.728 60.5873 140.422Z" fill="#DBDBDB"/>
<path d="M59.1496 141.268C57.6758 140.664 56.2019 140.103 54.7401 139.492L50.3608 137.68L49.2675 137.221C48.9127 137.058 48.545 136.925 48.1681 136.823L45.8607 136.237C44.3184 135.874 42.7821 135.494 41.2518 135.095C42.8103 135.381 44.3647 135.685 45.915 136.007C46.6882 136.164 47.4614 136.345 48.2346 136.521C48.625 136.623 49.0067 136.757 49.3762 136.919L50.4756 137.372C51.9313 137.976 53.3871 138.617 54.8307 139.269C56.2744 139.921 57.718 140.592 59.1496 141.268Z" fill="#DBDBDB"/>
<path d="M57.712 142.114C56.2583 141.546 54.8106 140.964 53.369 140.368L49.044 138.556C48.3312 138.266 47.6064 137.922 46.8936 137.686L44.6224 137.143C43.1063 136.774 41.6022 136.4 40.08 136.007C41.6143 136.285 43.1465 136.585 44.6768 136.907C45.4439 137.064 46.199 137.233 46.9661 137.42C47.7332 137.608 48.4339 137.982 49.1588 138.278C50.5964 138.882 52.034 139.486 53.4535 140.151C54.873 140.815 56.2986 141.449 57.712 142.114Z" fill="#DBDBDB"/>
<path d="M56.2684 142.966C54.8267 142.398 53.3851 141.818 51.9434 141.226L47.6366 139.414C46.9238 139.124 46.199 138.81 45.4923 138.538C44.7855 138.266 43.9822 138.182 43.2331 137.994C41.717 137.632 40.2129 137.257 38.7028 136.865C40.2371 137.143 41.7653 137.441 43.2875 137.759C44.0486 137.916 44.8036 138.085 45.5647 138.272C46.3258 138.459 47.0265 138.84 47.7514 139.136C49.183 139.74 50.6145 140.344 52.034 140.996C53.4535 141.649 54.867 142.277 56.2684 142.966Z" fill="#DBDBDB"/>
<path d="M54.8307 143.811C53.3871 143.244 51.9494 142.67 50.5179 142.078L46.2231 140.266C45.5103 139.976 44.7915 139.662 44.0908 139.39C43.3902 139.118 42.5868 139.033 41.8378 138.846C40.3277 138.484 38.8236 138.107 37.3256 137.717C38.8477 137.994 40.3679 138.292 41.8861 138.611C42.6472 138.768 43.4022 138.937 44.1633 139.124C44.9244 139.311 45.6191 139.692 46.3379 139.988C47.7634 140.592 49.189 141.196 50.6024 141.848C52.0159 142.501 53.4293 143.147 54.8307 143.811Z" fill="#DBDBDB"/>
<path d="M53.3931 144.693C51.9675 144.131 50.548 143.564 49.1648 142.978L44.9365 141.214C44.2358 140.924 43.5291 140.61 42.8284 140.338C42.1277 140.066 41.3545 139.976 40.6176 139.788C39.1316 139.432 37.6457 139.064 36.1658 138.671C37.6678 138.941 39.1699 139.235 40.6719 139.553C41.4209 139.716 42.1579 139.861 42.919 140.072C43.6801 140.284 44.3445 140.64 45.0573 140.942C46.4587 141.546 47.8661 142.15 49.2856 142.754C50.7051 143.358 52.0098 144.005 53.3931 144.693Z" fill="#DBDBDB"/>
<path d="M51.9555 145.509C50.53 144.947 49.1044 144.379 47.691 143.793L43.4627 142.029C42.7559 141.745 42.0492 141.425 41.3545 141.159C40.6599 140.894 39.8746 140.791 39.1377 140.61C37.6518 140.247 36.1658 139.879 34.6859 139.492C36.196 139.758 37.7061 140.054 39.1921 140.368C39.9471 140.537 40.6841 140.676 41.4451 140.894C42.2062 141.111 42.8707 141.455 43.5774 141.757C44.9848 142.362 46.3923 142.966 47.8057 143.57C49.2192 144.174 50.5662 144.856 51.9555 145.509Z" fill="#DBDBDB"/>
<path d="M50.7595 146.505C49.3158 145.901 47.8722 145.352 46.4406 144.754L42.1458 142.941L40.0015 142.047C39.2948 141.812 38.5095 141.667 37.7605 141.48C36.2504 141.111 34.7403 140.743 33.2422 140.344C34.7705 140.616 36.2987 140.918 37.8149 141.238C38.5759 141.413 39.325 141.54 40.0981 141.782C40.8713 142.023 41.5478 142.386 42.2606 142.67C43.6861 143.274 45.1117 143.878 46.5251 144.536C47.9386 145.194 49.3279 145.817 50.7595 146.505Z" fill="#DBDBDB"/>
<path d="M49.3279 147.363C47.8903 146.789 46.4527 146.209 45.0211 145.605L40.7445 143.793L38.5941 142.881C37.8934 142.639 37.1081 142.5 36.3652 142.313C34.8611 141.945 33.345 141.576 31.853 141.184C33.3792 141.453 34.9014 141.749 36.4195 142.072C37.1806 142.247 37.9236 142.368 38.6968 142.621C39.4699 142.875 40.1344 143.225 40.8472 143.509C42.2667 144.113 43.6922 144.717 45.0755 145.388C46.4587 146.058 47.9145 146.699 49.3279 147.363Z" fill="#DBDBDB"/>
<path d="M47.8722 148.317C46.4768 147.75 45.0815 147.17 43.6982 146.578C42.315 145.986 40.9378 145.37 39.5485 144.766L37.4766 143.872C37.1439 143.713 36.7929 143.595 36.4316 143.521L35.3323 143.256C33.8705 142.899 32.4087 142.537 30.9529 142.15C32.4389 142.404 33.9128 142.694 35.3927 143.008L36.492 143.256C36.6793 143.298 36.8605 143.334 37.0477 143.394C37.235 143.455 37.4102 143.533 37.5914 143.606C38.286 143.89 38.9807 144.21 39.6693 144.494C41.0405 145.098 42.4237 145.702 43.7889 146.354C45.154 147.007 46.5131 147.653 47.8722 148.317Z" fill="#DBDBDB"/>
<path d="M46.4346 149.097C45.0151 148.583 43.6016 148.064 42.2063 147.52C40.8109 146.976 39.3975 146.427 37.978 145.889C37.2712 145.629 36.5645 145.327 35.8699 145.092L33.7014 144.452C32.2577 144.011 30.814 143.564 29.3824 143.08C30.8503 143.437 32.3121 143.817 33.7678 144.21L35.9484 144.814C36.6853 145.056 37.3739 145.333 38.0807 145.611C39.482 146.173 40.8895 146.723 42.2788 147.309C43.6681 147.895 45.0513 148.493 46.4346 149.097Z" fill="#DBDBDB"/>
<path d="M25.6313 142.223C24.2782 141.752 22.9494 141.244 21.6205 140.719L20.6298 140.332C20.301 140.205 19.964 140.1 19.6211 140.018L17.5613 139.45L13.4357 138.29C12.0645 137.91 10.6994 137.493 9.32819 137.082C10.7114 137.427 12.1007 137.753 13.484 138.109L17.6277 139.184L19.6936 139.728C20.0455 139.813 20.3923 139.918 20.7325 140.042C21.0708 140.169 21.397 140.308 21.7292 140.441C23.052 140.996 24.3507 141.582 25.6313 142.223Z" fill="#DBDBDB"/>
<path d="M27.0267 141.129C25.6978 140.727 24.381 140.308 23.0762 139.873C22.4239 139.661 21.7715 139.42 21.1191 139.233L19.1258 138.653L15.1451 137.505C13.8162 137.124 12.4994 136.708 11.1766 136.297C12.5175 136.641 13.8585 136.961 15.1935 137.318L19.1922 138.381C20.5371 138.714 21.8637 139.118 23.1668 139.589C24.4716 140.072 25.7703 140.586 27.0267 141.129Z" fill="#DBDBDB"/>
<path d="M28.3737 140.157C27.0568 139.77 25.7461 139.366 24.4474 138.919L22.5024 138.272L20.5151 137.771L16.5344 136.744C15.2055 136.406 13.8827 136.031 12.5598 135.675C13.9008 135.971 15.2418 136.279 16.5767 136.569L20.5815 137.505L22.5869 137.994C23.2514 138.188 23.8917 138.429 24.538 138.659C25.8306 139.118 27.1052 139.625 28.3737 140.157Z" fill="#DBDBDB"/>
<path d="M29.5274 139.438C28.2226 138.979 26.9542 138.429 25.6796 137.922C25.372 137.784 25.0526 137.675 24.7252 137.596L23.7165 137.366L21.699 136.919C19.013 136.319 16.327 135.699 13.6411 135.059C16.3512 135.566 19.0553 136.102 21.7533 136.665L23.7769 137.094L24.7856 137.318C25.1297 137.394 25.4655 137.503 25.7884 137.644C27.0643 138.178 28.3122 138.777 29.5274 139.438Z" fill="#DBDBDB"/>
<path d="M30.7898 138.556C29.4851 138.103 28.2166 137.553 26.9421 137.046C26.6346 136.907 26.3152 136.795 25.9877 136.714L24.9789 136.49L22.9614 136.043C20.2714 135.439 17.5855 134.819 14.9035 134.183C17.6177 134.69 20.3218 135.226 23.0158 135.79L25.0393 136.218L26.0541 136.436C26.3979 136.516 26.7335 136.627 27.0568 136.768C28.3313 137.299 29.5773 137.896 30.7898 138.556Z" fill="#DBDBDB"/>
<path d="M32.0523 137.68C30.7476 137.221 29.4791 136.671 28.2045 136.164C27.8969 136.027 27.5775 135.917 27.2501 135.838L26.2414 135.632L24.2239 135.185C21.5379 134.585 18.8519 133.967 16.166 133.331C18.8801 133.838 21.5842 134.372 24.2783 134.932L26.3018 135.367L27.3166 135.584C27.6611 135.661 27.997 135.772 28.3193 135.916C29.5943 136.437 30.8404 137.026 32.0523 137.68Z" fill="#DBDBDB"/>
<path d="M33.3147 136.804C32.01 136.345 30.7415 135.796 29.467 135.288C29.1594 135.151 28.8399 135.042 28.5126 134.962L27.5038 134.732L25.4863 134.285C22.7983 133.681 20.1104 133.077 17.4284 132.425C20.1426 132.932 22.8467 133.468 25.5407 134.032L27.5642 134.461L28.579 134.684C28.9236 134.758 29.2596 134.867 29.5817 135.01C30.8562 135.543 32.1022 136.142 33.3147 136.804Z" fill="#DBDBDB"/>
<path d="M34.9457 136.098C33.6409 135.639 32.3724 135.089 31.0979 134.581C30.79 134.445 30.4706 134.336 30.1435 134.255L29.1348 134.026L27.1173 133.579C24.4313 132.979 21.7453 132.361 19.0593 131.724C21.7735 132.232 24.4776 132.765 27.1716 133.325L29.1952 133.76L30.2039 133.977C30.5479 134.053 30.8838 134.163 31.2066 134.304C32.4826 134.838 33.7305 135.437 34.9457 136.098Z" fill="#DBDBDB"/>
<path d="M36.5282 135.397C35.2235 134.938 33.9611 134.388 32.6805 133.881C32.3718 133.746 32.0526 133.637 31.7261 133.555L30.7173 133.331L28.6998 132.884C26.0098 132.28 23.3239 131.66 20.6419 131.024C23.3561 131.531 26.0602 132.067 28.7542 132.63L30.7777 133.059L31.7925 133.277C32.1365 133.356 32.4723 133.467 32.7952 133.609C34.0708 134.138 35.3169 134.734 36.5282 135.397Z" fill="#DBDBDB"/>
<path d="M37.7907 134.521C36.486 134.062 35.2235 133.512 33.949 133.011C33.6441 132.872 33.3265 132.763 33.0006 132.685L31.9919 132.473L29.9985 132.063C27.3045 131.507 24.6105 130.945 21.9225 130.353C24.6367 130.808 27.3468 131.293 30.0529 131.809L32.0764 132.202L33.0912 132.407C33.4358 132.481 33.7718 132.59 34.0939 132.733C35.3567 133.264 36.5907 133.861 37.7907 134.521Z" fill="#DBDBDB"/>
<path d="M39.0592 133.645C37.7605 133.186 36.498 132.636 35.2235 132.135C34.9207 131.996 34.6051 131.887 34.2812 131.809L33.2664 131.616L31.2429 131.247C28.5428 130.746 25.8367 130.238 23.1426 129.707C25.8608 130.109 28.575 130.536 31.2851 130.987L33.3208 131.344L34.3356 131.531C34.6804 131.604 35.0165 131.713 35.3383 131.857C36.6093 132.387 37.8513 132.984 39.0592 133.645Z" fill="#DBDBDB"/>
<path d="M40.3156 132.763C39.0169 132.31 37.7605 131.761 36.492 131.259C36.1894 131.121 35.8737 131.014 35.5497 130.939L34.5349 130.8L32.5053 130.492C29.7931 130.087 27.0689 129.677 24.3749 129.236C27.1011 129.538 29.8233 129.872 32.5415 130.238L34.5772 130.522L35.598 130.685C35.9445 130.749 36.2814 130.857 36.6007 131.006C37.8686 131.527 39.1086 132.113 40.3156 132.763Z" fill="#DBDBDB"/>
<path d="M44.9667 150.317C43.517 149.838 42.0734 149.346 40.6357 148.843L36.3289 147.309C35.6101 147.061 34.8913 146.777 34.1846 146.542L32.004 145.847C30.5482 145.376 29.1046 144.893 27.6669 144.385C29.1408 144.788 30.6086 145.191 32.0704 145.593L34.2631 146.252C35 146.493 35.7128 146.747 36.4256 147.013C37.8571 147.544 39.2948 148.064 40.7143 148.619C42.1338 149.175 43.5533 149.743 44.9667 150.317Z" fill="#DBDBDB"/>
<path d="M24.5923 143.292C23.1245 142.845 21.6688 142.386 20.213 141.909L15.8579 140.465L13.6894 139.734L11.4846 139.088C10.0228 138.647 8.56103 138.194 7.10529 137.717C8.59123 138.073 10.0711 138.46 11.551 138.852L13.7618 139.456C14.5048 139.686 15.2236 139.921 15.9545 140.175C17.3982 140.676 18.8479 141.166 20.2855 141.691C21.7231 142.217 23.1607 142.748 24.5923 143.292Z" fill="#DBDBDB"/>
<path d="M249.206 60.079C247.998 59.185 208.294 46.8806 206.488 47.3638C206.288 47.4182 205.884 49.2062 204.072 53.6338C203.987 53.8392 185.111 76.7264 185.111 76.7264L210.946 90.3596L225.708 69.5745C225.708 69.5745 244.156 66.0771 246.083 65.3462C248.01 64.6153 250.474 60.9729 249.206 60.079Z" fill="#FACFA4"/>
<path d="M249.206 60.079C247.998 59.185 208.294 46.8806 206.488 47.3638C206.288 47.4182 205.884 49.2062 204.072 53.6338C203.987 53.8392 201.402 56.8413 200.139 58.4661C201.782 59.8796 217.657 71.0665 221.988 74.7753L225.69 69.5564C225.69 69.5564 244.138 66.059 246.065 65.3281C247.992 64.5972 250.474 60.9729 249.206 60.079Z" fill="#F97316"/>
<path d="M214.044 51.2176C213.843 51.6709 213.585 52.097 213.277 52.4861C212.672 53.2588 211.894 53.8793 211.006 54.2982C210.101 54.7188 209.102 54.8997 208.107 54.8237C207.12 54.7256 206.165 54.421 205.304 53.9297C205.256 53.9297 205.304 53.827 205.346 53.8572C206.204 54.2742 207.148 54.4822 208.101 54.4644C209.054 54.4466 209.99 54.2033 210.831 53.7545C211.634 53.3388 212.331 52.7435 212.866 52.0149C213.125 51.6584 213.346 51.2758 213.525 50.8732C213.618 50.6779 213.697 50.476 213.76 50.2692C213.827 50.0578 213.845 49.8826 214.05 49.7618C214.099 49.7354 214.155 49.7288 214.208 49.7435C214.261 49.7582 214.306 49.7929 214.334 49.8403C214.564 50.2028 214.189 50.8914 214.044 51.2176Z" fill="white"/>
<path d="M240.858 66.5241C239.986 66.198 239.236 65.6091 238.713 64.8388C238.13 64.0564 237.647 63.2042 237.276 62.3018C236.902 61.4198 236.64 60.4944 236.497 59.5474C236.43 59.0868 236.388 58.6231 236.37 58.1581C236.328 57.6833 236.356 57.205 236.454 56.7386C236.459 56.7207 236.47 56.7049 236.485 56.6937C236.499 56.6825 236.517 56.6764 236.536 56.6764C236.554 56.6764 236.572 56.6825 236.587 56.6937C236.602 56.7049 236.613 56.7207 236.617 56.7386C236.702 57.1433 236.684 57.5842 236.732 57.995C236.781 58.4595 236.853 58.9212 236.95 59.3782C237.135 60.2666 237.402 61.136 237.747 61.9756C238.378 63.6764 239.517 65.142 241.009 66.1737C241.047 66.1984 241.076 66.2361 241.089 66.2799C241.103 66.3237 241.1 66.3709 241.082 66.413C241.064 66.4551 241.031 66.4894 240.99 66.5097C240.949 66.5301 240.902 66.5352 240.858 66.5241Z" fill="white"/>
<path d="M222.006 69.9912C217.173 66.5119 212.383 62.9964 207.509 59.5655C206.131 58.5929 204.766 57.6023 203.377 56.654C203.329 56.6238 203.377 56.5573 203.425 56.5875C208.532 59.655 213.469 62.9983 218.212 66.6025C219.553 67.6355 220.852 68.7167 222.145 69.804C222.161 69.8248 222.17 69.8505 222.17 69.877C222.171 69.9035 222.162 69.9294 222.147 69.9507C222.131 69.972 222.109 69.9875 222.083 69.9948C222.058 70.0022 222.03 70.0009 222.006 69.9912Z" fill="white"/>
<path d="M203.836 57.4271C203.82 57.4629 203.797 57.4956 203.77 57.5238L203.661 57.5963L203.449 57.7352C203.304 57.8319 203.153 57.9285 203.002 58.0131C202.7 58.1822 202.398 58.3392 202.084 58.4903C202.042 58.4903 202 58.4419 202.042 58.4178C202.332 58.2366 202.616 58.0493 202.9 57.856L203.31 57.5721L203.528 57.4211C203.594 57.3676 203.67 57.3285 203.751 57.3063C203.766 57.3048 203.781 57.3074 203.795 57.3136C203.809 57.3199 203.82 57.3297 203.829 57.342C203.838 57.3543 203.843 57.3686 203.844 57.3836C203.845 57.3986 203.843 57.4136 203.836 57.4271Z" fill="white"/>
<path d="M206.089 59.0822C206.074 59.1204 206.049 59.1537 206.017 59.1789L205.908 59.2574L205.703 59.3964C205.552 59.493 205.407 59.5896 205.25 59.6742C204.954 59.8433 204.646 60.0004 204.337 60.1514C204.289 60.1514 204.253 60.1031 204.295 60.0789C204.585 59.8977 204.869 59.7044 205.147 59.5111L205.564 59.2333L205.781 59.0822C205.845 59.0265 205.922 58.9871 206.005 58.9675C206.019 58.9665 206.033 58.9692 206.046 58.9751C206.059 58.9811 206.07 58.9903 206.078 59.0017C206.087 59.0131 206.092 59.0265 206.094 59.0406C206.096 59.0547 206.094 59.069 206.089 59.0822Z" fill="white"/>
<path d="M208.336 60.7312C208.321 60.7678 208.298 60.8008 208.27 60.8279L208.161 60.9004L207.95 61.0393C207.805 61.142 207.654 61.2326 207.503 61.3232C207.201 61.4923 206.899 61.6494 206.584 61.7944C206.542 61.7944 206.5 61.7521 206.542 61.7219C206.832 61.5467 207.146 61.3534 207.4 61.1601C207.533 61.0635 207.672 60.9729 207.811 60.8822L208.028 60.7312C208.091 60.6732 208.168 60.6335 208.252 60.6165C208.266 60.6135 208.281 60.6147 208.295 60.6201C208.309 60.6255 208.322 60.6347 208.331 60.6468C208.339 60.6589 208.345 60.6732 208.346 60.6882C208.347 60.7032 208.343 60.7181 208.336 60.7312Z" fill="white"/>
<path d="M210.607 62.4044C210.591 62.4416 210.566 62.4746 210.535 62.501L210.426 62.5735L210.221 62.7124C210.07 62.8091 209.925 62.9057 209.768 62.9903C209.472 63.1594 209.164 63.3165 208.856 63.4675C208.846 63.4715 208.836 63.472 208.826 63.4688C208.816 63.4655 208.808 63.4588 208.803 63.4499C208.797 63.441 208.796 63.4305 208.798 63.4204C208.8 63.4103 208.805 63.4013 208.813 63.395C209.103 63.2138 209.387 63.0265 209.665 62.8333L210.082 62.5493L210.299 62.3983C210.365 62.3448 210.441 62.3057 210.523 62.2836C210.537 62.2837 210.551 62.2873 210.564 62.294C210.577 62.3007 210.588 62.3104 210.596 62.3222C210.604 62.334 210.61 62.3476 210.612 62.3619C210.614 62.3762 210.612 62.3908 210.607 62.4044Z" fill="white"/>
<path d="M212.842 64.0595C212.823 64.0951 212.799 64.1277 212.77 64.1561L212.661 64.2346L212.45 64.3736C212.305 64.4702 212.154 64.5668 212.003 64.6514C211.701 64.8205 211.399 64.9776 211.085 65.1286C211.042 65.1286 211 65.0803 211.042 65.0561C211.332 64.8749 211.616 64.6877 211.9 64.4883L212.311 64.2105L212.528 64.0595C212.592 64.0037 212.669 63.9643 212.752 63.9447C212.766 63.9426 212.781 63.9444 212.795 63.9499C212.809 63.9554 212.821 63.9644 212.83 63.976C212.839 63.9876 212.845 64.0014 212.847 64.0161C212.849 64.0307 212.848 64.0457 212.842 64.0595Z" fill="white"/>
<path d="M215.089 65.7205C215.074 65.7587 215.049 65.792 215.017 65.8172L214.908 65.8897L214.703 66.0346L214.25 66.3125C213.954 66.4816 213.646 66.6387 213.338 66.7897C213.328 66.7906 213.319 66.7887 213.31 66.7843C213.302 66.7798 213.295 66.7729 213.29 66.7645C213.286 66.7561 213.284 66.7466 213.285 66.7371C213.286 66.7276 213.289 66.7186 213.295 66.7112C213.585 66.536 213.869 66.3427 214.147 66.1494L214.564 65.8716L214.781 65.7205C214.844 65.6625 214.921 65.6228 215.005 65.6058C215.019 65.6048 215.033 65.6075 215.046 65.6134C215.059 65.6194 215.07 65.6286 215.079 65.64C215.087 65.6514 215.092 65.6648 215.094 65.6789C215.096 65.6929 215.094 65.7073 215.089 65.7205Z" fill="white"/>
<path d="M217.342 67.3757C217.322 67.4103 217.297 67.4427 217.27 67.4724L217.161 67.5449L216.95 67.6838C216.805 67.7805 216.654 67.8771 216.503 67.9617C216.201 68.1368 215.899 68.2879 215.585 68.4389C215.542 68.4389 215.5 68.3906 215.542 68.3664C215.832 68.1852 216.116 67.9979 216.4 67.8046L216.811 67.5207L217.028 67.3697C217.094 67.3169 217.17 67.2797 217.252 67.261C217.266 67.2589 217.281 67.2607 217.295 67.2662C217.309 67.2717 217.321 67.2807 217.33 67.2923C217.339 67.3039 217.345 67.3177 217.347 67.3324C217.35 67.347 217.348 67.362 217.342 67.3757Z" fill="white"/>
<path d="M219.589 69.0368C219.576 69.0757 219.551 69.1095 219.517 69.1334C219.483 69.163 219.447 69.1893 219.408 69.212L219.203 69.3509C219.058 69.4475 218.907 69.5442 218.75 69.6287C218.454 69.7979 218.146 69.9549 217.838 70.1059C217.795 70.1059 217.753 70.0576 217.795 70.0334C218.085 69.8522 218.4 69.665 218.647 69.4656L219.064 69.1878L219.281 69.0368C219.347 68.9833 219.423 68.9442 219.505 68.922C219.52 68.919 219.535 68.9203 219.549 68.9256C219.563 68.931 219.575 68.9403 219.584 68.9523C219.593 68.9644 219.598 68.9788 219.599 68.9938C219.6 69.0087 219.597 69.0236 219.589 69.0368Z" fill="white"/>
<path d="M221.843 70.6979C221.823 70.7336 221.799 70.7661 221.77 70.7945L221.661 70.8731C221.591 70.9158 221.522 70.9622 221.456 71.012L221.003 71.2899C220.701 71.459 220.399 71.616 220.085 71.767C220.043 71.767 220.006 71.7187 220.043 71.6885C220.338 71.5134 220.647 71.3201 220.9 71.1268L221.311 70.8489L221.528 70.6979C221.593 70.6433 221.67 70.604 221.752 70.5831C221.767 70.581 221.782 70.5828 221.795 70.5883C221.809 70.5938 221.821 70.6028 221.83 70.6144C221.839 70.6261 221.845 70.6399 221.848 70.6545C221.85 70.6692 221.848 70.6841 221.843 70.6979Z" fill="white"/>
<path d="M218.557 80.2176L195.772 62.2836C195.772 62.2836 172.371 92.1837 171.973 92.3891C171.973 92.3891 155.772 92.5823 140.931 95.5361C138.279 96.0616 124.169 89.1756 108.385 102.452L110.759 127.176C135.579 130.728 170.203 125.364 184.96 120.531C198.895 115.995 218.557 80.2176 218.557 80.2176Z" fill="#263238"/>
<path d="M215.367 82.5552C210.239 78.3269 205.068 74.1469 199.662 70.2448C198.128 69.1333 196.551 68.0883 195.041 66.9467C194.993 66.9044 194.939 66.989 194.987 67.0313C196.304 68.0521 197.548 69.1635 198.841 70.2146C200.133 71.2656 201.42 72.3166 202.725 73.3496C205.328 75.4093 208.016 77.3544 210.686 79.3175C212.214 80.441 213.754 81.5404 215.295 82.6397C215.367 82.676 215.44 82.5975 215.367 82.5552Z" fill="#455A64"/>
<path d="M197.874 72.2564C193.773 77.6928 189.653 83.1292 185.57 88.6199C183.528 91.3542 181.482 94.0885 179.433 96.8228C178.527 98.0309 177.621 99.1363 176.123 99.5591C175.376 99.7436 174.617 99.8708 173.851 99.9397L171.314 100.248C164.581 101.081 157.844 101.911 151.103 102.736C149.424 102.973 147.731 103.098 146.035 103.111C144.343 103.043 142.658 102.841 140.997 102.507C137.98 101.991 134.913 101.827 131.858 102.018C125.803 102.487 119.891 104.094 114.432 106.753C113.737 107.086 113.048 107.424 112.366 107.774C112.311 107.804 112.366 107.883 112.42 107.859C118.046 105.104 124.116 103.367 130.348 102.73C133.417 102.425 136.511 102.486 139.566 102.912C141.197 103.147 142.81 103.516 144.453 103.667C146.142 103.796 147.839 103.755 149.52 103.546C152.903 103.189 156.28 102.724 159.656 102.308L169.804 101.057C171.489 100.846 173.181 100.671 174.854 100.423C176.225 100.312 177.519 99.7413 178.527 98.8041C179.543 97.6518 180.475 96.4285 181.317 95.1436C182.344 93.7362 183.383 92.3348 184.416 90.9153C188.469 85.4306 192.486 79.9217 196.497 74.4249L198.007 72.3591C198.086 72.2806 197.922 72.1718 197.874 72.2564Z" fill="#455A64"/>
<path d="M184.772 16.9079C183.498 17.7536 158.068 50.6014 157.893 52.4619C157.893 52.6673 159.397 53.67 162.918 56.9137C163.087 57.0647 163.256 58.3453 163.42 60.2661C164.024 67.4844 164.519 83.7936 164.519 83.7936L191.157 77.2397L186.603 49.4537L185.425 42.2354C185.425 42.2354 188.608 23.7336 188.59 21.6617C188.572 19.5899 186.047 16.0321 184.772 16.9079Z" fill="#FACFA4"/>
<path d="M184.772 16.9078C183.498 17.7535 158.068 50.6013 157.893 52.4618C157.893 52.6672 159.397 53.6699 162.918 56.9136C163.087 57.0646 163.256 58.3452 163.42 60.266C167.781 58.164 181.166 51.9786 186.603 49.4718L185.425 42.2535C185.425 42.2535 188.608 23.7516 188.59 21.6798C188.572 19.6079 186.047 16.032 184.772 16.9078Z" fill="#F97316"/>
<path d="M164.15 46.7355C164.504 47.0819 164.812 47.4716 165.069 47.8953C165.592 48.7338 165.91 49.6835 165.999 50.6678C166.071 51.6631 165.89 52.6605 165.473 53.5672C165.038 54.4569 164.421 55.2452 163.661 55.8807C163.619 55.9169 163.564 55.8505 163.607 55.8142C164.293 55.1545 164.814 54.3429 165.129 53.4448C165.443 52.5467 165.543 51.5872 165.419 50.6436C165.307 49.7474 164.993 48.8882 164.501 48.1308C164.258 47.7616 163.977 47.4194 163.661 47.11C163.508 46.954 163.345 46.8087 163.172 46.6751C162.991 46.5362 162.834 46.4576 162.791 46.2221C162.784 46.1678 162.799 46.1129 162.831 46.0689C162.864 46.025 162.912 45.9954 162.966 45.9865C163.383 45.8959 163.897 46.4818 164.15 46.7355Z" fill="white"/>
<path d="M187.883 26.9833C187.27 27.6875 186.453 28.1836 185.546 28.4028C184.61 28.6734 183.644 28.8276 182.67 28.8619C181.714 28.9024 180.756 28.8212 179.819 28.6203C179.363 28.5244 178.914 28.4014 178.472 28.2518C178.013 28.127 177.575 27.9335 177.174 27.678C177.16 27.667 177.149 27.6519 177.145 27.6348C177.14 27.6178 177.14 27.5996 177.146 27.5829C177.152 27.5662 177.163 27.5518 177.178 27.5417C177.193 27.5317 177.21 27.5265 177.228 27.527C177.639 27.5874 178.043 27.7625 178.436 27.8592C178.886 27.9676 179.342 28.0523 179.801 28.1129C180.698 28.2547 181.606 28.3094 182.513 28.276C184.328 28.2871 186.101 27.7341 187.587 26.6934C187.781 26.5907 188.016 26.8082 187.883 26.9833Z" fill="white"/>
<path d="M184.839 46.7174C179.481 49.3027 174.111 51.8578 168.777 54.4975C167.267 55.2465 165.757 55.9774 164.253 56.7566C164.199 56.7566 164.169 56.7022 164.217 56.672C169.345 53.6417 174.632 50.8893 180.055 48.4268C181.601 47.7382 183.172 47.11 184.742 46.4939C184.772 46.4811 184.805 46.4806 184.835 46.4924C184.865 46.5043 184.889 46.5277 184.902 46.5573C184.915 46.587 184.916 46.6205 184.904 46.6505C184.892 46.6805 184.868 46.7046 184.839 46.7174Z" fill="white"/>
<path d="M165.147 56.7204C165.169 56.7536 165.186 56.7904 165.195 56.8291C165.198 56.8734 165.198 56.9177 165.195 56.962C165.195 57.0466 165.195 57.1311 165.195 57.2097C165.195 57.3909 165.226 57.566 165.232 57.7412C165.232 58.0855 165.232 58.4298 165.232 58.7741C165.232 58.8225 165.147 58.8225 165.147 58.7741C165.147 58.4359 165.093 58.0916 165.056 57.7533C165.056 57.5902 165.02 57.4211 165.008 57.258C164.996 57.0949 165.008 57.0828 164.978 56.9922C164.957 56.911 164.957 56.8257 164.978 56.7445C164.982 56.7262 164.991 56.7094 165.005 56.6965C165.018 56.6836 165.035 56.6753 165.054 56.6727C165.073 56.67 165.091 56.6732 165.108 56.6817C165.125 56.6903 165.138 56.7038 165.147 56.7204Z" fill="white"/>
<path d="M167.672 55.5304C167.698 55.5619 167.717 55.5991 167.726 55.6391C167.726 55.6814 167.726 55.7297 167.726 55.772C167.726 55.8143 167.726 55.9351 167.726 56.0196C167.746 56.1962 167.756 56.3736 167.757 56.5512C167.757 56.8955 167.757 57.2398 167.757 57.5841C167.757 57.6324 167.672 57.6324 167.672 57.5841C167.672 57.2398 167.618 56.9015 167.581 56.5633L167.527 56.068C167.527 55.9773 167.527 55.8928 167.527 55.8022C167.506 55.721 167.506 55.6357 167.527 55.5545C167.53 55.5389 167.538 55.5245 167.549 55.5134C167.561 55.5023 167.575 55.4949 167.591 55.4923C167.607 55.4897 167.623 55.4919 167.637 55.4987C167.652 55.5055 167.664 55.5166 167.672 55.5304Z" fill="white"/>
<path d="M170.203 54.3406C170.227 54.3736 170.245 54.4103 170.257 54.4493C170.257 54.4916 170.257 54.5399 170.257 54.5822C170.257 54.6245 170.257 54.7453 170.257 54.8298C170.277 55.0064 170.287 55.1838 170.287 55.3614C170.287 55.7077 170.287 56.052 170.287 56.3943C170.287 56.4366 170.209 56.4426 170.203 56.3943C170.203 56.05 170.155 55.7117 170.118 55.3735L170.064 54.8782C170.064 54.7875 170.064 54.703 170.034 54.6124C170.019 54.5305 170.019 54.4466 170.034 54.3647C170.032 54.3536 170.033 54.3423 170.036 54.3314C170.038 54.3206 170.043 54.3104 170.05 54.3014C170.057 54.2924 170.065 54.2848 170.075 54.2791C170.084 54.2734 170.095 54.2697 170.106 54.2681C170.117 54.2665 170.129 54.2671 170.14 54.2699C170.15 54.2727 170.161 54.2776 170.17 54.2843C170.179 54.291 170.186 54.2995 170.192 54.3091C170.198 54.3188 170.201 54.3295 170.203 54.3406Z" fill="white"/>
<path d="M172.734 53.1505C172.758 53.1824 172.775 53.2196 172.782 53.2592C172.786 53.3034 172.786 53.3479 172.782 53.3921C172.782 53.4706 172.782 53.5552 172.782 53.6398C172.782 53.8149 172.782 53.9901 172.812 54.1653C172.812 54.5116 172.812 54.8559 172.812 55.1982C172.812 55.2094 172.808 55.2202 172.8 55.2281C172.792 55.236 172.781 55.2405 172.77 55.2405C172.759 55.2405 172.748 55.236 172.74 55.2281C172.732 55.2202 172.728 55.2094 172.728 55.1982C172.728 54.8539 172.68 54.5156 172.637 54.1773C172.637 54.0082 172.607 53.8451 172.589 53.676C172.571 53.5069 172.589 53.5008 172.559 53.4163C172.541 53.3327 172.541 53.2462 172.559 53.1626C172.557 53.1393 172.565 53.1164 172.58 53.0989C172.595 53.0813 172.617 53.0705 172.64 53.0689C172.663 53.0673 172.686 53.075 172.704 53.0903C172.721 53.1056 172.732 53.1273 172.734 53.1505Z" fill="white"/>
<path d="M175.265 51.9605C175.287 51.9937 175.303 52.0305 175.313 52.0692V52.2021C175.313 52.2806 175.313 52.3652 175.313 52.4497C175.313 52.5343 175.313 52.8001 175.343 52.9753C175.343 53.3196 175.343 53.6639 175.343 54.0082C175.343 54.0565 175.259 54.0625 175.259 54.0082C175.259 53.6699 175.204 53.3316 175.168 52.9934C175.168 52.8242 175.138 52.6611 175.12 52.492C175.102 52.3229 175.12 52.3168 175.09 52.2323C175.068 52.149 175.068 52.0618 175.09 51.9786C175.087 51.9554 175.094 51.9321 175.109 51.914C175.124 51.8959 175.145 51.8843 175.168 51.8819C175.191 51.8795 175.215 51.8865 175.233 51.9012C175.251 51.9159 175.262 51.9372 175.265 51.9605Z" fill="white"/>
<path d="M177.79 50.7704C177.816 50.802 177.835 50.8392 177.844 50.8792C177.847 50.9214 177.847 50.9638 177.844 51.006C177.844 51.0906 177.844 51.1752 177.844 51.2597C177.863 51.4343 177.873 51.6097 177.874 51.7852C177.874 52.1295 177.874 52.4738 177.874 52.8181C177.874 52.8665 177.79 52.8665 177.79 52.8181C177.79 52.4799 177.735 52.1416 177.699 51.7973C177.699 51.6342 177.663 51.4711 177.651 51.302C177.639 51.1329 177.651 51.1268 177.621 51.0423C177.599 50.959 177.599 50.8718 177.621 50.7886C177.618 50.7661 177.625 50.7437 177.639 50.7261C177.653 50.7086 177.674 50.6973 177.696 50.6949C177.719 50.6925 177.741 50.6991 177.759 50.7133C177.776 50.7275 177.787 50.748 177.79 50.7704Z" fill="white"/>
<path d="M180.321 49.5806C180.346 49.6128 180.364 49.6498 180.375 49.6893C180.375 49.7316 180.375 49.7738 180.375 49.8161C180.375 49.8584 180.375 49.9853 180.375 50.0638C180.375 50.245 180.405 50.4202 180.405 50.5953C180.405 50.9417 180.405 51.286 180.405 51.6283C180.405 51.6766 180.327 51.6766 180.321 51.6283C180.321 51.29 180.272 50.9457 180.236 50.6074L180.182 50.1121C180.182 50.0275 180.182 49.9369 180.182 49.8524C180.164 49.7688 180.164 49.6823 180.182 49.5987C180.2 49.5443 180.29 49.5262 180.321 49.5806Z" fill="white"/>
<path d="M182.852 48.3846C182.876 48.4165 182.893 48.4537 182.9 48.4933C182.902 48.5376 182.902 48.5819 182.9 48.6262C182.9 48.7108 182.9 48.7953 182.9 48.8739C182.9 49.0551 182.9 49.2302 182.93 49.4054C182.93 49.7517 182.93 50.096 182.93 50.4383C182.93 50.4866 182.852 50.4866 182.846 50.4383C182.846 50.1001 182.797 49.7558 182.755 49.4175C182.755 49.2544 182.725 49.0853 182.707 48.9222C182.688 48.7591 182.707 48.747 182.676 48.6564C182.659 48.5747 182.659 48.4904 182.676 48.4088C182.678 48.3882 182.687 48.3689 182.701 48.354C182.715 48.339 182.734 48.3293 182.754 48.3265C182.775 48.3237 182.795 48.3279 182.813 48.3385C182.831 48.349 182.844 48.3653 182.852 48.3846Z" fill="white"/>
<path d="M185.383 47.1945C185.407 47.2264 185.424 47.2637 185.431 47.3032V47.4361C185.431 47.5207 185.431 47.5992 185.431 47.6838C185.431 47.8589 185.431 48.0341 185.461 48.2153C185.461 48.5617 185.461 48.906 185.461 49.2482C185.461 49.2966 185.377 49.2966 185.377 49.2482C185.377 48.9039 185.322 48.5657 185.286 48.2274C185.286 48.0643 185.256 47.8952 185.238 47.7321C185.219 47.569 185.238 47.5569 185.207 47.4663C185.186 47.3851 185.186 47.2999 185.207 47.2187C185.204 47.1954 185.21 47.1719 185.225 47.1532C185.239 47.1345 185.26 47.1222 185.283 47.119C185.306 47.1158 185.33 47.1219 185.348 47.1361C185.367 47.1503 185.379 47.1713 185.383 47.1945Z" fill="white"/>
<path d="M187.962 57.252L161.076 62.9602C161.076 62.9602 164.301 100.604 164.181 101.015C164.181 101.015 150.457 102.827 139.469 102.223C139.469 102.223 120.992 94.1892 108.373 108.052L106.561 132.371C141.71 136.635 188.777 134.66 195.017 122.706C201.819 109.659 187.962 57.252 187.962 57.252Z" fill="#263238"/>
<path d="M164.132 100.858C161.148 100.858 156.147 101.42 153.163 101.54C150.179 101.661 147.249 101.824 144.296 101.981C142.598 102.066 141.173 101.981 139.463 102.126C139.45 102.126 139.438 102.131 139.429 102.14C139.42 102.15 139.415 102.162 139.415 102.175C139.415 102.187 139.42 102.2 139.429 102.209C139.438 102.218 139.45 102.223 139.463 102.223C145.303 102.539 151.158 102.424 156.98 101.879C158.684 101.728 162.471 101.323 164.162 101.069C164.283 101.057 164.422 100.858 164.132 100.858Z" fill="#455A64"/>
<path d="M137.802 99.6618C136.7 98.4392 135.459 97.3487 134.105 96.412C134.063 96.3758 134.009 96.4543 134.045 96.4906C135.224 97.5991 136.332 98.7814 137.361 100.03C138.479 101.234 139.506 102.518 140.436 103.872C140.436 103.902 140.496 103.872 140.478 103.842C139.737 102.357 138.84 100.956 137.802 99.6618Z" fill="#455A64"/>
<path d="M196.914 104.585C196.883 103.256 196.763 101.927 196.66 100.598C196.461 97.9704 196.201 95.3488 195.851 92.7454C195.144 87.4782 194.226 82.2532 193.054 77.0765C192.722 75.6268 192.383 74.1832 192.015 72.7456C191.681 71.2733 191.264 69.8212 190.765 68.3964C190.722 68.2817 190.517 68.2937 190.541 68.4266C190.728 69.7012 191.073 70.9697 191.35 72.2261C191.628 73.4825 191.924 74.7751 192.196 76.0557C192.746 78.6591 193.253 81.2807 193.712 83.9083C194.63 89.1272 195.367 94.3703 195.989 99.6134C196.165 101.093 196.31 102.573 196.467 104.053C196.551 104.79 196.847 110.698 196.859 111.471C196.859 111.537 196.968 111.531 196.962 111.471C196.902 110.818 196.962 106.56 196.914 104.585Z" fill="#455A64"/>
<path d="M164.126 96.7744C164.066 96.0435 163.824 93.2347 163.522 92.6911C163.519 92.6846 163.515 92.6791 163.509 92.6752C163.503 92.6714 163.496 92.6693 163.489 92.6693C163.482 92.6693 163.475 92.6714 163.469 92.6752C163.463 92.6791 163.459 92.6846 163.456 92.6911C163.256 93.2951 163.528 96.2006 163.595 96.9194C163.661 97.6382 164.054 100.761 164.199 101.009C164.204 101.016 164.21 101.022 164.218 101.027C164.226 101.031 164.235 101.033 164.244 101.033C164.253 101.033 164.262 101.031 164.27 101.027C164.278 101.022 164.284 101.016 164.289 101.009C164.311 99.5954 164.256 98.1819 164.126 96.7744Z" fill="#455A64"/>
<path d="M188.898 108.783C188.801 104.047 188.475 99.3174 187.998 94.6059C187.056 85.3097 185.521 76.0799 183.878 66.8864C183.673 65.7568 183.474 64.6333 183.274 63.5037C183.274 63.4433 183.172 63.4675 183.184 63.5339C184.718 72.7275 186.295 81.927 187.34 91.1991C187.853 95.8019 188.252 100.417 188.445 105.044C188.542 107.291 188.602 109.538 188.59 111.791C188.62 113.677 188.445 115.56 188.071 117.408C187.703 119.241 186.847 120.939 185.594 122.325C184.249 123.638 182.614 124.617 180.822 125.183C178.878 125.824 176.889 126.323 174.872 126.675C172.649 127.113 170.414 127.472 168.167 127.75C159.173 128.879 150.082 128.891 141.034 128.71C131.756 128.523 122.478 128.179 113.199 128.076C112.04 128.076 110.874 128.046 109.714 128.022C109.701 128.022 109.689 128.027 109.68 128.036C109.671 128.045 109.666 128.057 109.666 128.07C109.666 128.083 109.671 128.095 109.68 128.104C109.689 128.113 109.701 128.118 109.714 128.118C114.498 128.269 119.282 128.475 124.066 128.626C128.85 128.777 133.55 128.916 138.291 129.042C147.449 129.296 156.636 129.423 165.757 128.438C170.179 128.019 174.563 127.264 178.871 126.179C180.686 125.754 182.425 125.049 184.023 124.089C185.545 123.125 186.762 121.749 187.533 120.121C189.176 116.647 188.983 112.54 188.898 108.783Z" fill="#455A64"/>
<path d="M188.004 61.4621C181.432 62.4829 174.878 63.5763 168.385 65.0139C166.536 65.4186 164.706 65.9079 162.846 66.2763C162.785 66.2763 162.809 66.379 162.876 66.3669C164.513 66.0649 166.168 65.8716 167.811 65.6058C169.454 65.3401 171.097 65.0743 172.734 64.7843C176.002 64.1803 179.239 63.4857 182.483 62.797C184.337 62.3984 186.186 61.9816 188.028 61.5588C188.095 61.5467 188.064 61.45 188.004 61.4621Z" fill="#455A64"/>
<path d="M50.6205 95.7658C50.9709 94.002 52.8132 87.6475 55.4529 83.6849C56.7274 81.7641 60.9557 76.6418 62.5081 77.4995C64.0605 78.3573 62.9491 79.9701 62.9491 79.9701C62.9491 79.9701 65.0632 78.0734 66.5431 79.0821C68.023 80.0909 66.223 82.5373 66.223 82.5373C66.223 82.5373 68.5304 80.7251 69.9378 81.8607C71.3453 82.9963 69.1163 85.1286 69.1163 85.1286C69.1163 85.1286 71.152 83.395 71.9251 84.7964C72.8493 86.4877 68.7358 89.2602 67.4371 91.4408C67.1411 91.9422 62.1759 101.963 62.1759 101.963L50.6205 95.7658Z" fill="#FACFA4"/>
<path d="M69.0861 85.1948C66.0659 87.2425 65.0934 88.662 63.6498 91.9541C63.6498 92.0205 63.5169 91.9964 63.541 91.9239C64.6585 88.5714 65.6189 86.6143 68.9774 85.0438C69.1586 84.9653 69.2613 85.0982 69.0861 85.1948Z" fill="#263238"/>
<path d="M66.2894 82.4285C63.3356 84.8447 62.2725 86.3608 60.5087 89.677C60.502 89.6848 60.493 89.6901 60.483 89.6924C60.4731 89.6947 60.4626 89.6937 60.4532 89.6897C60.4438 89.6857 60.436 89.6788 60.4307 89.67C60.4255 89.6612 60.4232 89.651 60.4242 89.6408C61.8799 86.2159 62.8766 84.289 66.1444 82.2775C66.2955 82.2111 66.4283 82.3198 66.2894 82.4285Z" fill="#263238"/>
<path d="M62.6954 80.1934C60.0013 82.7243 58.763 84.3553 57.4704 87.8164C57.4617 87.8296 57.4489 87.8395 57.4341 87.8448C57.4192 87.85 57.403 87.8503 57.388 87.8455C57.3729 87.8407 57.3599 87.8311 57.3508 87.8183C57.3417 87.8054 57.337 87.7899 57.3375 87.7741C58.316 84.1499 59.8443 82.078 62.6048 80.1209C62.798 79.988 62.8645 80.0605 62.6954 80.1934Z" fill="#263238"/>
<path d="M61.8678 104.579C61.8678 104.579 65.4558 101.74 66.7606 100.145C68.0653 98.5503 70.7352 90.8246 69.0982 90.1541C66.984 89.2903 64.5679 93.4461 63.6618 95.6388C63.6618 95.6388 58.7811 93.6274 56.4133 96.2429C54.0455 98.8584 61.8678 104.579 61.8678 104.579Z" fill="#FACFA4"/>
<path d="M68.4398 90.1119C65.9451 90.7159 64.9183 93.6636 63.8733 95.7174C63.8586 95.7483 63.837 95.7752 63.81 95.7961C63.783 95.8171 63.7515 95.8314 63.7179 95.8378C63.6844 95.8443 63.6498 95.8428 63.617 95.8334C63.5842 95.824 63.554 95.807 63.529 95.7838C61.4269 95.0771 58.2557 94.6966 56.3711 96.0919C56.3666 96.0993 56.3605 96.1056 56.3531 96.1101C56.3458 96.1147 56.3374 96.1175 56.3288 96.1182C56.3202 96.1189 56.3115 96.1175 56.3035 96.1142C56.2956 96.1109 56.2885 96.1057 56.2829 96.0991C56.2773 96.0925 56.2734 96.0847 56.2714 96.0762C56.2695 96.0678 56.2696 96.059 56.2717 96.0507C56.2738 96.0423 56.2779 96.0345 56.2836 96.028C56.2894 96.0215 56.2965 96.0165 56.3046 96.0134C58.1167 94.2375 61.2638 94.3583 63.5169 95.2825C64.5619 93.1563 65.7156 90.2387 68.4338 90.0817C68.4519 90.0817 68.4519 90.1058 68.4398 90.1119Z" fill="#263238"/>
<path d="M79.0649 104.875C73.2831 113.57 65.4633 120.72 56.2864 125.702C50.397 128.928 44.2056 125.164 43.215 122.785C41.0404 117.686 48.6151 97.9161 51.3454 93.9294C52.1608 92.7213 53.375 95.1375 57.1804 98.4355C58.9926 100.006 65.8968 99.6013 65.4075 101.552C65.0572 102.942 62.798 106.88 63.1121 106.856C63.8974 106.789 69.6116 102.628 75.6641 98.7376C83.9999 93.3797 81.0099 102.024 79.0649 104.875Z" fill="#FACFA4"/>
<path d="M63.1243 106.699C62.7618 107.182 57.5369 117.856 56.2925 120.054C56.2861 120.065 56.2845 120.079 56.2878 120.091C56.2912 120.104 56.2995 120.114 56.3107 120.121C56.3219 120.127 56.3352 120.129 56.3476 120.125C56.3601 120.122 56.3707 120.114 56.3771 120.103C57.706 117.952 59.0832 115.832 60.2611 113.597C60.8652 112.492 61.4692 111.386 61.9162 110.233C62.1397 109.677 62.3511 109.121 62.5686 108.565C62.8434 107.984 63.0599 107.377 63.2149 106.753C63.2209 106.699 63.1605 106.638 63.1243 106.699Z" fill="#263238"/>
<path d="M63.6135 105.847L76.9025 110.939C76.9025 110.939 80.9858 105.056 82.7919 101.48C85.1718 96.7441 84 94.7508 77.9595 97.1911C73.9608 98.8281 63.6135 105.847 63.6135 105.847Z" fill="#F97316"/>
<path d="M65.4498 105.098C67.4371 105.702 69.4123 106.342 71.3634 107.067C72.3359 107.424 73.3023 107.804 74.2688 108.191C75.2353 108.577 76.1474 109.073 77.1139 109.447C77.1682 109.447 77.1139 109.55 77.0776 109.526C76.1353 109.103 75.1266 108.801 74.1601 108.426C73.1936 108.052 72.2272 107.683 71.2546 107.321C69.3096 106.596 67.3706 105.865 65.4135 105.183C65.3592 105.165 65.3954 105.086 65.4498 105.098Z" fill="#263238"/>
<path d="M89.835 106.179H87.3161C87.153 104.971 86.7846 102.948 86.1805 101.879C86.4797 103.291 86.5935 104.737 86.5188 106.179H84.308C84.1147 104.464 83.5892 101.347 82.2422 99.1664C82.3026 99.396 83.414 103.594 83.1482 106.179H63.6739C62.8101 102.066 63.4806 97.5959 63.1423 98.5744C62.3839 101.04 61.9772 103.6 61.9342 106.179H59.7657C59.7043 105.141 59.7631 104.099 59.9409 103.075C60.2248 101.709 59.1073 104.41 58.9624 106.179H57.5851C57.5851 106.179 57.3073 100.32 59.4516 96.1523C62.2967 90.5951 60.6597 88.5413 61.8014 82.4646C63.1242 75.5483 72.215 67.1823 81.2999 75.9228C82.8573 77.2765 84.1089 78.9461 84.9712 80.8208C85.8335 82.6954 86.287 84.7322 86.3013 86.7956C86.3436 91.7427 85.2201 94.3522 86.9054 96.8952C88.794 99.6246 89.815 102.86 89.835 106.179Z" fill="#263238"/>
<path d="M56.6852 105.352C56.4565 103.242 56.662 101.109 57.2892 99.0818C57.5801 98.0616 57.9559 97.0675 58.4127 96.11C58.6302 95.6328 58.902 95.1616 59.1316 94.7025C59.3685 94.2537 59.5705 93.7872 59.7356 93.3072C60.3476 91.3265 60.7406 89.2848 60.9074 87.2184C61.0343 86.1734 61.1793 85.1284 61.3907 84.0955C61.5965 83.0567 61.9166 82.0438 62.3451 81.0753C61.7847 83.0887 61.4603 85.1604 61.3786 87.2486C61.3001 88.2876 61.1974 89.3386 61.0524 90.3836C60.9008 91.4412 60.6521 92.4825 60.3094 93.4944C60.1235 93.9981 59.9035 94.4885 59.651 94.9623C59.3973 95.4395 59.1497 95.8744 58.9201 96.3455C58.4504 97.2702 58.0467 98.227 57.7121 99.2087C57.3802 100.195 57.1238 101.204 56.9449 102.229C56.8483 102.742 56.7879 103.256 56.7395 103.775C56.694 104.299 56.6758 104.826 56.6852 105.352Z" fill="#263238"/>
<path d="M86.2893 86.7655C86.3316 87.6051 86.2893 88.4447 86.2893 89.2783C86.2893 90.1119 86.2893 90.9455 86.3799 91.773C86.4514 92.5886 86.5908 93.3968 86.7967 94.1892C86.845 94.3885 86.9114 94.5818 86.9658 94.7932L87.0141 94.9382L87.0564 95.059L87.1893 95.3188C87.3826 95.6691 87.6061 96.0255 87.8296 96.3819C88.2585 97.1007 88.6873 97.8376 89.0377 98.6047C89.4089 99.3707 89.7199 100.164 89.9679 100.979C90.2108 101.793 90.3786 102.628 90.4693 103.473C90.5569 104.313 90.5569 105.159 90.4693 105.998C90.4105 104.334 90.0926 102.69 89.527 101.124C88.9471 99.5733 88.204 98.0891 87.3101 96.696C87.0927 96.3335 86.8752 95.9832 86.6638 95.5966C86.6155 95.5 86.5671 95.3973 86.5188 95.2885C86.5188 95.2342 86.4705 95.1738 86.4524 95.1194L86.4101 94.9624C86.3497 94.757 86.2832 94.5516 86.241 94.3583C86.0495 93.5272 85.9383 92.6797 85.9087 91.8274C85.8854 90.9808 85.9136 90.1336 85.9933 89.2904C86.0779 88.4266 86.1745 87.5991 86.2893 86.7655Z" fill="#263238"/>
<path d="M106.199 133.277C106.199 133.277 120.744 119.867 110.741 100.495C110.741 100.495 104.411 101.498 102.749 101.172C97.7117 100.193 93.9365 97.4027 88.1316 95.2402C82.3268 93.0777 78.328 94.7811 76.0206 98.7195C75.4467 99.698 72.6198 114.062 74.6856 119.16C76.3105 123.165 82.8946 124.325 82.8946 124.325C82.8946 124.325 95.1264 134.497 106.199 133.277Z" fill="#F97316"/>
<path d="M83.4865 98.055C83.4443 98.7134 81.1126 103.304 78.2072 103.648C77.2649 103.757 76.4313 98.6228 76.4313 98.6228L76.2863 98.2543L74.2145 93.1441L79.7898 88.1004L80.5992 87.4238C80.5992 87.4238 81.0764 88.8615 81.6502 90.6555C81.6502 90.74 81.7046 90.8185 81.7288 90.9091C81.7529 90.9998 81.8013 91.1024 81.8254 91.1991C81.916 91.4649 82.0066 91.7427 82.0912 92.0146C82.1758 92.2864 82.218 92.4253 82.2785 92.6186C82.3389 92.8119 82.3993 93.0535 82.4657 93.277C82.9155 94.8443 83.2566 96.4407 83.4865 98.055Z" fill="#FACFA4"/>
<path d="M81.6502 90.6555C81.3597 92.2349 80.7295 93.7324 79.8034 95.0444C78.8773 96.3564 77.6773 97.4516 76.2863 98.2543L74.2145 93.1441L79.7898 88.1004L80.5992 87.4238C80.5992 87.4238 81.0764 88.8615 81.6502 90.6555Z" fill="#263238"/>
<path d="M65.033 87.4602C67.1955 96.8953 73.091 96.6658 75.1266 96.1947C76.975 95.7718 83.2087 94.0865 82.0308 84.4762C80.8529 74.8659 75.779 72.8907 71.5084 73.6397C67.2378 74.3887 62.8706 78.0251 65.033 87.4602Z" fill="#FACFA4"/>
<path d="M66.4465 85.6238C66.6537 85.5286 66.8554 85.4217 67.0505 85.3036C67.274 85.2179 67.463 85.0608 67.5881 84.8567C67.6154 84.7863 67.6183 84.7088 67.5964 84.6365C67.5745 84.5643 67.529 84.5014 67.4673 84.458C67.332 84.3878 67.1801 84.3557 67.0279 84.3653C66.8757 84.3749 66.729 84.4257 66.6035 84.5124C66.3291 84.6485 66.1141 84.8806 65.9995 85.1647C65.9814 85.2273 65.9801 85.2935 65.9959 85.3567C66.0117 85.4198 66.044 85.4777 66.0894 85.5243C66.1348 85.571 66.1918 85.6048 66.2545 85.6222C66.3172 85.6397 66.3835 85.6402 66.4465 85.6238Z" fill="#263238"/>
<path d="M72.9218 83.8721C72.6923 83.9083 72.4809 83.9083 72.2513 83.9264C72.021 83.9841 71.7778 83.9606 71.5627 83.86C71.5005 83.8155 71.4548 83.7516 71.433 83.6783C71.4111 83.605 71.4142 83.5266 71.4419 83.4553C71.5164 83.3237 71.6244 83.2142 71.7549 83.1379C71.8854 83.0615 72.0337 83.0209 72.1849 83.0204C72.4946 82.9729 72.8109 83.0418 73.0728 83.2137C73.1305 83.2563 73.1745 83.3148 73.1993 83.3821C73.2242 83.4494 73.2289 83.5224 73.2129 83.5923C73.1969 83.6622 73.1608 83.7259 73.1091 83.7756C73.0574 83.8253 72.9923 83.8588 72.9218 83.8721Z" fill="#263238"/>
<path d="M72.3963 86.5841C72.3963 86.5539 72.4567 86.5841 72.4627 86.6264C72.6198 87.2667 72.9037 87.9734 73.5379 88.0217V88.058C72.8131 88.1546 72.4446 87.2123 72.3963 86.5841Z" fill="#263238"/>
<path d="M72.7769 85.7628C73.7796 85.4003 74.432 87.4239 73.5017 87.7621C72.5715 88.1004 71.9433 86.0648 72.7769 85.7628Z" fill="#263238"/>
<path d="M73.2118 85.7386C73.4232 85.799 73.6648 85.944 73.8822 85.8957C74.0997 85.8473 74.2568 85.5695 74.3534 85.2916C74.3534 85.2614 74.3534 85.2916 74.3957 85.2916C74.4867 85.4666 74.5074 85.6698 74.4535 85.8596C74.3996 86.0494 74.2752 86.2114 74.1057 86.3125C73.9187 86.3734 73.7156 86.3619 73.5366 86.2802C73.3577 86.1985 73.2159 86.0527 73.1393 85.8715C73.097 85.8413 73.1272 85.7144 73.2118 85.7386Z" fill="#263238"/>
<path d="M68.3734 87.5627C68.3734 87.5627 68.3311 87.605 68.3734 87.6292C68.5969 88.2332 68.7539 89.0004 68.2586 89.393C68.2586 89.393 68.2586 89.4353 68.2586 89.4292C68.9049 89.1212 68.6875 88.1124 68.3734 87.5627Z" fill="#263238"/>
<path d="M67.6002 87.0916C66.5673 87.3453 67.1532 89.393 68.1076 89.1574C69.062 88.9218 68.464 86.8741 67.6002 87.0916Z" fill="#263238"/>
<path d="M67.2076 87.3513C67.0807 87.5024 66.978 87.744 66.7848 87.8164C66.5915 87.8889 66.3378 87.7198 66.1324 87.5507C66.1324 87.5507 66.1324 87.5507 66.1324 87.5809C66.2351 87.9735 66.4827 88.342 66.8754 88.3118C67.268 88.2816 67.3948 87.8708 67.3767 87.4601C67.3465 87.3815 67.2619 87.3091 67.2076 87.3513Z" fill="#263238"/>
<path d="M70.3003 90.0333C70.3003 90.0333 70.4573 91.0118 70.5963 91.4588C70.5963 91.5011 70.7231 91.4588 70.8741 91.4588C71.2778 91.4127 71.6609 91.2557 71.9808 91.0051C72.3007 90.7546 72.5449 90.4202 72.6862 90.0393C72.6862 89.9849 72.6319 89.9608 72.6017 89.997C72.1558 90.5602 71.5388 90.963 70.8439 91.1447C70.7775 91.0299 70.6265 89.4594 70.554 89.4715C70.2186 89.6092 69.9036 89.7921 69.6177 90.0151C69.2251 87.9795 69.1586 85.9016 68.7418 83.8781C68.7418 83.8056 68.615 83.8177 68.615 83.8781C68.6144 86.1095 68.837 88.3354 69.2794 90.5225C69.3338 90.7762 70.1432 90.1601 70.3003 90.0333Z" fill="#263238"/>
<path d="M82.0852 85.0922C79.669 85.7687 76.6488 78.6833 76.2984 77.8074C76.4978 78.3692 77.5065 81.3531 77.3495 81.5464C77.0932 81.6239 76.8255 81.6566 76.5582 81.6431C76.4428 81.284 76.2994 80.9346 76.1293 80.5981C76.0568 80.435 76.1776 80.9786 76.2984 81.6552H75.8152C75.5978 80.8787 75.2767 80.1351 74.8608 79.4444C74.7038 79.1786 75.036 80.4833 75.1206 81.6854C72.9037 81.7367 70.6995 82.0346 68.5486 82.5733C67.9445 82.7424 67.4371 82.9116 66.9901 83.0747C66.7062 82.1928 66.5069 81.2142 66.5069 81.4377C66.5004 82.0291 66.5509 82.6198 66.6579 83.2015L65.9995 83.4733C65.5404 82.235 65.4982 80.0424 65.3955 80.4169C65.1002 81.5497 65.0223 82.7283 65.1659 83.8901C64.3686 84.325 64.1813 84.5727 64.0907 84.3552C63.5573 81.8039 63.9514 79.1459 65.2022 76.8591C67.2801 73.114 72.9822 70.5226 77.6998 73.7664C77.6998 73.7664 81.0221 74.6845 82.3751 77.4389C83.7282 80.1934 83.4684 84.7056 82.0852 85.0922Z" fill="#263238"/>
<path d="M80.7019 85.5453C80.7019 85.5453 81.7831 82.0177 83.3234 82.3137C84.8638 82.6096 84.6886 87.2668 83.3234 88.3541C83.1601 88.5022 82.9684 88.6158 82.7601 88.6881C82.5517 88.7603 82.3308 88.7897 82.1108 88.7745C81.8908 88.7592 81.6761 88.6997 81.4797 88.5994C81.2832 88.4992 81.1091 88.3602 80.9677 88.191L80.7019 85.5453Z" fill="#FACFA4"/>
<path d="M83.2389 83.6487V83.691C82.3026 84.4702 82.0308 85.6481 81.9946 86.8078C82.0223 86.6805 82.0773 86.5608 82.1559 86.4568C82.2344 86.3529 82.3345 86.2672 82.4494 86.2058C82.5643 86.1443 82.6911 86.1085 82.8212 86.1009C82.9512 86.0932 83.0814 86.1139 83.2027 86.1615C83.2389 86.1615 83.2027 86.2219 83.2027 86.2279C82.9948 86.2283 82.7921 86.293 82.6223 86.413C82.4526 86.533 82.324 86.7026 82.2543 86.8984C82.1444 87.2303 82.0675 87.5723 82.0248 87.9193C82.0248 88.028 81.8194 88.034 81.8194 87.9193V87.9132C81.3422 86.5239 81.8134 84.289 83.2389 83.6487Z" fill="#263238"/>
<path d="M91.7679 99.7523C99.6749 109.574 110.493 126.258 105.963 130.148C98.5393 136.545 76.4977 140.664 71.4359 141.395C69.2553 141.715 64.5196 127.502 65.933 125.611C67.3465 123.721 90.6988 121.848 90.8438 120.411C90.9162 119.595 88.8444 112.655 86.3497 104.023C83.4684 94.0623 89.5028 96.9737 91.7679 99.7523Z" fill="#FACFA4"/>
<path d="M69.7385 124.343C69.7385 124.343 63.0276 124.452 58.6362 124.73C56.22 124.887 51.9917 125.533 50.2702 126.469C47.6607 127.871 37.6336 135.397 39.3974 137.868C41.0042 140.109 48.7963 132.54 48.7963 132.54C48.7963 132.54 40.2673 139.48 42.6834 141.818C45.0996 144.156 52.7891 134.424 52.7891 134.424C52.7891 134.424 44.1815 141.752 47.0627 143.763C49.2433 145.285 56.6851 136.877 56.6851 136.877C56.6851 136.877 49.3279 143.237 51.5025 144.899C53.9186 146.711 61.2577 139.402 61.2577 139.402C67.4975 142.694 71.8164 141.709 74.8064 140.646C75.5313 140.386 69.7385 124.343 69.7385 124.343Z" fill="#FACFA4"/>
<path d="M51.6052 129.954C50.5723 130.734 49.5212 131.513 48.585 132.371C47.6487 133.228 46.6943 134.14 45.8245 135.095C44.6678 136.319 43.6545 137.67 42.8043 139.124C44.5197 136.653 47.9024 133.494 48.8447 132.624C49.787 131.754 50.7172 130.812 51.6777 129.979C51.6656 129.966 51.6293 129.936 51.6052 129.954Z" fill="#263238"/>
<path d="M54.8005 133.361C53.526 134.412 52.2213 135.409 50.989 136.521C49.7568 137.632 48.7057 138.774 47.558 139.958C47.4735 140.048 47.558 140.066 47.6426 139.958C48.8507 138.822 50.0225 137.862 51.2246 136.738C52.4266 135.614 53.5864 134.449 54.8488 133.374C54.8488 133.374 54.8186 133.349 54.8005 133.361Z" fill="#263238"/>
<path d="M58.0684 135.796C56.0802 137.36 54.2585 139.125 52.632 141.063C52.5474 141.16 52.632 141.172 52.7407 141.063C54.5226 139.251 55.9059 137.861 58.1408 135.844C58.159 135.832 58.1106 135.765 58.0684 135.796Z" fill="#263238"/>
<path d="M74.734 123.485C73.7916 123.485 71.8164 123.938 69.6117 124.089C64.6525 124.415 57.6335 124.56 55.1146 124.748C48.3614 125.255 44.3748 130.335 42.5204 132.123C41.4101 133.203 40.4105 134.39 39.5364 135.669C39.0773 136.363 38.6545 137.348 39.3008 138.085C40.0861 138.985 42.9251 137.94 45.8486 135.173C45.9513 135.071 45.8849 135.01 45.7761 135.107C41.6747 138.592 40.0015 138.242 39.5485 137.674C39.2585 137.306 39.5122 136.653 39.7538 136.146C40.1461 135.419 40.6291 134.745 41.1915 134.14C43.0561 132.036 45.1306 130.127 47.3829 128.444C49.8002 126.544 52.708 125.371 55.767 125.062C57.9355 124.832 64.6283 124.729 69.6238 124.361C71.8104 124.198 73.7735 123.715 74.7219 123.6C74.8125 123.594 74.8004 123.485 74.734 123.485Z" fill="#263238"/>
<path d="M101.88 112.214L87.6242 112.486C87.6242 112.486 85.7758 105.563 85.2926 101.583C84.6584 96.3214 86.4644 94.8536 91.2968 99.1966C94.5163 102.102 101.88 112.214 101.88 112.214Z" fill="#F97316"/>
<path d="M89.3518 112.455C89.1948 112.455 87.733 112.413 87.6243 112.455C87.431 111.634 86.4585 107.81 86.3437 107.418C86.3437 107.351 86.247 107.369 86.2591 107.418C86.3014 107.653 86.4585 108.535 86.6457 109.52V109.483C86.5491 109.308 86.4343 109.145 86.3256 108.976C86.2168 108.807 86.1262 108.614 86.0296 108.432C85.9994 108.372 85.9148 108.432 85.945 108.481C86.0477 108.656 86.1564 108.825 86.241 109.006C86.3256 109.187 86.398 109.344 86.4826 109.514L86.7544 110.009C86.9659 111.12 87.1893 112.25 87.3102 112.661C87.9977 112.645 88.6836 112.586 89.3639 112.485C89.382 112.504 89.376 112.461 89.3518 112.455Z" fill="#263238"/>
<path d="M100.394 110.867C98.3158 110.764 96.2439 110.692 94.16 110.71C93.1271 110.71 92.0881 110.746 91.0492 110.788C90.0102 110.831 88.9833 110.975 87.9444 111C87.89 111 87.896 111.09 87.9444 111.09C88.9773 111.006 90.0283 111.09 91.0612 111.042C92.0941 110.994 93.1391 111 94.1781 110.988C96.25 110.988 98.3218 110.933 100.394 110.957C100.46 110.975 100.448 110.867 100.394 110.867Z" fill="#263238"/>
<path d="M96.5459 105.092C96.5459 105.092 96.4976 105.092 96.5097 105.092C98.1238 107.512 99.8596 109.849 101.71 112.093C101.34 112.11 100.97 112.153 100.605 112.22C101.092 112.257 101.58 112.257 102.067 112.22C102.097 112.244 97.0775 105.551 96.5459 105.092Z" fill="#263238"/>
<path d="M80.581 55.9834C78.932 59.8976 74.5889 62.4225 74.5889 62.4225C74.5889 62.4225 69.974 60.4412 67.8659 56.7566C66.1021 53.688 66.8874 50.2027 69.3156 49.3087C72.801 48.0161 74.0876 54.1411 74.0876 54.1411C74.0876 54.1411 74.6191 47.9073 78.2374 48.759C80.7381 49.357 81.9462 52.7216 80.581 55.9834Z" fill="#F97316"/>
<path d="M63.2209 45.31C63.6135 48.759 61.5296 52.2987 61.5296 52.2987C61.5296 52.2987 57.4523 52.7337 54.4743 50.9578C51.9857 49.4718 51.1521 46.6751 52.5233 45.0623C54.4864 42.7488 57.857 46.5966 57.857 46.5966C57.857 46.5966 55.7428 41.9454 58.6604 41.1058C60.6779 40.5199 62.8766 42.4347 63.2209 45.31Z" fill="#F97316"/>
<path d="M85.4617 13.0119C85.8544 16.4609 83.7704 19.9946 83.7704 19.9946C83.7704 19.9946 79.6931 20.4355 76.7152 18.6536C74.2265 17.1737 73.393 14.377 74.7641 12.7642C76.7273 10.4507 80.0978 14.2985 80.0978 14.2985C80.0978 14.2985 77.9837 9.64734 80.9012 8.80772C82.9368 8.24596 85.1356 10.1608 85.4617 13.0119Z" fill="#F97316"/>
<path d="M76.1655 30.8976C74.8306 33.0299 72.046 34.093 72.046 34.093C72.046 34.093 69.5392 32.4983 68.6512 30.1426C67.9143 28.1734 68.7056 26.2102 70.2157 25.9143C72.3722 25.4914 72.5413 29.1942 72.5413 29.1942C72.5413 29.1942 73.4473 25.57 75.483 26.4458C76.9025 27.0438 77.283 29.1217 76.1655 30.8976Z" fill="#F97316"/>
<path d="M66.3438 2.74306C66.14 3.78741 65.6483 4.75399 64.9243 5.53374C63.8687 5.38386 62.8765 4.94011 62.0611 4.25317C61.1611 3.37127 61.0886 2.10277 61.8316 1.55913C62.8947 0.773877 63.9397 2.76722 63.9397 2.76722C63.9397 2.76722 63.5108 0.580592 64.8337 0.520188C65.7579 0.429581 66.4948 1.46249 66.3438 2.74306Z" fill="#F97316"/>
</svg>
