<svg width="242" height="252" viewBox="0 0 242 252" fill="none" xmlns="http://www.w3.org/2000/svg">
<path d="M212.218 248.166C226.378 248.166 237.856 245.466 237.856 242.136C237.856 238.805 226.378 236.105 212.218 236.105C198.059 236.105 186.58 238.805 186.58 242.136C186.58 245.466 198.059 248.166 212.218 248.166Z" fill="#EBEBEB"/>
<path d="M128.321 237.615C177.436 237.615 217.252 232.609 217.252 226.434C217.252 220.259 177.436 215.252 128.321 215.252C79.2055 215.252 39.3896 220.259 39.3896 226.434C39.3896 232.609 79.2055 237.615 128.321 237.615Z" fill="#EBEBEB"/>
<path d="M116.825 252C165.94 252 205.756 246.994 205.756 240.819C205.756 234.643 165.94 229.637 116.825 229.637C67.7092 229.637 27.8933 234.643 27.8933 240.819C27.8933 246.994 67.7092 252 116.825 252Z" fill="#EBEBEB"/>
<path d="M5.19836 208.707L33.2156 208.569L61.2328 208.525L117.267 208.431L173.302 208.525L201.319 208.569L229.336 208.707L201.319 208.84L173.302 208.89L117.267 208.984L61.2328 208.89L33.2156 208.84L5.19836 208.707Z" fill="#263238"/>
<path d="M116.918 69.9184C121.25 39.9676 100.481 12.1759 70.5306 7.84386C40.5798 3.51187 12.7881 24.28 8.45607 54.2309C4.12408 84.1817 24.8923 111.973 54.8431 116.305C84.7939 120.637 112.586 99.8692 116.918 69.9184Z" fill="#434E61"/>
<path opacity="0.1" d="M117.424 65.633C118.714 36.7866 96.3747 12.3564 67.5283 11.0667C38.6818 9.77694 14.2516 32.1161 12.9619 60.9625C11.6722 89.8089 34.0113 114.239 62.8578 115.529C91.7042 116.819 116.134 94.4795 117.424 65.633Z" fill="black"/>
<path d="M114.104 65.9709C115.577 38.9599 94.8733 15.8696 67.8624 14.3973C40.8514 12.925 17.7611 33.6282 16.2888 60.6392C14.8165 87.6501 35.5196 110.74 62.5306 112.213C89.5416 113.685 112.632 92.9819 114.104 65.9709Z" fill="white"/>
<path d="M113.067 52.9033C90.7595 66.4195 54.1004 88.5887 33.6131 100.744C27.821 95.8596 23.24 89.6991 20.2297 82.7463L87.9932 19.9399C94.3243 23.2725 99.8495 27.9501 104.181 33.6445C108.513 39.339 111.546 45.9123 113.067 52.9033Z" fill="#EBEBEB"/>
<path d="M114.141 64.9919C113.963 70.4418 112.869 75.8229 110.904 80.9093L49.8131 109.806C47.1506 108.926 44.57 107.815 42.1006 106.487C60.5519 95.8363 94.2733 76.4334 114.141 64.9919Z" fill="#EBEBEB"/>
<path d="M65.6687 17.8762H64.7227V25.301H65.6687V17.8762Z" fill="#C7C7C7"/>
<path d="M42.894 23.7196L42.0747 24.1926L45.7871 30.6227L46.6064 30.1496L42.894 23.7196Z" fill="#C7C7C7"/>
<path d="M26.0864 40.1702L25.6133 40.9895L32.0434 44.7019L32.5164 43.8826L26.0864 40.1702Z" fill="#C7C7C7"/>
<path d="M27.1966 62.8286H19.7719V63.7747H27.1966V62.8286Z" fill="#C7C7C7"/>
<path d="M32.0444 81.8941L25.6144 85.6064L26.0874 86.4258L32.5175 82.7134L32.0444 81.8941Z" fill="#C7C7C7"/>
<path d="M45.7847 95.975L42.0757 102.407L42.8953 102.88L46.6043 96.4476L45.7847 95.975Z" fill="#C7C7C7"/>
<path d="M65.6687 101.302H64.7227V108.727H65.6687V101.302Z" fill="#C7C7C7"/>
<path d="M84.6069 95.9752L83.7876 96.4482L87.5 102.878L88.3193 102.405L84.6069 95.9752Z" fill="#C7C7C7"/>
<path d="M98.3394 81.8838L97.8664 82.7031L104.296 86.4155L104.769 85.5962L98.3394 81.8838Z" fill="#C7C7C7"/>
<path d="M110.622 62.8286H103.198V63.7747H110.622V62.8286Z" fill="#C7C7C7"/>
<path d="M104.3 40.1865L97.8703 43.8989L98.3433 44.7183L104.773 41.0059L104.3 40.1865Z" fill="#C7C7C7"/>
<path d="M87.5015 23.7272L83.7925 30.1592L84.6121 30.6318L88.3211 24.1998L87.5015 23.7272Z" fill="#C7C7C7"/>
<path d="M65.9085 21.2345L67.5185 66.6075L62.8711 66.5466L64.6471 21.2234L65.9085 21.2345Z" fill="#434E61"/>
<path d="M94.1684 47.4757L63.645 66.9616L61.4264 62.8785L93.5654 46.3691L94.1684 47.4757Z" fill="#263238"/>
<path d="M65.1953 64.8869C66.0722 64.8869 66.7831 64.176 66.7831 63.299C66.7831 62.4221 66.0722 61.7112 65.1953 61.7112C64.3183 61.7112 63.6074 62.4221 63.6074 63.299C63.6074 64.176 64.3183 64.8869 65.1953 64.8869Z" fill="#434E61"/>
<path d="M172.432 163.318C175.282 164.74 178.098 166.217 180.908 167.699C183.719 169.182 186.513 170.704 189.318 172.209C192.123 173.713 194.895 175.268 197.667 176.828L201.816 179.18C203.188 179.982 204.583 180.768 205.938 181.586C204.511 180.878 203.105 180.142 201.683 179.418L197.462 177.205C194.646 175.722 191.857 174.195 189.052 172.695C186.247 171.196 183.481 169.63 180.709 168.07C177.937 166.51 175.171 164.939 172.432 163.318Z" fill="#A6A6A6"/>
<path d="M203.577 163.318C201.038 164.778 198.465 166.189 195.892 167.594C193.32 169 190.725 170.361 188.147 171.738C185.568 173.116 182.951 174.444 180.335 175.772L176.406 177.747C175.09 178.383 173.778 179.041 172.451 179.667C173.718 178.931 175.007 178.228 176.279 177.503L180.152 175.39C182.73 173.99 185.325 172.623 187.898 171.246C190.47 169.868 193.098 168.54 195.71 167.218C198.321 165.896 200.927 164.579 203.577 163.318Z" fill="#A6A6A6"/>
<path d="M140.808 163.318C143.657 164.74 146.473 166.217 149.284 167.699C152.094 169.182 154.888 170.704 157.693 172.209C160.499 173.713 163.27 175.268 166.037 176.828L170.192 179.18C171.564 179.982 172.958 180.768 174.313 181.586C172.886 180.878 171.481 180.142 170.059 179.418L165.838 177.205C163.021 175.722 160.233 174.195 157.428 172.695C154.623 171.196 151.851 169.63 149.085 168.07C146.318 166.51 143.547 164.939 140.808 163.318Z" fill="#A6A6A6"/>
<path d="M171.944 163.318C169.405 164.778 166.832 166.189 164.259 167.594C161.687 169 159.086 170.361 156.514 171.738C153.941 173.116 151.319 174.444 148.702 175.772L144.774 177.747C143.457 178.383 142.146 179.041 140.818 179.667C142.085 178.931 143.374 178.228 144.646 177.503L148.519 175.39C151.097 173.99 153.692 172.623 156.265 171.246C158.837 169.868 161.465 168.54 164.077 167.218C166.688 165.896 169.3 164.579 171.944 163.318Z" fill="#A6A6A6"/>
<path d="M146.589 158.941L144.913 168.989L133.566 230.285H131.734L139.989 168.989L141.206 158.941H146.589Z" fill="#A6A6A6"/>
<path d="M141.206 158.941H146.59L144.913 168.989H139.989L141.206 158.941Z" fill="#263238"/>
<path d="M182.236 230.285H180.405L169.058 168.989L167.381 158.941H172.764L173.982 168.989L182.236 230.285Z" fill="#A6A6A6"/>
<path d="M172.764 158.941L173.982 168.989H169.058L167.381 158.941H172.764Z" fill="#263238"/>
<path d="M216.284 230.285H214.453L203.1 168.989L201.423 158.941H206.807L208.029 168.989L216.284 230.285Z" fill="#A6A6A6"/>
<path d="M208.029 168.989H203.1L201.423 158.941H206.807L208.029 168.989Z" fill="#263238"/>
<path d="M213.379 163.661H130.207V154.897H161.339L171.807 87.5374H210.209L213.379 163.661Z" fill="#A6A6A6"/>
<path d="M213.379 163.661H208.848L205.894 87.5374H210.209L213.379 163.661Z" fill="#DBDBDB"/>
<path d="M155.602 106.885C159.629 110.586 165.787 111.311 171.01 110.874C176.338 110.42 182.197 109.026 186.595 105.856C188.581 104.492 190.147 102.604 191.121 100.401C192.1 98.0218 191.912 95.7091 190.192 93.8778C188.808 92.4006 186.153 91.5984 185.92 90.088C185.688 88.5776 186.728 87.2 186.85 85.7006C187.049 83.1335 185.439 81.4792 183.475 80.1293C178.822 76.9259 179.165 71.7197 175.94 67.3489C174.108 64.8648 169.328 60.4885 162.473 63.8523C159.862 65.1303 158.368 67.9299 157.649 70.7017C156.802 73.9604 158.346 77.8443 157.19 81.0311C156.199 83.7476 154.252 84.4503 153.317 87.283C152.924 88.5112 152.852 89.8833 154.468 92.3951C155.054 93.3024 155.746 94.7188 155.519 95.936C155.203 97.629 153.427 98.6525 153.062 100.423C152.581 102.857 153.826 105.253 155.602 106.885Z" fill="#263238"/>
<path d="M189.611 101.28C192.023 100.495 192.56 96.8931 190.718 95.3771C189.556 94.4144 187.99 94.1267 186.845 93.1641C184.931 91.5873 186.142 89.7173 186.751 87.7919C188.073 83.6148 185.058 81.3907 181.926 79.4155C179.547 77.9106 178.806 75.8912 178.258 73.2245C178.258 73.1858 178.314 73.1692 178.325 73.2245C178.823 75.172 179.392 77.0697 180.997 78.4086C182.303 79.5151 183.913 80.1292 185.191 81.2689C187.332 83.1777 187.913 85.518 187.022 88.2068C186.767 88.9814 186.198 89.8998 186.17 90.7076C186.109 92.6053 187.63 93.3466 189.074 94.0272C190.181 94.5804 191.415 95.1779 191.979 96.3509C192.837 98.1268 191.57 100.915 189.689 101.408C189.572 101.452 189.517 101.314 189.611 101.28Z" fill="#263238"/>
<path d="M188.56 103.372C189.933 102.21 191.448 101.12 192.09 99.3607C193.036 96.7604 191.111 95.2112 189.324 93.7506C188.549 93.1254 187.885 92.4837 187.758 91.4491C187.576 89.9055 188.483 88.4393 188.433 86.8847C188.306 83.1778 184.405 81.5291 182.198 79.139C179.99 76.7489 178.878 73.6063 177.694 70.5468C177.694 70.4804 177.772 70.4417 177.794 70.5081C179.299 74.3809 181.064 77.9993 184.367 80.666C186.674 82.5249 189.136 84.5388 188.71 87.8197C188.605 88.6219 188.262 89.3965 188.157 90.1932C187.985 91.7866 188.549 92.7105 189.717 93.651C190.884 94.5916 192.123 95.4547 192.533 96.9153C193.335 99.7535 190.774 102.121 188.71 103.582C188.682 103.593 188.652 103.594 188.623 103.586C188.595 103.578 188.57 103.56 188.553 103.536C188.536 103.511 188.527 103.482 188.528 103.452C188.53 103.423 188.541 103.394 188.56 103.372Z" fill="#263238"/>
<path d="M152.283 99.6153C153.218 97.6623 155.049 96.4727 154.103 94.0495C153.467 92.3897 152.311 91.1504 152.355 89.2637C152.465 87.7418 153.091 86.303 154.131 85.1862C155.365 83.6813 156.787 82.4199 157.567 80.5775C158.413 78.5858 158.585 76.3893 158.778 74.2648C158.778 74.2205 158.85 74.2261 158.85 74.2648C158.751 77.1252 158.54 80.0796 156.803 82.4973C155.896 83.7532 154.712 84.7934 153.821 86.0604C152.217 88.3453 152.593 90.4865 153.821 92.8102C154.374 93.8779 154.928 94.9513 154.601 96.1851C154.275 97.4188 153.318 98.3096 152.72 99.394C150.186 104.008 155.995 108.357 160.2 108.423C160.388 108.423 160.416 108.716 160.2 108.716C157.069 108.761 153.367 106.503 152.183 103.593C151.921 102.96 151.794 102.279 151.811 101.594C151.828 100.908 151.989 100.234 152.283 99.6153Z" fill="#263238"/>
<path d="M152.786 101.778C152.509 99.9416 153.466 98.741 154.097 97.1642C155.087 94.6801 153.289 92.6994 152.714 90.3481C152.545 89.5743 152.532 88.7746 152.675 87.9956C152.819 87.2167 153.116 86.4742 153.549 85.8113C154.656 83.9523 156.194 82.4917 156.996 80.4391C157.833 78.2355 158.006 75.8352 157.494 73.5344C157.494 73.4902 157.549 73.4902 157.561 73.5344C157.973 75.0778 158.057 76.6903 157.809 78.2683C157.56 79.8463 156.983 81.3547 156.117 82.6964C155.01 84.406 153.35 85.9275 152.924 88.041C152.471 90.254 153.854 92.0244 154.495 94.0715C154.698 94.6721 154.777 95.3072 154.73 95.9391C154.682 96.5711 154.508 97.1871 154.219 97.7507C153.715 98.5894 153.342 99.4998 153.112 100.451C152.988 101.826 153.361 103.2 154.163 104.323C156.46 107.881 160.88 109.607 164.803 109.579C164.941 109.579 164.969 109.801 164.803 109.801C163.026 109.838 161.258 109.524 159.603 108.875C157.948 108.227 156.438 107.257 155.159 106.022C153.933 104.899 153.101 103.411 152.786 101.778Z" fill="#263238"/>
<path d="M127.945 230.495C129.422 231.004 171.769 231.303 173.39 230.296C174.004 229.919 175.188 212.979 174.839 211.324C173.666 205.709 168.062 188.69 168.062 188.69L139.735 188.408L147.292 211.053L147.386 216.033C147.386 216.033 131.098 223.148 129.439 224.448C127.779 225.748 126.468 229.991 127.945 230.495Z" fill="#FECCAA"/>
<path d="M127.813 230.556C129.301 231.065 171.88 231.369 173.512 230.356C174.27 229.886 174.713 220.835 174.973 211.274L147.277 210.998L147.365 215.977C147.365 215.977 131.011 223.17 129.34 224.459C127.669 225.748 126.33 230.047 127.813 230.556Z" fill="#FB8A3C"/>
<path d="M128.438 228.857C135.575 228.735 164.4 228.907 171.454 229.327C171.509 229.327 171.509 229.366 171.454 229.372C164.378 229.648 135.575 229.244 128.438 228.973C128.288 228.968 128.288 228.857 128.438 228.857Z" fill="#263238"/>
<path d="M146.368 214.4C149.185 213.897 152.615 214.351 154.745 216.37C154.828 216.447 154.717 216.564 154.629 216.536C151.951 215.647 149.185 215.05 146.379 214.755C146.333 214.756 146.287 214.739 146.253 214.707C146.218 214.674 146.198 214.63 146.197 214.583C146.195 214.536 146.213 214.49 146.245 214.456C146.277 214.422 146.321 214.402 146.368 214.4Z" fill="#263238"/>
<path d="M144.332 215.606C147.143 215.103 150.578 215.557 152.708 217.576C152.791 217.654 152.681 217.77 152.587 217.742C149.91 216.855 147.147 216.258 144.343 215.961C144.296 215.962 144.251 215.945 144.216 215.913C144.182 215.88 144.162 215.836 144.161 215.789C144.159 215.742 144.176 215.696 144.208 215.662C144.241 215.628 144.285 215.608 144.332 215.606Z" fill="#263238"/>
<path d="M142.296 216.813C145.107 216.309 148.543 216.768 150.673 218.782C150.756 218.86 150.645 218.976 150.551 218.948C147.875 218.064 145.111 217.468 142.307 217.172C142.265 217.166 142.226 217.145 142.197 217.113C142.168 217.081 142.152 217.04 142.151 216.997C142.149 216.954 142.163 216.912 142.19 216.878C142.217 216.845 142.254 216.821 142.296 216.813Z" fill="#263238"/>
<path d="M140.262 218.024C143.073 217.515 146.509 217.975 148.639 219.988C148.722 220.071 148.611 220.188 148.517 220.154C145.84 219.27 143.077 218.674 140.273 218.378C140.226 218.38 140.181 218.363 140.146 218.331C140.112 218.298 140.092 218.254 140.091 218.207C140.089 218.16 140.106 218.114 140.139 218.08C140.171 218.046 140.215 218.026 140.262 218.024Z" fill="#263238"/>
<path d="M142.457 211.877C144.432 213.438 147.016 214.091 149.328 214.959C149.566 215.053 149.76 214.826 149.771 214.611C149.783 214.611 149.794 214.608 149.805 214.602C149.815 214.596 149.824 214.588 149.831 214.579C149.837 214.569 149.841 214.557 149.842 214.546C149.844 214.534 149.842 214.522 149.837 214.511C149.005 212.018 147.53 209.789 145.56 208.049C144.393 207.053 142.34 206.356 141.228 207.866C140.116 209.377 141.306 210.965 142.457 211.877ZM141.76 209.609C141.284 206.527 144.581 208.165 145.411 208.934C145.942 209.438 146.436 209.98 146.888 210.555C147.813 211.749 148.676 212.99 149.472 214.273C148.366 213.775 147.22 213.377 146.092 212.918C144.747 212.37 142.02 211.313 141.76 209.609Z" fill="#263238"/>
<path d="M159.248 210.301C158.579 208.542 156.415 208.641 155.027 209.305C152.664 210.452 150.643 212.2 149.168 214.373C149.161 214.382 149.156 214.393 149.155 214.405C149.153 214.416 149.153 214.428 149.156 214.439C149.16 214.45 149.165 214.46 149.173 214.469C149.181 214.478 149.19 214.485 149.201 214.489C149.185 214.542 149.182 214.597 149.192 214.651C149.202 214.705 149.224 214.756 149.257 214.8C149.289 214.844 149.332 214.88 149.381 214.905C149.43 214.929 149.484 214.942 149.538 214.943C152 214.721 154.662 214.788 156.985 213.836C158.341 213.266 159.868 211.961 159.248 210.301ZM153.229 213.853C152.023 213.991 150.811 214.069 149.61 214.251C150.723 213.23 151.886 212.266 153.096 211.363C153.689 210.935 154.31 210.547 154.955 210.201C155.962 209.687 159.58 208.99 158.274 211.861C157.555 213.405 154.645 213.687 153.229 213.853Z" fill="#263238"/>
<path d="M194.11 146.543C188.914 151.705 181.678 154.964 175.52 158.161C170.231 160.884 165.744 163.539 164.045 167.279C162.557 170.599 174.906 207.009 174.906 207.009L144.93 209.72C144.93 209.72 131.89 174.09 135.154 158.753C135.707 156.236 138.202 152.977 141.793 149.42C154.623 136.75 181.224 120.285 181.224 120.285H197.562C197.562 120.285 204.339 136.363 194.11 146.543Z" fill="#455A64"/>
<path d="M195.72 123.842C195.654 123.101 195.577 122.36 195.505 121.629C195.505 121.557 195.383 121.557 195.394 121.629C196.069 127.582 196.628 134.111 193.823 139.638C191.123 144.949 185.712 148.147 180.893 151.301L172.152 157.11L167.77 159.998C166.568 160.755 165.407 161.573 164.29 162.449C163.27 163.238 162.409 164.212 161.75 165.32C161.075 166.575 160.787 168.002 160.92 169.42C161.634 178.992 171.111 204.342 171.333 205.161C171.349 205.198 171.378 205.227 171.415 205.244C171.452 205.261 171.493 205.264 171.532 205.252C171.57 205.241 171.603 205.215 171.625 205.181C171.646 205.147 171.654 205.107 171.648 205.067C169.59 198.682 164.041 184.474 161.557 171.661C161.241 170.001 161.003 168.28 161.518 166.648C161.972 165.349 162.758 164.192 163.797 163.29C164.811 162.39 165.897 161.576 167.045 160.856L171.471 157.912L180.152 152.175C184.893 149.038 190.238 145.995 193.319 141.038C196.556 135.881 196.246 129.652 195.72 123.842Z" fill="#263238"/>
<path d="M194.109 146.543C188.914 151.705 181.677 154.963 175.52 158.161C164.637 155.306 150.894 151.738 141.771 149.442C154.601 136.772 181.202 120.307 181.202 120.307H197.539C197.539 120.307 204.339 136.363 194.109 146.543Z" fill="#263238"/>
<path d="M72.4514 209.045C73.7128 209.963 114.051 222.849 115.899 222.368C116.602 222.191 118.82 216.426 121.304 209.383C121.858 207.861 122.411 206.29 122.931 204.685C126.477 194.295 129.996 183.186 129.996 183.186L103.036 174.488L96.7064 196.226L95.3177 201.001C95.3177 201.001 77.6631 202.976 75.6935 203.723C73.7239 204.47 71.1899 208.121 72.4514 209.045Z" fill="#FECCAA"/>
<path d="M72.3101 209.062C73.5771 209.991 114.142 222.943 116.018 222.462C116.875 222.24 119.99 213.726 123.089 204.68L96.7201 196.176L95.3203 200.973C95.3203 200.973 77.5717 202.959 75.591 203.706C73.6103 204.453 71.0432 208.138 72.3101 209.062Z" fill="#FB8A3C"/>
<path d="M73.4098 207.623C80.2592 209.631 107.712 218.362 114.351 220.868C114.406 220.868 114.395 220.923 114.351 220.907C107.513 219.07 80.1319 210.113 73.4098 207.739C73.2272 207.684 73.2604 207.584 73.4098 207.623Z" fill="#263238"/>
<path d="M94.8253 199.158C97.6636 199.512 100.806 200.967 102.239 203.529C102.294 203.629 102.156 203.706 102.073 203.651C99.7805 202.009 97.3193 200.616 94.7313 199.496C94.6924 199.478 94.6611 199.448 94.6429 199.409C94.6248 199.371 94.6211 199.327 94.6325 199.286C94.6439 199.245 94.6696 199.21 94.7051 199.186C94.7405 199.163 94.7832 199.153 94.8253 199.158Z" fill="#263238"/>
<path d="M92.5249 199.706C95.3576 200.06 98.5001 201.515 99.9386 204.077C99.9939 204.171 99.8501 204.248 99.7726 204.199C97.4788 202.555 95.0157 201.162 92.4253 200.044C92.3852 200.027 92.3527 199.996 92.3341 199.956C92.3154 199.917 92.3119 199.872 92.3243 199.83C92.3366 199.789 92.3639 199.753 92.4009 199.73C92.4379 199.707 92.482 199.698 92.5249 199.706Z" fill="#263238"/>
<path d="M90.2231 200.248C93.0558 200.607 96.1983 202.063 97.6313 204.619C97.6921 204.718 97.5483 204.796 97.4708 204.74C95.1755 203.101 92.7126 201.71 90.1235 200.591C90.0866 200.571 90.0577 200.539 90.0414 200.501C90.0252 200.462 90.0227 200.419 90.0344 200.379C90.0461 200.339 90.0712 200.304 90.1055 200.28C90.1399 200.256 90.1814 200.245 90.2231 200.248Z" fill="#263238"/>
<path d="M87.9433 200.796C90.7815 201.15 93.9241 202.61 95.357 205.167C95.4123 205.266 95.274 205.344 95.191 205.288C92.899 203.647 90.4377 202.256 87.8492 201.139C87.813 201.119 87.7844 201.088 87.7682 201.05C87.752 201.012 87.7491 200.97 87.76 200.93C87.7709 200.89 87.795 200.855 87.8283 200.831C87.8615 200.807 87.9021 200.794 87.9433 200.796Z" fill="#263238"/>
<path d="M91.844 195.562C93.2659 197.637 95.5398 199.025 97.4872 200.541C97.5328 200.572 97.5852 200.592 97.64 200.598C97.6948 200.605 97.7503 200.598 97.8019 200.578C97.8535 200.559 97.8996 200.527 97.9363 200.486C97.973 200.445 97.9993 200.395 98.0128 200.342C98.0243 200.344 98.0362 200.344 98.0476 200.342C98.059 200.339 98.0696 200.334 98.0787 200.326C98.0878 200.319 98.095 200.309 98.0999 200.299C98.1048 200.288 98.1072 200.276 98.1069 200.265C98.0498 197.637 97.3039 195.071 95.9436 192.823C95.1248 191.528 93.3765 190.25 91.8606 191.363C90.3446 192.475 91.0141 194.372 91.844 195.562ZM91.844 193.188C92.3087 190.101 94.9699 192.635 95.5342 193.631C95.8907 194.27 96.2013 194.934 96.4637 195.617C96.9897 197.034 97.4439 198.476 97.8247 199.938C96.9119 199.13 95.9381 198.406 94.9976 197.637C93.8855 196.735 91.595 194.914 91.8495 193.21L91.844 193.188Z" fill="#263238"/>
<path d="M108.343 199.07C108.227 197.194 106.13 196.669 104.609 196.857C102.007 197.26 99.5572 198.34 97.5047 199.988C97.4954 199.995 97.488 200.005 97.4829 200.015C97.4778 200.026 97.4751 200.037 97.4751 200.049C97.4751 200.061 97.4778 200.072 97.4829 200.083C97.488 200.093 97.4954 200.103 97.5047 200.11C97.4687 200.155 97.4446 200.209 97.4345 200.265C97.4244 200.322 97.4286 200.381 97.4467 200.436C97.4648 200.491 97.4963 200.54 97.5383 200.58C97.5802 200.619 97.6314 200.648 97.6872 200.663C100.105 201.183 102.628 202.041 105.134 201.808C106.595 201.648 108.448 200.846 108.343 199.07ZM101.516 200.669C100.321 200.436 99.1423 200.154 97.9417 199.972C99.3068 199.325 100.705 198.751 102.13 198.251C102.823 198.017 103.531 197.833 104.249 197.698C105.355 197.504 109.024 197.919 106.949 200.254C105.804 201.532 102.938 200.94 101.516 200.669Z" fill="#263238"/>
<path d="M95.5383 193.653L125.414 202.444L134.676 168.347C135.484 157.077 137.514 151.611 144.142 149.536C155.429 146.039 183.004 158.941 195.491 150.288C205.632 143.251 197.543 120.257 197.543 120.257H168.22C168.22 120.257 164.679 124.567 164.027 127.101C164.027 127.101 127.716 124.302 119.589 134.603C108.728 148.435 95.5383 193.653 95.5383 193.653Z" fill="#455A64"/>
<path d="M149.235 149.044C147.487 148.892 145.727 149.029 144.023 149.447C142.404 149.884 140.896 150.657 139.597 151.716C138.338 152.741 137.318 154.029 136.609 155.489C135.779 157.199 135.503 159.135 135.21 161.022C135.049 162.128 134.944 163.235 134.883 164.341C134.822 165.448 134.778 166.986 134.778 167.932C134.778 168.015 134.889 168.02 134.889 167.932C134.905 166.937 134.988 165.945 135.138 164.961C135.259 164.026 135.425 163.096 135.586 162.167C135.851 160.315 136.283 158.492 136.875 156.717C137.446 155.198 138.325 153.813 139.457 152.649C140.589 151.486 141.95 150.569 143.453 149.956C144.363 149.589 145.314 149.332 146.286 149.193C147.269 149.087 148.258 149.056 149.246 149.099C149.246 149.099 149.257 149.044 149.235 149.044Z" fill="#263238"/>
<path d="M191.266 131.383C190.248 131.153 189.261 130.8 188.328 130.332C187.396 129.906 186.55 129.311 185.833 128.578C185.291 127.87 184.928 127.04 184.776 126.161C184.66 125.685 184.593 125.198 184.516 124.717C184.439 124.235 184.3 123.66 184.262 123.129C184.262 123.062 184.145 123.068 184.151 123.129C184.4 125.132 183.836 127.367 185.329 129.071C186.092 129.847 187.018 130.442 188.04 130.814C189.053 131.257 190.135 131.519 191.238 131.588C191.263 131.587 191.286 131.577 191.304 131.56C191.322 131.544 191.334 131.522 191.337 131.497C191.34 131.473 191.335 131.448 191.322 131.428C191.309 131.407 191.289 131.391 191.266 131.383Z" fill="#263238"/>
<path d="M196.755 126.764C196.489 125.683 196.18 124.617 195.826 123.566C195.826 123.5 195.693 123.527 195.72 123.599C197.154 127.985 197.784 132.594 197.579 137.204C197.554 139.384 197.258 141.553 196.7 143.661C196.164 145.674 194.859 147.397 193.065 148.457C191.214 149.423 189.205 150.051 187.134 150.311C184.812 150.674 182.463 150.838 180.113 150.803C175.327 150.759 170.575 150.112 165.833 149.553C161.236 149 156.638 148.374 152.029 147.959C148.256 147.622 144.234 147.583 140.743 149.254C137.423 150.853 135.254 153.901 133.838 157.215C132.245 160.961 131.343 165 130.264 168.911C128.98 173.575 122.352 199.009 122.253 200.099C122.253 200.204 122.402 200.198 122.413 200.099C122.646 197.709 128.383 176.674 129.672 171.976L131.614 164.939C132.128 163.063 132.637 161.182 133.274 159.346C134.502 155.843 136.306 152.33 139.498 150.239C142.9 148.026 147.138 147.843 151.072 148.131C153.285 148.286 155.498 148.585 157.711 148.845L164.976 149.708C169.612 150.261 174.254 150.908 178.923 151.052C181.258 151.141 183.596 151.046 185.917 150.77C188.015 150.565 190.076 150.074 192.041 149.309C193.78 148.636 195.242 147.396 196.191 145.791C197.164 144.048 197.496 142.028 197.712 140.075C198.171 135.616 197.847 131.111 196.755 126.764Z" fill="#263238"/>
<path d="M175.24 92.998C171.367 105.723 168.125 115.599 164.374 117.895C161.348 119.759 142.537 123.234 138.88 123.427C137.436 123.505 136.235 123.549 135.383 123.582C133.281 123.654 130.232 109.673 131.77 108.025C132.124 107.648 133.519 107.388 135.472 107.2C142.039 106.564 154.924 106.741 155.715 106.033C156.507 105.325 160.839 99.9138 166.681 92.8487C170.709 87.9689 173.934 86.5913 175.196 88.0187C175.915 88.843 175.987 90.5416 175.24 92.998Z" fill="#FECCAA"/>
<path d="M138.872 123.45C136.65 124.363 134.372 125.13 132.05 125.746C130.202 126.15 124.858 127.179 124.194 125.192C123.751 123.837 126.827 122.858 128.991 122.122C130.125 121.735 131.569 120.661 131.287 119.909C130.8 118.625 127.867 119.693 125.914 120.661C122.152 122.531 117.062 126.006 114.971 124.02C114.18 123.267 115.236 122.067 116.741 120.916C114.335 122.21 111.795 123.239 110.882 122.437C110.362 121.984 110.373 121.408 110.722 120.777C110.421 120.889 110.094 120.911 109.78 120.84C109.467 120.769 109.181 120.609 108.957 120.379C108.26 119.544 108.702 118.409 109.599 117.275C109.459 117.25 109.327 117.193 109.213 117.107C109.1 117.022 109.008 116.911 108.946 116.783C107.518 114.254 115.928 107.82 118.728 107.35C126.949 105.956 135.513 107.223 135.513 107.223C138.523 109.978 138.883 123.444 138.872 123.45Z" fill="#FECCAA"/>
<path d="M127.463 115.123C125.515 115.279 123.625 115.867 121.931 116.844C119.956 118.017 118.34 119.693 116.498 121.043C116.448 121.082 116.498 121.159 116.553 121.12C117.427 120.418 118.373 119.798 119.27 119.129C120.166 118.459 121.012 117.784 121.936 117.198C123.6 116.103 125.493 115.405 127.469 115.156C127.469 115.156 127.486 115.118 127.463 115.123Z" fill="#263238"/>
<path d="M126.18 111.588C123.984 111.956 121.832 112.547 119.757 113.353C117.543 114.31 115.712 115.997 113.936 117.613C112.874 118.587 111.83 119.583 110.805 120.601C110.76 120.645 110.805 120.717 110.866 120.678C112.669 119.003 114.513 117.384 116.398 115.82C118.16 114.351 120.197 113.247 122.39 112.573C123.64 112.191 124.913 111.903 126.185 111.616L126.18 111.588Z" fill="#263238"/>
<path d="M124.105 108.434C122.013 108.722 120.182 108.987 118.279 109.956C115.761 111.261 113.261 113.579 112.381 114.382C111.413 115.289 110.472 116.23 109.548 117.181C109.51 117.22 109.548 117.286 109.615 117.248C111.728 115.179 113.971 113.248 116.331 111.466C117.445 110.596 118.686 109.902 120.01 109.408C121.348 108.982 122.72 108.671 124.11 108.478C124.11 108.478 124.116 108.434 124.105 108.434Z" fill="#263238"/>
<path d="M176.41 90.8737C175.923 94.4865 173.174 101.424 173.174 101.424L159.641 99.8808C159.641 99.8808 166.911 90.575 172.394 87.1558C174.595 85.7893 176.908 87.2222 176.41 90.8737Z" fill="#FB8A3C"/>
<path d="M173.29 99.5818C171.293 99.2222 169.301 98.8902 167.287 98.6468C166.28 98.5251 165.279 98.4199 164.272 98.3259C163.265 98.2318 162.247 98.2484 161.245 98.1433C161.19 98.1433 161.184 98.2263 161.245 98.2318C162.247 98.2816 163.259 98.4753 164.261 98.5804C165.262 98.6855 166.269 98.8017 167.276 98.9179C169.279 99.1558 171.287 99.3881 173.29 99.6703C173.34 99.6758 173.34 99.5929 173.29 99.5818Z" fill="#263238"/>
<path d="M171.421 91.6094C171.991 91.0988 172.676 90.7343 173.418 90.5471C173.137 90.8052 172.822 91.0248 172.483 91.2C172.148 91.3816 171.791 91.5192 171.421 91.6094ZM169.672 98.0106C169.313 97.8979 168.942 97.831 168.566 97.8115C168.89 98.0133 169.24 98.1697 169.606 98.2762C169.964 98.3915 170.336 98.4585 170.712 98.4754C170.389 98.2735 170.039 98.1171 169.672 98.0106ZM166.873 92.2567C166.757 92.6149 166.69 92.9871 166.674 93.3632C166.874 93.0393 167.028 92.6892 167.133 92.3231C167.249 91.9649 167.316 91.5927 167.332 91.2166C167.135 91.5424 166.981 91.8919 166.873 92.2567Z" fill="white"/>
<path d="M176.411 90.8737C176.411 91.0729 176.356 91.2887 176.311 91.4989C176.267 91.7092 176.245 91.8364 176.201 92.019C175.441 95.2289 174.429 98.3739 173.174 101.424L172.621 101.364L172.095 101.303L167.841 100.816L167.21 100.749L162.967 100.268L162.413 100.202L160.853 100.025L172.372 87.1558C174.806 86.2042 176.898 87.2222 176.411 90.8737Z" fill="#263238"/>
<path d="M163.354 127.389C163.354 127.389 176.211 129.375 199.952 125.397C199.952 125.397 188.223 96.3066 180.034 88.8818C176.317 85.4959 173.014 86.3202 170.363 88.8818C169.705 89.5236 161.816 101.363 161.378 105.308C160.997 108.794 164.089 112.379 164.089 112.379L163.354 127.389Z" fill="#FB8A3C"/>
<path d="M186.934 113.602C186.676 113.32 186.456 113.006 186.281 112.667C186.095 112.334 185.957 111.976 185.871 111.604C186.13 111.886 186.349 112.2 186.524 112.539C186.706 112.874 186.843 113.231 186.934 113.602ZM175.216 100.572C175.04 100.232 174.819 99.9171 174.557 99.6373C174.647 100.008 174.785 100.365 174.967 100.7C175.142 101.039 175.361 101.353 175.619 101.635C175.535 101.263 175.399 100.906 175.216 100.572ZM195.576 123.461C195.399 123.124 195.179 122.812 194.923 122.531C195.013 122.902 195.151 123.259 195.332 123.594C195.507 123.933 195.727 124.247 195.985 124.529C195.896 124.156 195.758 123.797 195.576 123.461ZM172.04 116.75C171.865 116.41 171.645 116.096 171.387 115.815C171.477 116.185 171.615 116.542 171.796 116.877C171.972 117.216 172.191 117.531 172.449 117.812C172.36 117.441 172.223 117.084 172.04 116.75ZM177.274 88.1848C177.102 87.8432 176.882 87.5283 176.621 87.2498C176.808 87.9917 177.173 88.6771 177.683 89.247C177.597 88.8746 177.458 88.5167 177.268 88.1848H177.274ZM178.679 112.23C179.017 112.053 179.332 111.834 179.614 111.577C179.242 111.666 178.883 111.803 178.546 111.986C178.208 112.163 177.893 112.382 177.611 112.639C177.984 112.55 178.343 112.412 178.679 112.23ZM166.186 107.184C166.523 107.007 166.835 106.788 167.116 106.531C166.744 106.616 166.386 106.754 166.054 106.94C165.714 107.116 165.4 107.335 165.119 107.593C165.497 107.506 165.861 107.368 166.203 107.184H166.186ZM172.466 91.2C172.805 91.0249 173.12 90.8053 173.401 90.5472C172.659 90.7343 171.973 91.0989 171.404 91.6095C171.78 91.5207 172.142 91.383 172.482 91.2H172.466ZM174.574 124.833C174.918 124.662 175.238 124.447 175.525 124.191C174.783 124.378 174.098 124.743 173.528 125.253C173.899 125.16 174.256 125.018 174.59 124.833H174.574ZM185.573 97.7839C185.909 97.6071 186.222 97.3877 186.502 97.131C185.76 97.3182 185.075 97.6827 184.505 98.1933C184.883 98.1057 185.248 97.9681 185.589 97.7839H185.573ZM189.506 120.412C189.846 120.237 190.16 120.018 190.441 119.759C190.069 119.843 189.711 119.981 189.379 120.169C189.04 120.344 188.725 120.564 188.444 120.822C188.82 120.733 189.183 120.595 189.523 120.412H189.506ZM181.263 118.011C180.904 117.896 180.532 117.829 180.156 117.812C180.48 118.014 180.83 118.17 181.196 118.277C181.555 118.389 181.927 118.456 182.303 118.476C181.984 118.275 181.64 118.119 181.279 118.011H181.263ZM165.705 114.083C165.347 113.968 164.974 113.901 164.598 113.884C164.922 114.086 165.272 114.242 165.639 114.349C165.998 114.461 166.369 114.528 166.745 114.548C166.427 114.347 166.082 114.191 165.722 114.083H165.705ZM181.716 104.041C181.358 103.926 180.986 103.859 180.61 103.842C180.936 104.043 181.288 104.199 181.656 104.307C182.014 104.42 182.386 104.487 182.762 104.506C182.441 104.306 182.095 104.15 181.733 104.041H181.716ZM169.655 98.0107C169.296 97.898 168.924 97.8311 168.549 97.8115C168.873 98.0134 169.222 98.1698 169.589 98.2763C169.947 98.3916 170.319 98.4586 170.695 98.4755C170.377 98.2749 170.032 98.1186 169.672 98.0107H169.655ZM193.717 114.448C193.358 114.332 192.986 114.265 192.61 114.249C192.935 114.449 193.285 114.605 193.65 114.714C194.009 114.826 194.381 114.893 194.757 114.913C194.438 114.712 194.094 114.556 193.733 114.448H193.717ZM189.324 105.513C189.208 105.871 189.141 106.243 189.125 106.619C189.326 106.296 189.483 105.946 189.589 105.579C189.702 105.22 189.769 104.849 189.788 104.473C189.593 104.798 189.443 105.148 189.34 105.513H189.324ZM172.488 108.434C172.373 108.793 172.306 109.165 172.289 109.541C172.491 109.217 172.647 108.867 172.754 108.501C172.867 108.142 172.932 107.77 172.947 107.394C172.755 107.72 172.606 108.07 172.505 108.434H172.488ZM167.293 123.638C167.177 123.996 167.11 124.368 167.094 124.744C167.295 124.418 167.451 124.066 167.558 123.699C167.672 123.34 167.738 122.968 167.758 122.592C167.555 122.918 167.399 123.27 167.293 123.638ZM183.841 124.744C183.726 125.103 183.659 125.475 183.642 125.851C183.842 125.527 183.996 125.177 184.101 124.811C184.217 124.452 184.284 124.08 184.3 123.704C184.104 124.03 183.95 124.38 183.841 124.744ZM179.691 94.0881C179.576 94.4463 179.509 94.8185 179.492 95.1946C179.692 94.8698 179.848 94.5201 179.957 94.1545C180.069 93.7954 180.136 93.4236 180.156 93.048C179.955 93.37 179.798 93.7181 179.691 94.0825V94.0881ZM163.89 101.175C163.775 101.534 163.708 101.906 163.691 102.282C163.892 101.956 164.048 101.604 164.156 101.236C164.272 100.878 164.339 100.506 164.355 100.13C164.154 100.456 163.998 100.808 163.89 101.175Z" fill="white"/>
<path d="M175.824 87.7202C175.824 88.3841 173.96 93.2528 171.072 93.8614C170.131 94.0661 168.787 88.9871 168.787 88.9871L168.604 88.6331L166.015 83.698L171.121 78.0824L171.874 77.3188C171.874 77.3188 172.493 78.7131 173.246 80.4614L173.351 80.7103C173.395 80.8099 173.44 80.8985 173.478 80.9925C173.594 81.2525 173.711 81.5458 173.821 81.7837C173.932 82.0216 173.993 82.1876 174.076 82.4033C174.159 82.6191 174.242 82.8293 174.33 83.0396C174.934 84.5639 175.433 86.1277 175.824 87.7202Z" fill="#FECCAA"/>
<path d="M173.246 80.4833C173.112 82.1008 172.627 83.6696 171.826 85.0808C171.024 86.492 169.925 87.7117 168.604 88.655L166.015 83.7199L171.121 78.1043L171.874 77.3408C171.874 77.3408 172.493 78.7129 173.246 80.4833Z" fill="#263238"/>
<path d="M156.449 77.1305C157.555 86.8458 163.492 87.2884 165.588 87.0505C167.492 86.8292 173.937 85.8499 173.849 76.0737C173.76 66.2976 168.897 63.7305 164.521 63.996C160.144 64.2616 155.353 67.4097 156.449 77.1305Z" fill="#FECCAA"/>
<path d="M157.655 75.2992C157.876 75.2384 158.075 75.1499 158.291 75.0724C158.526 75.0212 158.738 74.8949 158.894 74.7128C158.933 74.6466 158.949 74.5692 158.939 74.493C158.929 74.4167 158.894 74.346 158.839 74.2923C158.715 74.202 158.569 74.1467 158.416 74.1321C158.263 74.1175 158.109 74.1441 157.97 74.2093C157.666 74.2957 157.405 74.4931 157.24 74.7626C157.208 74.8259 157.195 74.897 157.202 74.9676C157.209 75.0382 157.235 75.1054 157.279 75.1615C157.322 75.2176 157.38 75.2603 157.447 75.2846C157.513 75.309 157.586 75.3141 157.655 75.2992Z" fill="#263238"/>
<path d="M164.294 74.3975C164.068 74.3949 163.843 74.3783 163.619 74.3477C163.378 74.3627 163.139 74.2985 162.939 74.1652C162.884 74.1109 162.85 74.0403 162.84 73.9643C162.83 73.8883 162.845 73.8111 162.883 73.7447C162.98 73.6252 163.107 73.5335 163.251 73.4791C163.395 73.4246 163.55 73.4094 163.702 73.4349C164.017 73.4358 164.319 73.5564 164.549 73.7723C164.597 73.8241 164.63 73.8888 164.644 73.9587C164.657 74.0287 164.649 74.101 164.623 74.1669C164.596 74.2328 164.551 74.2897 164.492 74.3306C164.434 74.3715 164.365 74.3947 164.294 74.3975Z" fill="#263238"/>
<path d="M163.061 76.9646C163.061 76.9646 163.116 76.9646 163.121 77.0144C163.171 77.6783 163.343 78.4307 163.968 78.5857V78.6244C163.221 78.6023 163.005 77.6009 163.061 76.9646Z" fill="#263238"/>
<path d="M163.575 76.2068C164.632 76.0076 164.953 78.1321 163.974 78.3147C162.994 78.4973 162.69 76.3727 163.575 76.2068Z" fill="#263238"/>
<path d="M164.007 76.2564C164.212 76.3449 164.427 76.533 164.654 76.5219C164.881 76.5109 165.08 76.2564 165.207 76.0129C165.207 76.0129 165.241 76.0129 165.246 76.0129C165.308 76.2025 165.296 76.4086 165.212 76.5895C165.128 76.7703 164.978 76.9123 164.793 76.9867C164.4 77.1029 164.062 76.782 163.896 76.3892C163.88 76.3394 163.929 76.2176 164.007 76.2564Z" fill="#263238"/>
<path d="M159.381 77.3796C159.381 77.3796 159.332 77.4184 159.337 77.446C159.464 78.0989 159.498 78.8679 158.939 79.1833C158.939 79.1833 158.939 79.222 158.939 79.2165C159.658 79.0007 159.603 77.9772 159.381 77.3796Z" fill="#263238"/>
<path d="M158.684 76.782C157.61 76.8706 157.87 78.9951 158.861 78.9232C159.851 78.8512 159.58 76.7101 158.684 76.782Z" fill="#263238"/>
<path d="M158.259 76.9757C158.104 77.114 157.961 77.3353 157.761 77.3741C157.562 77.4128 157.33 77.2081 157.153 77.0034H157.12C157.158 77.4128 157.346 77.8222 157.745 77.8554C158.143 77.8886 158.331 77.5013 158.381 77.0808C158.392 77.031 158.32 76.9259 158.259 76.9757Z" fill="#263238"/>
<path d="M160.864 80.3563C160.864 80.3563 160.864 81.3577 160.931 81.8224C160.931 81.8667 161.052 81.8722 161.213 81.8612C161.62 81.8819 162.026 81.7895 162.384 81.5942C162.743 81.3989 163.04 81.1084 163.243 80.7546C163.271 80.7048 163.205 80.6661 163.166 80.7048C162.628 81.1897 161.95 81.4902 161.23 81.5624C161.18 81.4351 161.285 79.8418 161.23 79.8473C160.872 79.9273 160.527 80.0577 160.206 80.2346C160.14 78.1432 160.416 76.0574 160.322 73.9772C160.322 73.8997 160.206 73.8942 160.195 73.9772C159.833 76.2022 159.696 78.4579 159.786 80.7104C159.786 80.9427 160.693 80.4835 160.864 80.3563Z" fill="#263238"/>
<path d="M161.244 81.6285C161.555 81.9775 161.949 82.2421 162.39 82.3976C162.631 82.475 162.89 82.475 163.131 82.3976C163.684 82.2261 163.64 81.7337 163.513 81.3187C163.443 81.0986 163.348 80.887 163.231 80.688C162.686 81.2052 161.99 81.5347 161.244 81.6285Z" fill="#263238"/>
<path d="M162.391 82.3977C162.633 82.4752 162.892 82.4752 163.133 82.3977C163.686 82.2262 163.642 81.7338 163.515 81.3188C163.233 81.3461 162.969 81.4674 162.766 81.6632C162.562 81.859 162.43 82.1177 162.391 82.3977Z" fill="#FF9CBD"/>
<path d="M173.213 76.9039C172.151 76.9039 169.168 74.215 168.693 69.1029C168.693 69.1029 169.434 73.6673 169.832 74.3146C170.231 74.9619 168.173 72.7876 167.719 68.6714C166.491 69.7027 165.122 70.5523 163.652 71.1942C161.744 71.8858 160.549 71.9633 160.399 71.8305C160.25 71.6977 163.049 70.5746 163.758 69.6174C163.758 69.6174 158.778 72.4225 156.377 72.7876C156.106 72.8319 155.337 67.172 158.85 64.4887C162.363 61.8054 168.416 63.9354 170.109 65.3518C170.109 65.3518 171.974 65.4735 174.192 68.0572C176.411 70.641 174.364 76.8873 173.213 76.9039Z" fill="#263238"/>
<path d="M164.599 80.0298C163.785 80.0254 163.006 79.6986 162.432 79.121C161.859 78.5434 161.538 77.762 161.539 76.9481C161.541 76.3733 161.704 75.8105 162.01 75.3238C162.315 74.837 162.752 74.4459 163.269 74.1949C163.786 73.9439 164.363 73.8431 164.935 73.904C165.506 73.9649 166.049 74.1849 166.502 74.5392C166.955 74.8935 167.299 75.3677 167.495 75.9079C167.692 76.4481 167.733 77.0326 167.613 77.5949C167.494 78.1572 167.219 78.6747 166.82 79.0885C166.421 79.5024 165.914 79.7959 165.357 79.9357C165.109 79.9979 164.854 80.0295 164.599 80.0298ZM161.948 76.9481C161.946 77.4747 162.1 77.99 162.391 78.429C162.682 78.868 163.097 79.2108 163.582 79.414C164.068 79.6173 164.603 79.6719 165.12 79.5709C165.637 79.47 166.112 79.2179 166.485 78.8468C166.859 78.4756 167.114 78.0019 167.218 77.4858C167.322 76.9696 167.271 76.4342 167.071 75.9472C166.871 75.4602 166.53 75.0435 166.093 74.7499C165.656 74.4564 165.142 74.2991 164.615 74.298C164.395 74.2969 164.175 74.3248 163.962 74.381C163.389 74.5238 162.879 74.8538 162.515 75.3188C162.15 75.7837 161.951 76.3571 161.948 76.9481Z" fill="#FB8A3C"/>
<path d="M158.166 80.843C156.921 81.0035 155.726 79.7697 155.51 78.0767C155.396 77.319 155.524 76.5447 155.875 75.8637C156.008 75.5625 156.217 75.3007 156.48 75.1036C156.744 74.9065 157.054 74.7808 157.38 74.7385C157.707 74.6962 158.039 74.7389 158.344 74.8623C158.649 74.9858 158.917 75.1858 159.123 75.4432C159.634 76.0135 159.955 76.729 160.041 77.4903C160.246 79.0781 159.488 80.5 158.381 80.8098L158.166 80.843ZM156.235 76.0573C155.926 76.6606 155.813 77.3455 155.914 78.0159C156.102 79.4709 157.092 80.5443 158.127 80.4115C159.161 80.2787 159.831 78.9896 159.643 77.5345C159.567 76.8608 159.285 76.2269 158.835 75.7198C158.665 75.5196 158.45 75.3626 158.208 75.2616C157.966 75.1606 157.703 75.1186 157.441 75.1389L157.291 75.1666C157.063 75.2327 156.85 75.3461 156.668 75.4996C156.486 75.6531 156.339 75.8431 156.235 76.0573Z" fill="#FB8A3C"/>
<path d="M161.682 77.2855L161.904 76.9425C161.395 76.6105 160.244 76.2287 159.619 77.1195L159.951 77.3629C160.526 76.5607 161.638 77.2578 161.682 77.2855Z" fill="#FB8A3C"/>
<path d="M175.36 76.3119L175.698 76.074C175.587 75.919 174.591 74.5414 173.678 74.5082C172.766 74.475 167.421 75.7033 167.194 75.7531L167.283 76.1569C168.832 75.8029 172.992 74.8955 173.667 74.9176C174.342 74.9398 175.084 75.9301 175.36 76.3119Z" fill="#FB8A3C"/>
<path d="M174.252 79.6535C174.118 79.734 173.977 79.8025 173.831 79.8582C173.686 79.9133 173.533 79.9468 173.378 79.9577C173.18 79.9793 172.979 79.9566 172.791 79.8914C172.643 79.8411 172.502 79.7724 172.371 79.6866C172.188 79.5605 172.029 79.4032 171.9 79.2219V76.5552C171.9 76.5552 173.389 73.136 174.894 73.6118C176.398 74.0876 175.751 78.7406 174.252 79.6535Z" fill="#FECCAA"/>
<path d="M174.701 74.9507C174.729 74.9507 174.74 74.9784 174.701 74.9894C173.672 75.6699 173.29 76.8262 173.097 77.9826C173.139 77.8576 173.208 77.7434 173.299 77.6477C173.39 77.552 173.5 77.4772 173.623 77.4283C173.745 77.3794 173.877 77.3576 174.009 77.3645C174.14 77.3713 174.269 77.4067 174.386 77.468C174.419 77.468 174.386 77.5344 174.386 77.5344C174.178 77.5098 173.968 77.5497 173.784 77.6487C173.6 77.7477 173.451 77.901 173.357 78.0877C173.206 78.4042 173.091 78.7363 173.014 79.078C172.981 79.1887 172.787 79.1721 172.804 79.0504C172.499 77.6063 173.202 75.3933 174.701 74.9507Z" fill="#263238"/>
<path d="M174.059 79.2772C174.059 79.3669 174.032 79.4546 173.982 79.5292C173.933 79.6038 173.862 79.662 173.779 79.6963C173.696 79.7306 173.605 79.7396 173.517 79.7221C173.429 79.7046 173.348 79.6614 173.284 79.598C173.221 79.5345 173.178 79.4537 173.16 79.3657C173.143 79.2777 173.152 79.1864 173.186 79.1035C173.22 79.0206 173.279 78.9498 173.353 78.8999C173.428 78.8501 173.515 78.8235 173.605 78.8235C173.725 78.8235 173.841 78.8713 173.926 78.9564C174.011 79.0414 174.059 79.1568 174.059 79.2772Z" fill="white"/>
<path d="M174.839 78.4198C174.839 78.4832 174.821 78.5453 174.785 78.598C174.75 78.6508 174.7 78.6919 174.641 78.7162C174.583 78.7405 174.518 78.7469 174.456 78.7345C174.394 78.7221 174.337 78.6915 174.292 78.6467C174.247 78.6018 174.216 78.5446 174.204 78.4824C174.191 78.4201 174.198 78.3556 174.222 78.297C174.246 78.2383 174.287 78.1882 174.34 78.153C174.393 78.1177 174.455 78.0989 174.519 78.0989C174.604 78.0989 174.685 78.1327 174.745 78.1929C174.806 78.253 174.839 78.3347 174.839 78.4198Z" fill="white"/>
<path d="M181.789 90.4919C189.058 100.39 198.851 117.098 194.287 120.694C186.784 126.598 165.146 129.652 160.189 130.15C158.048 130.36 154.054 116.318 155.514 114.542C156.975 112.766 179.802 111.953 179.99 110.559C180.096 109.768 178.38 102.924 176.328 94.409C173.954 84.5885 179.703 87.6757 181.789 90.4919Z" fill="#FECCAA"/>
<path d="M159.275 113.469C159.275 113.469 152.73 113.286 148.448 113.369C146.058 113.414 141.969 113.862 140.227 114.697C137.626 115.947 127.54 122.841 129.161 125.325C130.627 127.572 138.567 120.545 138.567 120.545C138.567 120.545 129.925 126.957 132.204 129.309C134.484 131.66 142.351 122.565 142.351 122.565C142.351 122.565 133.648 129.32 136.37 131.417C138.428 132.993 146.036 125.132 146.036 125.132C146.036 125.132 138.6 130.991 140.641 132.7C142.904 134.592 150.379 127.776 150.379 127.776C156.31 131.251 160.559 130.482 163.513 129.574C164.216 129.342 159.275 113.469 159.275 113.469Z" fill="#FECCAA"/>
<path d="M141.378 118.149C140.338 118.863 139.281 119.577 138.307 120.362C137.334 121.148 136.393 122.022 135.497 122.891C134.311 124.034 133.257 125.307 132.354 126.686C134.13 124.351 137.566 121.425 138.54 120.6C139.514 119.776 140.437 118.94 141.406 118.144C141.433 118.166 141.4 118.133 141.378 118.149Z" fill="#263238"/>
<path d="M144.338 121.607C143.054 122.57 141.738 123.488 140.493 124.512C139.248 125.535 138.169 126.609 137.007 127.71C136.913 127.798 137.007 127.815 137.085 127.71C138.291 126.658 139.491 125.773 140.709 124.733C141.926 123.693 143.11 122.603 144.366 121.613L144.338 121.607Z" fill="#263238"/>
<path d="M147.414 124.114C145.406 125.551 143.552 127.192 141.882 129.01C141.799 129.099 141.882 129.11 141.992 129.01C143.802 127.35 145.207 126.034 147.47 124.169C147.497 124.158 147.459 124.086 147.414 124.114Z" fill="#263238"/>
<path d="M164.173 112.855C163.254 112.855 161.312 113.165 159.16 113.214C154.319 113.314 147.481 113.154 145.041 113.214C138.446 113.414 134.341 118.194 132.46 119.854C131.334 120.858 130.31 121.97 129.4 123.173C128.93 123.831 128.471 124.766 129.068 125.519C129.793 126.432 132.609 125.519 135.569 122.968C135.674 122.874 135.608 122.813 135.497 122.896C131.359 126.116 129.743 125.707 129.328 125.109C129.063 124.739 129.328 124.108 129.594 123.632C130.009 122.943 130.507 122.308 131.076 121.74C132.983 119.772 135.085 118.003 137.35 116.462C139.784 114.721 142.662 113.706 145.649 113.535C147.774 113.402 154.291 113.596 159.171 113.452C161.307 113.386 163.243 113.004 164.15 112.932C164.25 112.96 164.239 112.855 164.173 112.855Z" fill="#263238"/>
<path d="M191.077 103.056L177.185 102.702C177.185 102.702 175.691 95.8806 175.392 91.9912C174.999 86.8403 176.82 85.4848 181.34 89.922C184.361 92.893 191.077 103.056 191.077 103.056Z" fill="#FB8A3C"/>
<path d="M177.678 89.247C177.167 88.6771 176.803 87.9917 176.615 87.2498C177.126 87.8197 177.491 88.5051 177.678 89.247ZM185.589 97.7839C185.926 97.6071 186.238 97.3877 186.519 97.131C185.777 97.3182 185.091 97.6827 184.522 98.1933C184.894 98.1043 185.253 97.9667 185.589 97.7839ZM179.692 94.0825C179.576 94.4408 179.509 94.813 179.492 95.1891C179.692 94.8642 179.848 94.5145 179.957 94.1489C180.069 93.7898 180.136 93.4181 180.156 93.0424C179.954 93.3662 179.798 93.7162 179.692 94.0825Z" fill="white"/>
<path d="M178.884 102.752C178.734 102.719 177.307 102.636 177.224 102.658C177.069 101.85 176.925 101.043 176.759 100.241C176.676 99.8366 176.587 99.4327 176.493 99.0344C176.399 98.636 176.289 98.0883 176.2 97.701C176.2 97.6402 176.106 97.6512 176.112 97.701C176.184 98.2211 176.25 98.6028 176.316 99.051C176.383 99.4991 176.438 99.8532 176.516 100.252C176.67 101.093 176.803 101.994 177.002 102.83C177.637 102.857 178.273 102.844 178.906 102.791L178.884 102.752Z" fill="#263238"/>
<path d="M189.7 101.701C187.68 101.513 185.667 101.347 183.642 101.275C182.629 101.242 181.622 101.22 180.61 101.214C179.597 101.209 178.585 101.308 177.578 101.286C177.566 101.286 177.555 101.291 177.547 101.299C177.538 101.307 177.534 101.319 177.534 101.33C177.534 101.342 177.538 101.353 177.547 101.362C177.555 101.37 177.566 101.375 177.578 101.375C178.585 101.341 179.608 101.446 180.615 101.469L183.647 101.546C185.667 101.612 187.686 101.673 189.705 101.789C189.744 101.789 189.744 101.706 189.7 101.701Z" fill="#263238"/>
<path d="M123.169 129.242H153.815V126.863L123.169 125.873V129.242Z" fill="#455A64"/>
<path d="M99.0825 129.203H119.304C121.025 129.203 118.53 124.291 112.234 122.404C105.937 120.517 97.0963 127.361 99.0825 129.203Z" fill="#37474F"/>
<path d="M107.015 129.204C106.686 128.168 106.245 127.172 105.698 126.233C105.427 125.775 105.112 125.345 104.758 124.949C104.39 124.55 103.993 124.18 103.568 123.843C104.116 124.005 104.624 124.283 105.057 124.656C105.497 125.025 105.871 125.466 106.163 125.962C106.458 126.453 106.684 126.984 106.833 127.538C106.985 128.08 107.047 128.642 107.015 129.204Z" fill="#263238"/>
<path d="M104.62 124.529C103.558 125.215 102.495 125.84 101.499 126.554C100.999 126.896 100.528 127.281 100.094 127.704C99.6431 128.117 99.2961 128.631 99.0817 129.204C99.092 128.545 99.3372 127.911 99.7733 127.417C100.175 126.911 100.648 126.468 101.179 126.1C101.703 125.735 102.258 125.416 102.838 125.148C103.409 124.879 104.006 124.672 104.62 124.529Z" fill="#263238"/>
<path d="M84.5749 119.693H133.721L125.909 83.1003H76.7573L84.5749 119.693Z" fill="#455A64"/>
<path d="M82.7596 119.693H131.906L124.088 83.1003H74.942L82.7596 119.693Z" fill="#37474F"/>
<path d="M109.267 106.575H110.418L108.669 98.3647H107.513L109.267 106.575Z" fill="#263238"/>
<path d="M106.993 106.575H108.144L106.396 98.3647H105.239L106.993 106.575Z" fill="#263238"/>
<path d="M104.72 106.575H105.87L104.122 98.3647H102.966L104.72 106.575Z" fill="#263238"/>
<path d="M102.445 106.575H103.596L101.847 98.3647H100.691L102.445 106.575Z" fill="#263238"/>
<path d="M100.166 106.575H101.322L99.5683 98.3647H98.4175L100.166 106.575Z" fill="#263238"/>
<path d="M97.8921 106.575H99.0484L97.2946 98.3647H96.1438L97.8921 106.575Z" fill="#263238"/>
<path d="M95.6189 106.575H96.7752L95.0214 98.3647H93.8706L95.6189 106.575Z" fill="#263238"/>
<path d="M96.6591 129.248H120.831V127.372L96.6591 126.587V129.248Z" fill="#455A64"/>
<path d="M90.0851 129.242H103.065L110.882 108.744H97.9027L90.0851 129.242Z" fill="#455A64"/>
<path d="M87.9506 129.242H100.93L108.742 108.744H95.7682L87.9506 129.242Z" fill="#263238"/>
<path d="M204.389 129.242H30.1445V132.413H204.389V129.242Z" fill="#37474F"/>
<path d="M200.24 132.413H34.2943V140.369H200.24V132.413Z" fill="#37474F"/>
<path d="M200.24 132.413H34.2943V136.391H200.24V132.413Z" fill="#263238"/>
<path d="M56.79 202.555H41.9183V205.172H56.79V202.555Z" fill="#37474F"/>
<path d="M64.8564 240.819H63.2519L50.1507 179.667L49.4038 176.181L47.0524 165.204L46.1783 161.11L42.8808 145.752L41.73 140.368H47.4508L48.3858 145.752L48.9944 149.281L49.4038 151.633L51.7552 165.204L52.5131 169.575L64.8564 240.819Z" fill="#37474F"/>
<path d="M47.4508 140.368L48.3858 145.752H42.8808L41.73 140.368H47.4508Z" fill="#263238"/>
<path d="M52.5132 169.575L50.1508 179.667L49.4039 176.181L47.0525 165.204L46.1783 161.11L48.9944 149.281L49.4039 151.633L51.7552 165.204L52.5132 169.575Z" fill="#263238"/>
<path d="M57.0785 140.368L55.9277 145.752L51.7561 165.204L49.4048 176.181L35.5566 240.819H33.9521L47.0534 165.204L49.4048 151.633L50.4228 145.752L51.3522 140.368H57.0785Z" fill="#37474F"/>
<path d="M57.078 140.368L55.9272 145.752H50.4222L51.3517 140.368H57.078Z" fill="#263238"/>
<path d="M192.516 202.555H177.644V205.172H192.516V202.555Z" fill="#37474F"/>
<path d="M200.583 240.819H198.973L185.877 179.667L185.13 176.181L182.773 165.204L181.899 161.11L178.607 145.752L177.451 140.368H183.177L184.106 145.752L184.721 149.281L185.13 151.633L187.476 165.204L188.234 169.575L200.583 240.819Z" fill="#37474F"/>
<path d="M183.177 140.368L184.106 145.752H178.607L177.451 140.368H183.177Z" fill="#263238"/>
<path d="M188.234 169.575L185.877 179.667L185.13 176.181L182.773 165.204L181.899 161.11L184.721 149.281L185.13 151.633L187.476 165.204L188.234 169.575Z" fill="#263238"/>
<path d="M192.799 140.368L191.648 145.752L187.476 165.204L185.13 176.181L171.277 240.819H169.678L182.773 165.204L185.13 151.633L186.143 145.752L187.078 140.368H192.799Z" fill="#37474F"/>
<path d="M192.799 140.368L191.648 145.752H186.143L187.078 140.368H192.799Z" fill="#263238"/>
<path d="M44.8901 126.1L43.7947 125.956L48.5583 89.6894L62.6001 80.7266L67.1313 83.692L66.5282 84.616L62.589 82.0433L49.5873 90.3423L44.8901 126.1Z" fill="#263238"/>
<path d="M48.142 90.0159C48.1409 90.2013 48.1949 90.3828 48.2973 90.5375C48.3996 90.6921 48.5455 90.8128 48.7166 90.8842C48.8877 90.9557 49.0762 90.9747 49.258 90.9388C49.4399 90.9029 49.607 90.8137 49.7381 90.6826C49.8692 90.5515 49.9584 90.3844 49.9943 90.2025C50.0302 90.0206 50.0112 89.8322 49.9398 89.6611C49.8683 89.49 49.7476 89.344 49.593 89.2417C49.4384 89.1394 49.2569 89.0853 49.0715 89.0864C48.825 89.0864 48.5885 89.1844 48.4142 89.3587C48.2399 89.533 48.142 89.7694 48.142 90.0159Z" fill="#434E61"/>
<path d="M62.5492 82.3145C63.0626 82.3145 63.4787 81.8984 63.4787 81.3851C63.4787 80.8717 63.0626 80.4556 62.5492 80.4556C62.0359 80.4556 61.6198 80.8717 61.6198 81.3851C61.6198 81.8984 62.0359 82.3145 62.5492 82.3145Z" fill="#434E61"/>
<path d="M74.9089 84.9645L68.7179 91.8748L65.863 88.345L64.1258 86.1928L68.7621 81.0198L71.0914 82.5191L74.9089 84.9645Z" fill="#434E61"/>
<path opacity="0.1" d="M74.9085 84.9647L68.7175 91.875L65.8627 88.3451L71.091 82.5193L74.9085 84.9647Z" fill="black"/>
<path d="M83.8783 88.3727L73.0897 100.412L65.9249 91.2718L74.0081 82.2537L83.8783 88.3727Z" fill="#434E61"/>
<path d="M52.8137 129.248H36.8521L37.8313 124.235H51.8344L52.8137 129.248Z" fill="#434E61"/>
<path d="M214.159 175.788C213.694 179.03 213.861 182.331 214.652 185.509C215.026 186.981 215.524 188.419 216.14 189.808C216.915 191.584 217.722 193.321 217.529 195.269C217.341 195.396 217.988 195.374 218.005 195.186C223.205 192.226 229.878 191.684 233.878 186.842C235.775 184.546 236.732 181.642 237.197 178.737C237.69 175.573 237.822 172.098 237.009 168.95C236.317 166.311 234.796 163.766 232.301 162.471C229.806 161.177 226.392 161.254 223.698 162.09C217.872 163.899 214.984 170.167 214.159 175.788Z" fill="#FB8A3C"/>
<path d="M211.493 214.284C212.201 211.922 212.909 209.554 213.639 207.197C215.067 202.572 216.55 197.968 218.193 193.415C219.178 190.693 220.214 187.995 221.302 185.321C221.186 183.635 220.979 181.956 220.683 180.292C220.251 178.278 219.615 176.33 219.023 174.355C219.013 174.327 219.015 174.297 219.028 174.27C219.041 174.244 219.064 174.224 219.092 174.214C219.12 174.205 219.15 174.206 219.177 174.219C219.203 174.232 219.223 174.255 219.233 174.283C220.4 177.005 221.927 180.48 221.961 183.689C223.233 180.662 224.589 177.68 226.049 174.742C226.217 172.257 226.141 169.761 225.822 167.29C225.818 167.267 225.823 167.242 225.837 167.223C225.85 167.203 225.871 167.189 225.894 167.185C225.918 167.18 225.942 167.186 225.962 167.199C225.981 167.213 225.995 167.233 225.999 167.257C226.441 169.42 226.612 171.63 226.508 173.835C227.615 171.622 228.799 169.448 230.055 167.301C230.165 167.107 230.437 167.301 230.337 167.495C228.384 171.257 226.569 175.102 224.865 178.992C227.261 176.918 230.028 175.317 233.02 174.272C233.153 174.228 233.247 174.416 233.114 174.466C229.851 175.873 226.864 177.852 224.295 180.308C223.074 183.159 221.911 186.033 220.804 188.928C224.057 185.736 228.511 183.639 232.816 182.516C232.965 182.477 233.004 182.698 232.86 182.743C227.88 184.242 224.008 187.069 220.212 190.488C219.77 191.658 219.338 192.83 218.918 194.007C217.306 198.459 215.775 202.942 214.326 207.457C213.628 209.615 212.937 211.783 212.262 213.947C211.537 216.281 210.967 218.743 210.049 220.995C209.96 221.211 209.573 221.161 209.623 220.901C210.134 218.665 210.758 216.457 211.493 214.284Z" fill="#263238"/>
<path d="M220.119 171.218C221.042 172.638 221.679 174.224 221.995 175.888C221.995 175.932 221.934 175.954 221.917 175.888C221.336 174.32 220.658 172.79 219.887 171.307C219.809 171.218 220.03 171.102 220.119 171.218Z" fill="#263238"/>
<path d="M229.398 182.073C230.843 181.27 232.424 180.737 234.062 180.502C234.106 180.502 234.133 180.558 234.062 180.574C233.309 180.889 232.523 181.127 231.765 181.398C231.008 181.67 230.255 182.046 229.486 182.311C229.458 182.313 229.43 182.306 229.406 182.29C229.382 182.274 229.364 182.252 229.354 182.225C229.344 182.198 229.343 182.169 229.351 182.142C229.359 182.115 229.375 182.091 229.398 182.073Z" fill="#263238"/>
<path d="M232.008 169.039C232.479 168.682 232.983 168.371 233.513 168.109C233.53 168.098 233.552 168.095 233.572 168.099C233.592 168.104 233.61 168.116 233.621 168.134C233.632 168.152 233.635 168.173 233.631 168.193C233.626 168.213 233.613 168.231 233.596 168.242C233.135 168.608 232.64 168.931 232.119 169.205C232.025 169.26 231.914 169.099 232.008 169.039Z" fill="#263238"/>
<path d="M196.627 193.454C200.373 194.56 204.141 195.589 207.886 196.69C208.213 196.79 214.525 184.657 212.252 178.405C210.138 172.618 205.297 168.291 199.527 166.322C196.854 165.414 193.568 164.662 190.741 165.276C188.229 165.829 186.453 167.887 185.64 170.255C184.533 173.464 184.898 177.298 185.501 180.574C185.986 183.652 187.257 186.552 189.192 188.994C191.172 191.357 193.712 192.585 196.627 193.454Z" fill="#FB8A3C"/>
<path d="M191.199 181.918C193.566 183.075 196.021 184.043 198.541 184.812C200.222 185.265 201.862 185.859 203.443 186.588C201.866 183.058 200.123 179.606 198.287 176.186C195.863 175.484 193.307 174.394 191.498 172.679C191.478 172.661 191.465 172.636 191.463 172.609C191.461 172.582 191.469 172.555 191.487 172.535C191.505 172.514 191.53 172.502 191.557 172.5C191.584 172.497 191.61 172.506 191.631 172.524C193.628 173.935 195.83 174.781 198.038 175.733C197.54 174.814 197.034 173.892 196.522 172.966C196.383 172.712 196.732 172.457 196.904 172.706C198.871 175.565 200.649 178.55 202.226 181.642C202.629 178.932 202.759 176.189 202.613 173.453C202.61 173.445 202.61 173.436 202.611 173.428C202.612 173.419 202.616 173.411 202.621 173.404C202.626 173.396 202.633 173.391 202.641 173.387C202.648 173.383 202.657 173.381 202.666 173.381C202.674 173.381 202.683 173.383 202.691 173.387C202.699 173.391 202.705 173.396 202.711 173.404C202.716 173.411 202.719 173.419 202.72 173.428C202.722 173.436 202.721 173.445 202.718 173.453C203.187 176.436 203.157 179.476 202.63 182.449C203.941 185.072 205.136 187.761 206.215 190.477C206.641 188.845 207.194 187.235 207.565 185.586C208.136 183.234 208.323 180.806 208.118 178.394C208.118 178.322 208.212 178.316 208.223 178.394C208.889 182.866 208.347 187.436 206.652 191.628C207.277 193.288 207.875 194.909 208.422 196.552C211.248 204.955 212.923 213.703 213.402 222.555C213.402 222.598 213.385 222.639 213.355 222.669C213.325 222.699 213.284 222.716 213.241 222.716C213.199 222.716 213.158 222.699 213.128 222.669C213.098 222.639 213.081 222.598 213.081 222.555C212.102 213.827 210.233 205.221 207.504 196.873C206.397 193.609 205.164 190.438 203.792 187.324C201.579 186.671 199.366 185.786 197.202 185.033C195.039 184.281 192.909 183.445 191.116 182.051C191.044 181.996 191.122 181.879 191.199 181.918Z" fill="#263238"/>
<path d="M187.71 178.411C190 179.229 192.169 180.369 194.46 181.177C194.565 181.216 194.504 181.387 194.393 181.365C191.975 180.862 189.574 180.115 187.621 178.527C187.533 178.466 187.627 178.366 187.71 178.411Z" fill="#263238"/>
<path d="M206.41 173.432C206.41 173.31 206.565 173.243 206.598 173.365C207.229 175.479 207.661 177.719 207.052 179.877C207.052 179.96 206.892 179.966 206.886 179.877C206.781 177.714 206.897 175.6 206.41 173.432Z" fill="#263238"/>
<path d="M196.936 168.579C197.665 169.629 198.015 170.895 197.926 172.17C197.926 172.247 197.794 172.297 197.771 172.17C197.495 170.964 197.03 169.863 196.665 168.69C196.663 168.658 196.671 168.626 196.689 168.599C196.706 168.571 196.731 168.55 196.761 168.538C196.791 168.526 196.824 168.523 196.855 168.531C196.886 168.538 196.915 168.555 196.936 168.579Z" fill="#263238"/>
<path d="M241.198 198.804C240.091 202.29 237.491 207.103 233.358 207.147C230.68 207.147 227.98 206.854 225.297 206.815C222.42 206.771 219.543 206.777 216.672 206.948C216.439 206.948 217.015 198.339 223.925 194.14C225.861 192.962 228.229 192.591 230.426 192.115C232.941 191.52 235.522 191.251 238.105 191.313C239.693 191.379 241.015 191.717 241.58 193.338C242.144 194.959 241.707 197.15 241.198 198.804Z" fill="#FB8A3C"/>
<path d="M238.21 194.455C236.551 194.887 234.836 195.379 233.148 195.916C233.588 195.439 234.053 194.987 234.542 194.56C235.267 193.957 236.064 193.454 236.838 192.95C236.905 192.906 236.866 192.779 236.783 192.812C235.148 193.491 233.736 194.614 232.706 196.054C230.609 196.735 228.528 197.482 226.526 198.306C225.142 198.871 223.815 199.568 222.564 200.386C222.966 199.515 223.445 198.681 223.997 197.897C224.916 196.707 226.155 196.043 227.355 195.202C227.38 195.188 227.397 195.164 227.404 195.136C227.411 195.109 227.406 195.08 227.391 195.056C227.377 195.031 227.353 195.014 227.326 195.007C227.298 195 227.269 195.005 227.245 195.02C225.986 195.56 224.854 196.358 223.922 197.363C222.99 198.367 222.279 199.555 221.834 200.851C220.412 201.888 219.113 203.083 217.961 204.414C213.386 209.609 209.784 216.519 209.773 223.568C209.773 223.739 210.044 223.784 210.077 223.612C211.249 216.698 214.261 210.227 218.797 204.879C219.123 204.497 219.46 204.137 219.798 203.772C221.051 203.604 222.313 203.509 223.577 203.49C225.048 203.49 226.509 203.706 227.975 203.828C230.387 204.021 233.054 204.054 235.228 202.837C235.25 202.825 235.267 202.806 235.275 202.783C235.283 202.759 235.283 202.733 235.273 202.711C235.263 202.688 235.245 202.669 235.223 202.659C235.2 202.649 235.175 202.647 235.151 202.655C230.304 204.42 225.192 202.184 220.351 203.236C222.434 201.252 224.875 199.682 227.544 198.61L227.992 198.433C231.107 198.804 234.393 199.617 237.425 198.605C237.444 198.6 237.46 198.587 237.47 198.57C237.48 198.553 237.483 198.533 237.477 198.513C237.472 198.494 237.46 198.478 237.443 198.468C237.426 198.458 237.405 198.456 237.386 198.461C234.454 199.191 231.643 198.273 228.755 198.129C231.903 196.901 235.112 195.916 238.271 194.71C238.493 194.61 238.498 194.367 238.21 194.455Z" fill="#263238"/>
<path d="M239.581 197.509C238.078 197.704 236.565 197.818 235.05 197.852C235.016 197.852 235.005 197.908 235.05 197.913C236.575 198.198 238.147 198.099 239.625 197.626C239.686 197.603 239.653 197.498 239.581 197.509Z" fill="#263238"/>
<path d="M229.345 194.522C228.508 194.897 227.749 195.424 227.104 196.076C227.021 196.148 227.132 196.292 227.215 196.226C227.597 195.949 227.989 195.672 228.382 195.434C228.764 195.225 229.133 194.994 229.489 194.743C229.577 194.66 229.467 194.455 229.345 194.522Z" fill="#263238"/>
<path d="M204.948 205.742C204.998 205.852 204.832 205.963 204.766 205.841C204.754 205.86 204.739 205.875 204.721 205.886C204.703 205.898 204.682 205.905 204.661 205.908C201.879 206.573 199.06 207.066 196.218 207.385C193.933 207.584 191.299 207.711 189.297 206.389C186.586 204.591 184.804 199.783 186.27 196.729C188.002 193.105 193.225 195.069 195.847 196.364C199.882 198.333 203.101 201.65 204.948 205.742Z" fill="#FB8A3C"/>
<path d="M206.972 207.418C205.45 205.944 203.758 204.655 201.932 203.578C200.618 201.498 198.875 199.721 196.82 198.367C196.72 198.3 196.637 198.455 196.726 198.527C198.36 199.836 199.81 201.36 201.036 203.058C198.999 201.947 196.883 200.985 194.707 200.181C193.932 198.739 192.751 197.555 191.309 196.779C191.282 196.779 191.249 196.779 191.276 196.823C192.464 197.727 193.5 198.814 194.347 200.043C193.058 199.562 191.763 199.119 190.474 198.688C190.358 198.649 190.314 198.826 190.424 198.87C192.737 199.772 195.094 200.724 197.384 201.819C194.593 202.264 191.749 202.264 188.958 201.819C188.943 201.817 188.928 201.82 188.916 201.828C188.903 201.836 188.894 201.848 188.89 201.862C188.886 201.877 188.887 201.892 188.894 201.905C188.9 201.919 188.911 201.929 188.925 201.935C191.836 202.798 194.929 202.846 197.866 202.074C199.324 202.781 200.739 203.573 202.104 204.447C200.954 204.351 199.797 204.447 198.679 204.729C196.703 205.187 194.682 205.416 192.654 205.41C192.576 205.41 192.56 205.531 192.654 205.542C196.145 206.146 199.448 204.558 202.911 204.989C204.197 205.863 205.404 206.848 206.519 207.933C208.679 210.093 210.458 212.603 211.78 215.357C213.235 218.323 214.026 221.443 215.205 224.53C215.212 224.559 215.231 224.584 215.256 224.599C215.281 224.614 215.312 224.618 215.34 224.611C215.369 224.603 215.394 224.585 215.409 224.559C215.424 224.534 215.428 224.504 215.421 224.475C214.386 218.389 211.376 211.722 206.972 207.418Z" fill="#263238"/>
<path d="M196.432 199.125C196.202 198.705 195.899 198.331 195.536 198.018C195.245 197.699 194.896 197.438 194.507 197.249C194.474 197.249 194.452 197.282 194.474 197.305C194.762 197.631 195.16 197.858 195.47 198.179C195.78 198.5 196.023 198.859 196.349 199.169C196.358 199.174 196.367 199.176 196.376 199.177C196.386 199.177 196.395 199.174 196.403 199.17C196.412 199.166 196.419 199.159 196.424 199.151C196.429 199.143 196.432 199.134 196.432 199.125Z" fill="#263238"/>
<path d="M190.676 201C190.156 200.873 189.608 200.884 189.082 200.774C188.558 200.648 188.041 200.495 187.533 200.314C187.519 200.312 187.505 200.314 187.493 200.321C187.481 200.328 187.471 200.339 187.466 200.352C187.461 200.365 187.46 200.379 187.464 200.392C187.469 200.406 187.477 200.417 187.489 200.425C188.442 201.012 189.561 201.272 190.676 201.166C190.693 201.16 190.707 201.149 190.718 201.134C190.728 201.119 190.733 201.102 190.733 201.083C190.733 201.065 190.728 201.048 190.718 201.033C190.707 201.018 190.693 201.007 190.676 201Z" fill="#263238"/>
<path d="M223.587 213.814L223.017 220.287L221.086 242.135H203.974L201.556 220.287L200.842 213.814H223.587Z" fill="#455A64"/>
<path d="M223.587 213.814L223.017 220.287H201.556L200.842 213.814H223.587Z" fill="#263238"/>
<path d="M225.282 212.049H199.152V217.3H225.282V212.049Z" fill="#455A64"/>
</svg>
